<mxfile>
    <diagram id="u3RJa2mFzkfWkEJCtCbY" name="ページ1">
        <mxGraphModel dx="944" dy="698" grid="0" gridSize="10" guides="1" tooltips="1" connect="1" arrows="1" fold="1" page="0" pageScale="1" pageWidth="827" pageHeight="1169" background="#FFFFFF" math="0" shadow="0">
            <root>
                <mxCell id="0"/>
                <mxCell id="1" parent="0"/>
                <mxCell id="12" value="" style="shape=actor;whiteSpace=wrap;html=1;fillColor=#f5f5f5;strokeColor=#666666;fontColor=#333333;" vertex="1" parent="1">
                    <mxGeometry x="90" y="218.9" width="36" height="44" as="geometry"/>
                </mxCell>
                <mxCell id="3" value="" style="dashed=0;outlineConnect=0;html=1;align=center;labelPosition=center;verticalLabelPosition=bottom;verticalAlign=top;shape=mxgraph.weblogos.gmail" vertex="1" parent="1">
                    <mxGeometry x="805" y="264.09999999999997" width="64.8" height="46.800000000000004" as="geometry"/>
                </mxCell>
                <mxCell id="7" value="" style="shape=image;verticalLabelPosition=bottom;labelBackgroundColor=#ffffff;verticalAlign=top;aspect=fixed;imageAspect=0;image=data:image/png,iVBORw0KGgoAAAANSUhEUgAAAfQAAAH0EAIAAAAUJJSeAAAKJ2lDQ1BpY2MAAHjanZZ3VFTXFofPvXd6oc0wAlKG3rvAANJ7k15FYZgZYCgDDjM0sSGiAhFFRJoiSFDEgNFQJFZEsRAUVLAHJAgoMRhFVCxvRtaLrqy89/Ly++Osb+2z97n77L3PWhcAkqcvl5cGSwGQyhPwgzyc6RGRUXTsAIABHmCAKQBMVka6X7B7CBDJy82FniFyAl8EAfB6WLwCcNPQM4BOB/+fpFnpfIHomAARm7M5GSwRF4g4JUuQLrbPipgalyxmGCVmvihBEcuJOWGRDT77LLKjmNmpPLaIxTmns1PZYu4V8bZMIUfEiK+ICzO5nCwR3xKxRoowlSviN+LYVA4zAwAUSWwXcFiJIjYRMYkfEuQi4uUA4EgJX3HcVyzgZAvEl3JJS8/hcxMSBXQdli7d1NqaQffkZKVwBALDACYrmcln013SUtOZvBwAFu/8WTLi2tJFRbY0tba0NDQzMv2qUP91829K3NtFehn4uWcQrf+L7a/80hoAYMyJarPziy2uCoDOLQDI3fti0zgAgKSobx3Xv7oPTTwviQJBuo2xcVZWlhGXwzISF/QP/U+Hv6GvvmckPu6P8tBdOfFMYYqALq4bKy0lTcinZ6QzWRy64Z+H+B8H/nUeBkGceA6fwxNFhImmjMtLELWbx+YKuGk8Opf3n5r4D8P+pMW5FonS+BFQY4yA1HUqQH7tBygKESDR+8Vd/6NvvvgwIH554SqTi3P/7zf9Z8Gl4iWDm/A5ziUohM4S8jMX98TPEqABAUgCKpAHykAd6ABDYAasgC1wBG7AG/iDEBAJVgMWSASpgA+yQB7YBApBMdgJ9oBqUAcaQTNoBcdBJzgFzoNL4Bq4AW6D+2AUTIBnYBa8BgsQBGEhMkSB5CEVSBPSh8wgBmQPuUG+UBAUCcVCCRAPEkJ50GaoGCqDqqF6qBn6HjoJnYeuQIPQXWgMmoZ+h97BCEyCqbASrAUbwwzYCfaBQ+BVcAK8Bs6FC+AdcCXcAB+FO+Dz8DX4NjwKP4PnEIAQERqiihgiDMQF8UeikHiEj6xHipAKpAFpRbqRPuQmMorMIG9RGBQFRUcZomxRnqhQFAu1BrUeVYKqRh1GdaB6UTdRY6hZ1Ec0Ga2I1kfboL3QEegEdBa6EF2BbkK3oy+ib6Mn0K8xGAwNo42xwnhiIjFJmLWYEsw+TBvmHGYQM46Zw2Kx8lh9rB3WH8vECrCF2CrsUexZ7BB2AvsGR8Sp4Mxw7rgoHA+Xj6vAHcGdwQ3hJnELeCm8Jt4G749n43PwpfhGfDf+On4Cv0CQJmgT7AghhCTCJkIloZVwkfCA8JJIJKoRrYmBRC5xI7GSeIx4mThGfEuSIemRXEjRJCFpB+kQ6RzpLuklmUzWIjuSo8gC8g5yM/kC+RH5jQRFwkjCS4ItsUGiRqJDYkjiuSReUlPSSXK1ZK5kheQJyeuSM1J4KS0pFymm1HqpGqmTUiNSc9IUaVNpf+lU6RLpI9JXpKdksDJaMm4ybJkCmYMyF2TGKQhFneJCYVE2UxopFykTVAxVm+pFTaIWU7+jDlBnZWVkl8mGyWbL1sielh2lITQtmhcthVZKO04bpr1borTEaQlnyfYlrUuGlszLLZVzlOPIFcm1yd2WeydPl3eTT5bfJd8p/1ABpaCnEKiQpbBf4aLCzFLqUtulrKVFS48vvacIK+opBimuVTyo2K84p6Ss5KGUrlSldEFpRpmm7KicpFyufEZ5WoWiYq/CVSlXOavylC5Ld6Kn0CvpvfRZVUVVT1Whar3qgOqCmrZaqFq+WpvaQ3WCOkM9Xr1cvUd9VkNFw08jT6NF454mXpOhmai5V7NPc15LWytca6tWp9aUtpy2l3audov2Ax2yjoPOGp0GnVu6GF2GbrLuPt0berCehV6iXo3edX1Y31Kfq79Pf9AAbWBtwDNoMBgxJBk6GWYathiOGdGMfI3yjTqNnhtrGEcZ7zLuM/5oYmGSYtJoct9UxtTbNN+02/R3Mz0zllmN2S1zsrm7+QbzLvMXy/SXcZbtX3bHgmLhZ7HVosfig6WVJd+y1XLaSsMq1qrWaoRBZQQwShiXrdHWztYbrE9Zv7WxtBHYHLf5zdbQNtn2iO3Ucu3lnOWNy8ft1OyYdvV2o/Z0+1j7A/ajDqoOTIcGh8eO6o5sxybHSSddpySno07PnU2c+c7tzvMuNi7rXM65Iq4erkWuA24ybqFu1W6P3NXcE9xb3Gc9LDzWepzzRHv6eO7yHPFS8mJ5NXvNelt5r/Pu9SH5BPtU+zz21fPl+3b7wX7efrv9HqzQXMFb0ekP/L38d/s/DNAOWBPwYyAmMCCwJvBJkGlQXlBfMCU4JvhI8OsQ55DSkPuhOqHC0J4wybDosOaw+XDX8LLw0QjjiHUR1yIVIrmRXVHYqLCopqi5lW4r96yciLaILoweXqW9KnvVldUKq1NWn46RjGHGnIhFx4bHHol9z/RnNjDn4rziauNmWS6svaxnbEd2OXuaY8cp40zG28WXxU8l2CXsTphOdEisSJzhunCruS+SPJPqkuaT/ZMPJX9KCU9pS8Wlxqae5Mnwknm9acpp2WmD6frphemja2zW7Fkzy/fhN2VAGasyugRU0c9Uv1BHuEU4lmmfWZP5Jiss60S2dDYvuz9HL2d7zmSue+63a1FrWWt78lTzNuWNrXNaV78eWh+3vmeD+oaCDRMbPTYe3kTYlLzpp3yT/LL8V5vDN3cXKBVsLBjf4rGlpVCikF84stV2a9021DbutoHt5turtn8sYhddLTYprih+X8IqufqN6TeV33zaEb9joNSydP9OzE7ezuFdDrsOl0mX5ZaN7/bb3VFOLy8qf7UnZs+VimUVdXsJe4V7Ryt9K7uqNKp2Vr2vTqy+XeNc01arWLu9dn4fe9/Qfsf9rXVKdcV17w5wD9yp96jvaNBqqDiIOZh58EljWGPft4xvm5sUmoqbPhziHRo9HHS4t9mqufmI4pHSFrhF2DJ9NProje9cv+tqNWytb6O1FR8Dx4THnn4f+/3wcZ/jPScYJ1p/0Pyhtp3SXtQBdeR0zHYmdo52RXYNnvQ+2dNt293+o9GPh06pnqo5LXu69AzhTMGZT2dzz86dSz83cz7h/HhPTM/9CxEXbvUG9g5c9Ll4+ZL7pQt9Tn1nL9tdPnXF5srJq4yrndcsr3X0W/S3/2TxU/uA5UDHdavrXTesb3QPLh88M+QwdP6m681Lt7xuXbu94vbgcOjwnZHokdE77DtTd1PuvriXeW/h/sYH6AdFD6UeVjxSfNTws+7PbaOWo6fHXMf6Hwc/vj/OGn/2S8Yv7ycKnpCfVEyqTDZPmU2dmnafvvF05dOJZ+nPFmYKf5X+tfa5zvMffnP8rX82YnbiBf/Fp99LXsq/PPRq2aueuYC5R69TXy/MF72Rf3P4LeNt37vwd5MLWe+x7ys/6H7o/ujz8cGn1E+f/gUDmPP8Qdy3aAAAACBjSFJNAAB6JQAAgIMAAPn/AACA6QAAdTAAAOpgAAA6mAAAF2+SX8VGAAAACXBIWXMAABYlAAAWJQFJUiTwAAAACXZwQWcAAAH0AAAB9ABMtKM8AACAAElEQVR42u29dZhbV7rme2bu3DkD995nnjt8pvvM6STd6aST7kB3h5nZdshxwCHbsWNmZrZjjpnj2DEzM8RlZmaGYhBLVXXz5r372VulkrylLZVVVe/vj5WKXCVtbfytb33rW/9QKoQQQgghhEh7/kG7QAghhBBCCIm7EEIIIYQQQuIuhBBCCCGExF0IIYQQQgghcRdCCCGEEEJI3IUQQgghhJC4CyGEEEIIISTuQgghhBBCCIm7EEIIIYQQEnchhBBCCCGExF0IIYQQQgiJuxBCCCGEEELiLoQQQgghhJC4CyGEEEIIIXEXQgghhBBCSNyFEEIIIYQQEnchhBBCCCEk7kIIIYQQQgiJuxBCCCGEEELiLoQQQgghhMRdCCGEEEIIIXEXQgghhBBC4i6EEEIIIYSQuAshhBBCCCEk7kIIIYQQQkjchRBCCCGEEBJ3IYQQQgghhMRdCCGEEEIIibsQQgghhBBC4i6EEEIIIYTEXQghhBBCCCFxF0IIIYQQQkjchRBCCCGEkLgLIYQQQgghJO5CCCGEEEIIibsQQgghhBASdyGEEEIIIYTEXQghhBBCCCFxF0IIIYQQQuIuhBBCCCGEkLgLIYQQQgghcRdCCCGEEEJI3IUQQgghhBASdyGEEEIIISTuQgghhBBCCIm7EEIIIYQQQuIuhBBCCCGExF0IIYQQQgghcRdCCCGEEELiLoQQQgghhJC4CyGEEEIIISTuQgghhBBCSNyFEEIIIYQQEnchhBBCCCGExF0IIYQQQgiJuxBCCCGEEELiLoQQQgghhJC4CyGEEEIIIXEXQgghhBBCSNyFEEIIIYSQuAshhBBCCCEk7kIIIYQQQgiJuxBCCCGEEBJ3IYQQQgghhMRdCCGEEEIIIXEXQgghhBBC4i6EEEIIIYSQuAshhBBCCCFxF0IIIYQQQkjchRBCCCGEEBJ3IYQQQgghJO5CCCGEEEIIibsQQgghhBBC4i6EEEIIIYTEXQghhBBCCCFxF0IIIYQQQkjchRBCCCGEkLgLIYQQQgghJO5CCCGEEEJI3IUQQgghhBASdyGEEEIIIYTEXQghhBBCCIm7EEIIIYQQQuIuhBBCCCGEkLgLIYQQQgghcRdCCCGEEEJI3IUQQgghhJC4CyGEEEIIISTuQgghhBBCCIm7EEIIIYQQEnchhBBCCCGExF0IIYQQQgghcRdCCCGEEELiLoQQQgghhJC4CyGEEEIIISTuQgghhBBCSNyFEEIIIYQQEnchRIIEg6FQaWlBgcdTWnry5PXrJSXLlu3fX1IyYsTq1cXF7dr99FNx8VdfTZhQXPzuu8OHh0LvvDNkSCj09tvW9rvvorXBINu33rLTDh5stG++Gd4GArdqBw0y2jfeiN76/ZHt669b24EDb9W+9lp46/MZ7YAB5bWvvhpv27+/0b7ySnztyy/37+/12m9fesna9utnbT2e2O2LL0Zr+/Ytr33hhb593e5btX36GO3zz5dtn3yye3eX65lnevZ0uerVmzDB6501KyOjuPjYsatXjXO45Bd0VQshJO5CiCqn7MXFpaVZWYWFpaVHj165UlKyevWhQyUlo0evW2co+2efjR0bCkGsQ6Hnn+/b12ife87a9ukTrQ0G2T77rJ22d2+jfeaZ8DYQuFXbq5fRPv109Nbvj2yfesra9ux5q/bJJ8Nbn89oe/Qor33iCXut12u03bsb7eOPx9c+9li3bh6P/fbRR61t167W1u2O3T7ySLS2S5fy2r//vUsXl+tWbefORvu3v5Vt//zndu2Kih58sEOHoqJatYYM8XjGjFm/PhTaufPs2dLSa9fy8kpLvd5AQNe2EELiLoSoMoRCUPaLF7OzS0tXrYKsDxq0fHlxcePG06YVF3/88ejRRmQdMdRwZZe4S9zTQdxr1oS49+27ZEkotGTJ/v2lpbt3nztnnNU+n/RdCCFxF0JUWphCkJvrcjG+Xlo6b96uXSUl3bsvWFBS8v77I0aUJ+jRWom7xD0dxL1378WLQ6GZMzMySkuXLz94sLQ0I+P06dLSK1dycxV9F0JI3IUQlZS8PLe7tHTr1pMnS0q+/37t2pISxtdr1Ro+vLjYvrJL3MNlXeJ++8V9xozt20tLZ8/eubO0dOHCPXsMfVf0XQghcRdCVDJ8vmAQUXZM4KOyf/75+PHFxS++2L8/lL1fP4m7xL3yi/usWTt2lJZOn75tG/R9715F34UQEnchRCXC74eynz+flVVaOn/+7t1GlB0VRZzKenRxN2S9IsU9lqxXDnE3ZV3i7kTcp07dutXUd0XfhRASdyFE2lNcjIz2nBxktLNWTNeu8+eXlNSqNWwYlV3iLnGvuuIeru+KvgshJO5CiDSmsBA1rVHfuqRk8GBUjHnvPVRhf+GF8qvEpELc7cm6xL0yiXt0WY8u7i4X24oXd0XfhRASdyFEJYBLKTHWzvSYxGRd4i5xr+zirui7EELiLoRIa7j6KaaiFhfXrj1qVKplPRkTUsuK+60npCYu7vHKeqrEPRkTUiXudsRd0XchhMRdCJGmjBixerWx+unbb2MpJYm7xF3irui7EELiLoRIO6jsn302dmz01U9TIevpWAJS4l41xL2oCOJeWAhxLyx0Iu6KvgshJO5CiDTiq68mTCgufuedRGLtEneJe3UQd0XfhRASdyFEWoD1UI0aMtFF3E6bWlmvTIsuWdtbyXr1E/fyS0Cmv7gr+i6EkLgLIW4zb7753XdOlV3iLnGvLuKu6LsQQuIuhLhtvPGGE3FPhawnKz3m9pWATFdxj1fWK1Lc7cl6uoi7ou9CCIm7EOI2wEoyEneJu8Rd0XchhMRdCJHm4s6Ie3QFj1/QkyXrlSU9JvWLLqWfuJcn69VT3BV9F0JI3IUQEneJu8S90oi7ou9CCIm7EKJCxP1W8p0aQU+FrN+e9JiKLAFZkeIeb3pMRYp75KJL6SDuir4LISTuQgiJu8Rd4l5pxF3RdyGExF0IkRbi7kzQUyvrt3OhJZWArAhxj54ek37irui7EELiLoSQuEvcJe6VRtwVfRdCSNyFEEnjrbcg7snT8cok65qQWlElIKOLe7IWXUpvcVf0XQghcRdCSNwl7hL3SiPuir4LISTuQog0FPfyBT15sp4ek1ArKj1Giy7ZKQFpbU1xLypKN3FX9F0IIXEXQkjcJe4S90oj7oq+CyEk7kKIChD3W0t5KgQ9EVlPp/QYTUiVuCv6LoSQuAshJO4Sd4l7JRZ3Rd+FEBJ3IYRNcR88OH4dL1/Kky3o6SjrqUiPMduqlB5T0SUgK7u4K/ouhJC4CyEk7hJ3iXulEXdF34UQEnchRFTefBPiHkvBUy/lTss7plLWq0N6TEVOSE1dCciqJO6KvgshJO5CCIm7xF3iXmnEXdF3IYTEXQgRIe6pFfHUpMFUdllPdnqMJqRGivsDD7RvX1RUowbFfdGiyinuir4LISTuQgiJu8Rd4l5J9V3RdyGExF0IiXuap8FUHVmvqukxyRd3++kx1UHcFX0XQkjchZC4S9wl7hJ3Rd+FEBJ3IUR1EffkSfmtBD1Vsl5+qcfUTkJNj/SYcHFPdnpMxUxIrW7irui7EELiLoTEXeIucZe4K/ouhJC4CyHSjzfeGDQouaqdGkGvrLJeVdJj0n9CKtu//hXt/fdXL3FX9F0IIXEXQuIucZe4S9wVfRdCSNyFENVT3BMXdMl6KtNjUjEhNb70GKcTUg1x79QJ4t62bXUVd0XfhRASdyEk7hJ3ibvEXdF3IYTEXQhRNcQ9HilPtaCnm6wrPSbVE1Il7oq+CyEk7kJI3CXuEneJu6LvQgiJuxAiHcQ9UeFON0G3t4hSdZb1ZJV9TLcJqZB1aytxV/RdCCFxF0LiLnGXuEvcFX0XQkjchRCVQdyjy3fFSXn8aTCplvX0moR6u9JjKn6hJYm7ou9CCIm7EBJ3ibvEvRKL+333meJeq9bQoV7vwIHLlpWUzJsHSV24cP/+0tKfftq1S21p6Zw5u3eXlq5Ycfhwaenu3RculJZeu5afX1paUODx6P4ohMRdCJFWvP76wIGp1+v0TIORrFfm9BhrGyviXrPm0KEeT79+S5cWF8+eDVWlvv/4Y0aGWqPlKMTSpQcOlJbu2nXuXGnpsWPXrun+KITEXQghcZe4S9xTKu5/+QuU/cEHO3RwuV59tX//wsImTSZPLijo3XvevNzcPn3mzs3K6t591iy0P/3ENjs7Vmv9zfJbvluibWZmatubN9l26zZzZvS2Z8+ffrp5c9SoZctycn74YePGvDzdIYWQuAshJO5JFHTJutPFlSpv2cdo7cMPd+zodj/8cKdObvfjj3fpkpPz4otdu54//+qrnTsfOvTKK+3b79z50ktt2mRkvPRS69Zo27TZscN4pWz74ov4nVu327dHti+80Lr1zz8bbatW1nbbtsj2+edbtrS2W7eW17ZosWVL+e3mzc7bl19u3XrLlg8/7NEDUXghhMRdCCFxl7hL3FMm7vgdtxvxeLf7wQfbtcvJue++pk3Pnv3DH+rV27Pnjjs++WTt2n/5lw8/XLr0X/7lvfcWLfqXf3n//cWL0eLnDz7Az2b7v/83Xr9V+957CxdGtv/8z++9t2CB0b77rrWdP99oa9WaN4/tb38b3s6dW15bs+acOeW3s2eX3/70E9vf/KZGDXvtH/9Yp878+bpDCiFxF0JI3BOYVJq4oFdVWa9q6THJFXeXC+Lucj30UIcOhYX339+6dWbm3Xc3bnzmzB13fPHFzp3/+39/9NGaNb/97XvvLVkCIV64EO2CBb/97bvv4mez/c1v8Pqt2po158+PbP/X/6pZc948o61Rw9rOnWu077wzZw7bf/qn8Hb27PLat9/+6afy21mzym9nzmT7P//nW2/Za++66/3358zRHVIIibsQQuIucZe4p1Dcw1sz+g6Jz839859btLhw4d57v/lm3767765bd+PG3/++Tp0VK37/+48+WrIE7dKlRlunzrJld92Fn2/V1q69ZElke+edtWsvXmy0H35obRctMtoPPli4kO0dd4S3CxaU177//vz55bfz5pXfzp3L9ne/e+89e+0DD9Stu3ix7pBCSNyFEFVQ3MuKeOJSXrGCXlGLKEnWK1bWjbaw0JzGasbg27fPy/vLX1q0uHjxT39q0ID6vmHD73//8cfLl0PWKe6Q+NjiXru2tbXKurVNB3E3Wom7EBJ3IYTEXeIucU9bcUeLiaqUeJeLk1ZNfUf0vUGDvXvD9f2jjxYvZtwdmg4pl7gLISTuQojbymuvDRyYuFjfHil3KuhVR9bTeXGl5JR9dCLulPXwFu+DnxF9L6vviL5b9d2MtVPKkyfuprJ/+GGkrN9a3D/4AJrONj6Jl7gLIXEXQkjcJe4S90oh7mw7dmQk3igZCX3PzYW+nz/P6Psf/lC37vr1d91Vp87y5dDxxYtNfTclXuIuhJC4CyEqpbgnR8RTL+iS9eqVHmOV9fDWkHtG35n7Tn03kmeg7xs2QN8ZfTcnnpYV97KyHk+qzB13UN/Lk/hki/sdd7z3ntFK3IWQuAshJO4Sd4l7pRB3sy0bfc/JQeWZ8+fvuQdTV//wh88+Kz/6/uGHVHmJuxBC4i6EqBBxHzAg9dpdtQVdsl5Z0mOit4i4W9sHH0T0/c9/bt4c0ff69RF9N/Qd0XdD3CnxscW9rL7Xrm1NlUlM3O1MVC1P4iHl0VqJuxASdyGExF3iLnFPe3FH+9BDpsQ/9BD1HauuQt8Rfa9ff88eQ98/+gj6Du1m3N2Ucom7EELiLoSopOLuVMSTIeiVRdbTodRjqiahpl96TDRxh7IXFbFlHrwZfcfU1XB9N6alGgkwscXdTJKBplvbaOKenLSZ8PQYey3EfckS3SGFkLgLISTuEve4xR1C7PFALpGHjRavSNyTL+5GW1BAcS8bfT93jtH3u+/+7LN16xh9NyPo1si6xF0IIXEXQiSRV1+FuKdKr6uWoN/eKDvFGksIGS10OT5ljy7rt38SqrWt6PSY8tuCAii7EYPH7yP6bibPoPKMEX2/805E38Onn8Yj7nYk/tZpM9EkXuIuhMRdCCFxl7inWNwh02zd7mef7d3b7X7zzUGDPB6Mk3g82BK3+8EHEX1nRRSJe7LFnW2HDoi+d+yI3He0ZaPve/f+/veffrpuHQQ9WvRd4i6EkLgLISqZuJcv4vFJeUUK+u2deApZdLuhtm53rVpDh3o87drNmuXztW07c6bP9/bb333n8Tz4YIcObvcDD6Ct+FKPt2sSaurSY8prIe74GWkzZvvAA9D3++9v1uzChXvuqVdvzx5D3xl9N2QdEo+foePWNl5xty/x4dNS7cu6xF0IibsQQuIucU9Q3P/yl/btDX3/4otx47zeqVM3bw4EZs/OyAgE2raFxL/wQt++0Hf8zgMPxI6+S9ydiDtadJP4OuLuaB94oG3b3Fzo+7lzf/xjpL5DwY0o+wcfUM0l7kIIibsQwpG431qpnbfpK+UVmwZjt2LM/fe3bYv0DETTGzacPNnnW7360KFg8Nixq1eLi+fP3707GGzadPp0n+/55/v08Xgo7uHR94ot9Xh7JqE6S4+5laxHijuUHfnuRvQd+h49+s6aMxR3SnlscU+OxJupMr/7XXgLNb+10EvchZC4CyEk7hL3OMT9vvsg7kyGadRoyhSfb/Pm48dDofx8t7u09NSpGzeKi6dN27o1EGjYcMoUr5f6bk2eYbSesv7ooxL3ZIl79Og79Z3R9927oe9r13KKqinWdpRd4i6EkLgLISLEvX9/iHt8Su28vV1SnmpBT+4iSlZx/+abSZO8Xoq73x8IlJa6XD5faen+/RcvhkLU9yZNpk0zo+/UdyTbpFOpx8QnoaY+PcaurIe3eB8z+o7cd1PfEX3ftQv6vmaNNevdbtpMohJfVtbttKbQo33ggc8/l7gLIXEXQkjcJe4JiHv9+hMner3r1x85Egp5PH5/aWkwGAqVlt68WVBQXLxv34UL0PctWxB9nzwZ0XdUoTGj7y4X66JI3JMt7uHRd6TQdOhAfc/Ohr6fOYPou1XfGX2naqcm+i5xF0JI3IWogrzyCsQ9HTS68gq63Vrs8ax+ahV3xs7r1TPFHbH2khKKe2Ghx1NSAn0vKdm///x5Q9+bNJk61dB3ijui77dD1qteesytou8dOhgt9f2++5g8U7++oe9QcOp7MqPv77/PJJnExD28lbgLIXEXQkjcJe5JEPfCQq+3pMTrRcJMXp7bXVLC9ubN/HxE3w199/sRffd4rPr+l7+gZWa2xD3Z4s62ffv8fMbd2f7lL4a+G9H3u+5i9N3Qd2v0nVIucRdCSNyFEFVY3G+foCdH1iMLOP7pT7cW95ycoiJD3AsKGH3Pz7dG3/1+M/puiDsKTVY3WU9Neky4rKPFyAZaI+4eqe+cusro+9q1ZaPvdsS9rMRbU2UMcbfTStyFkLgLISTuEvcKE/esrMLCkhK2dqLvzz0XK/r+yCMS92SJu9kaWe/lRd937y4bfWeeuhlTl7gLISTuQohKK+4VKejJnWxqR9adiLuz6PutFlRKdanH2724UiLiTik3lD2auDP6TnG/dfQdme7WBJjY4n7r0pB2JT68hbgvXao7pBASdyGExF3inhJxTzT6DnGnvkNbJe7JF/dkRN8l7kIIibsQEvfbLu63S8QrMg3GvqxbVzz905/atGE1GIj7hAnxiHv80fd27Yy2KpZ6rOj0mOhtePS9sLD86Dsrz1ij7+VXnoleGvLWizTFEn2JuxASdyGExF3iXkHibi/6vnkzou+TJiH63quX2824+5//3L49tVLinnxxtxd9j1V5xhqDl7gLISTuQkjcK7l8p4OgJybr1jZZ4n6r6Dv0vUmTKVO8Xug7xL1du6IitpqE6jw9xmn0vWzlmfffLyvxzlu+p9EuWPDggxJ3ISTuQgiJu8S9wsU93uj7s89C3xF9h74b0XdD0JEBL3FPjrgnlvtu1Gs3a7dL3IUQEnchqgEvv9y/f+XU7sos6LFkPVLcmb5CcV+37siRYNCJuNvLfZ8yhckzt4q+3y5Zr7zpMXaj79Eqz1DfFy++807rokvWFVgTi8SHi/vChRD3Zct0hxRC4i6EkLhL3G+buCc3+i5xT0VbXvS9aVMj9/33v//kE+o702bmzy8r4hJ3IYTEXQiJe6WS8nQTdHuyjiWQzHVM7723TRuoW6rE3W70vbzc98RKPUrWE899z8pC9P3sWej7zp133fXJJ6tXlzdF1XjFThtd5R988IsvJO5CSNyFEBJ3iXuaiLv96Ps335jRd4r7/fe3bYuoMGLwEvfURt8h8e3bQ9/btIG+N216+vTdd3/9tanvtWuzcGRkvrvEXQghcRdC4p42Up5aQU9dGkw0Wbe2FSnu0aPvFy6EQlOnIvreuDHqvlPfKe5sb0+px8o5CTWR6HtBAX4uKMCZUFDw5z9D3//0p6ZNz569+24WjkTyTFl9RxvPqqtG+7vfoX3gAYm7EBJ3IYTEXeKeluIePfpeUGBE36nvjL4/8wyj79R3xOCt0fe//U3inswWC2Pl5VHc0RYWQt+zs6HvZ84g+m7qu7FsE3LfP/zQ/qqrEnchJO5CiGou7vHLtz0RT7aUV4SgG22koEdrb5e4h0ff8Vk3bpjR9ylTkDxjRN979owWfa+4Uo9VLT3GaCHrbE1xh8RD3Jk8Ex59N/Qddd8Zfae4G6uu2kuSkbgLIXEXQkjcJe6VRtydRt8NrZS4J1vczdbIeg/X97LR99q1rauu2msl7kJI3IUQacpLL0Hcnel1skU8vaQ8VWkwlUXcy4u+FxREi74z7l5YiLagQJNQkyvr4a0RfTcy4GNF36HvRvS9vMozkPXwFuK+fLnukEJI3IUQEneJe6UR90Si74y7FxTcdx+i74wKS9yTLe72ou9YdbW8qavhlWck7kJI3IUQlULc+/WDuMev1LdPvqueoJfXdu4McW/dGuLerh3Effz42y3udqPvbjf0vbDwvvsQfWebrrKeXpNQExN3c9Jq+dF3o+67Vd+NlJjf/Q7R98j2gQe+/FLiLoTEXQghcZe4V1Jxtx99b9Bg0iToO5Nn2rSBvqPFdzEE/a9/lbgnS9xjR9+bNLHWfTcqz0DcFyyIpu8SdyEk7kKItBT326fXlUPKUyvoZWWd7d/+hvaeeyDuWPDI5fr66/QS9+jRd+j7lCnQ92+/nTIF+t6jhyHubG+/rFf+9Jh4ou+tW2dmQt/Dc99/9ztE3w1xZ5IMhR4txH3FCt0hhZC4CyHSiMcf79bN7UYyg8tVWdo//SlZbZs28bZFRWyZfZ7sFprOlsr+m980blxYeMcdzZoVFX388ahRXu/q1YcOGeLu8wWDt0/cY626WlJiRN+RPNOgwcSJZaPvSJ6xRt8l7skT9/DoOyQe8w1MfTdy3++804i+L1kSqe8SdyEk7kKItAM65fFAYtzuimyxHuTtb9u3j9a6XGw5MbRiWkbWre3vfgdl/8MfWrZ0uT77bPRor3fNmsOH0yPiHnvVVaPuO6Pv0Pdo0ffEZL16TkKNp23bNjfXfIVLOOXnQ9+zsu69F9H3P/whsvKMWWfmwQeVKiOExF0IkWY0b/7DDz5f/foTJ3q9FdnWq1eRLeqxpFOLpJfIlskw1hZRdo+nbt0xY7zefv0WL/b7d+w4cyYUys+HHLtcPl96iHu80fenn0b0neKO0Q/EgxEVpqwjBi9xT464W1tD3wsK7r8f0Xfoe9nKM4i+c+rqgw+qjrsQEnchRJqxefPx46HQ+vVHjqi1tsEgW+aU366WiTFr1qDdseP06VDo/PnMzOJiRrhzc12udFL26NF3a+67GX1/+ukePZh6VFDAtqrL+u0WdyP6jm5Sfj703Yi+W3Pf77wT+g5xV8RdCIm7ECKtKCry+UpKmHqhNt3aoiKzZZSdWpxush5v9J36jrEXjwfRd8TdTX3HCqyGoD/8sMQ9WeKOFvsWraHvkdF36PvHH69Z89BDX321dq3ukEJI3IUQaYTPhzxpZkurTbfWenSQGBMeZc/MRCQ7ncU9WvTdqu+NGiH6/tRTyH039L116/x8lXpMtqyHi3teHvWdMXgz+g59/+qrnTv/+tdGjTIydIcUQuIuhEgjsrMrUwRXbeVtbx19Z/IM9B3iHhl9l7gnT9zNNjx5plWrGzfuvffbb0+deuSRli1PnNAdUgiJuxBC4q622rXW6HthIaLvWLbJ1PdNmxB9nzwZ0ffu3anvRvRdsp5cWS8v+t62LfS9TZucnPvvb9nyxo0nnujY8cYN3SGFkLgLISTuahV9Lzf6Dn2vX3/CBDN5BuKOOvfIxkb0nYIeKwYvcY9P3NlC2Y0Wrzz5ZLdueXm6QwohcRdCSNzVKvpeJvpeVt+t0XcsSlVQgDZa9D29ZL0yiztfycuDuOfn6w4phMRdCCFxV6u2nOg7l22ivk+eDH1H5Xsj+k5xLz/6LnFPZsQd7ZNPdu2am6s7pBASdyGExF2t2ltE3/fuNaPvDRsi+v7kk+HRd5V6TLasS9yFkLgLISTuatUmLfr+5JNG9N1Inrn//jZtJO4SdyGExF0IibtatWkXfXe5EH03xP3ee1u1gihXR1mPX9xjybpRVQbtE09I3IWQuAshJO5q1TqIvkPffT5E3636npd3zz2tWuXn33cfou+U6YqNwUvchRASdyGExF2tou9lKs8Eg9T3hg0nTTL0neKOtuKi75VF1iXuQkjchRASd7Vqb2Pdd0PfrdH3e+6pyOi7xF0IIXEXQkjc1aq9ZfS9uNiaPFNR0XdT1qvGJFSrrFtbibsQEnchhMRdrdpKHX2XuAshJO5CCIm7WrWVIPpedWQ9uri3bp2d/cQTXbrk5OgOKYTEXQghcVerNoXR96lTN2829P3553v3LiykdkOO8/P//Ge0EneJuxASdyGExF2t2tscfd+/H9H3adOg702aTJ3qcj33XK9eBQX33de2Leq+I4WmepZ6jJ0eI3EXQuIuhJC4q1WbkjYz0/yZ4l5U5PPhlYKCkpIdO06fDga/+275cq/37bcHDcJ6q8h0v/vuli0l7hJ3ISTuQgiJu1q1VULcq3Kpx2iybm0l7kJI3IUQEne1aitFqozEXeIuhMRdCCFxV6s2TSenplrW06XUYzRZl7gLIXEXQkjc1aqtFOUgJe4SdyEk7kIIibtatWm6AFPVlHWJuxBC4i6ExF2tWkXZJe5CCIm7EELirlatouy3T9Yl7kJI3IUQEne1ahVll7gLISTuQgiJu1pF2atmlL0iJqFK3IWQuAshJO5q1SrKLnEXQkjchRASd7WKsleGKHt6lnqM3d53X6tWWVmPP965c3a27pBCSNyFEBJ3tWqrRZRd4i6EkLgLISTuahVlV5Q9ybJubSXuQkjchRASd7VqFWWXuAshJO5CCIm7WkXZq6Ksp0Lc77vP2krchZC4CyEk7mrVKsoucRdCSNyFEBJ3tdUrym4IumQ9FbIucRdC4i6ESGt8vkCgtNTrVZuOrfXouFw+X2lpbq7LZahwZmZBQfWKspdVdom7xF0IIXEXohpRVOTzQaq83urTlpZWlraoyGwLCiC+VGFF2SXryZqEKnEXQuIuhKg0bNp07FgwuG7d4cOVp127trq0q1YdPBgIrF596FAgkJFx+nQweP58ZmZxMfXdGn1XlF3iLnEXQkjchajiNG48darH8+WX48a53dWldbkSbceOTbT94otE2tq1R4xwuT75ZNQol6tPn4ULvV7oeyiUn+/xGMkzVTvKnnpBl6xL3IWQuAshKgmPP961a1ERtKmwMBXtn/6U+ragIL42Pz/RtnXr8tp7701eW1BgbX/728aN8/PvuKNZs/z8jz+GviP6HgwykYa571U7yi5xl7gLISTuQoj/n7/9rVOnwsK7727ZsqAgFe0f/pD6Nj8/GW2LFom2v/99qtr/8T8aNszL++d/btw4Lw/R96IiJs9Q3H2+YDA9xD3+KDs6Koqyp5usG23LlpmZjz/eqVNWlu6QQkjchRBpxHPP9epVVPTwwx07Fhamon3oodS3BQXJaDt0SLR98MFUtdR3xuOZPIPcd0Pcb2/EXVF2ibsQQuIuhKhQnn0W4l4Rep0q4U6+iFeMlJffIvbMFjr7+983b56Xd++9kN0vvhgzJp3EPb4oO5TdiLIbgq4oe7Jl3W6px2iyzvZPf0L72GMSdyEk7kIIibvEPU5xZ5Q6HcTdXpR98uTIKPvtrxIjcZe4CyFxF0JUAXGvCI2uaOFORymPLuiRLTX3rrtMcf/8c1PcWdm94sXdeZT9dmh6LFmPX9CrsqxbW4m7EBJ3IYTEXeIet7j/8Y+3U9wTibIbRR5vd/66xF3iLoSQuAtRpcS9Z0+Ie8XpctUU8fil3E6bDuJuN8puTDxle/ui7KlIg6lKsm62kbIucRdC4i6EkLhL3CuZuJcfZaeyR4+y//GPLVtWzfx1ibsQQuIuhKjG4p4ukp24lCdT0NNN3BOLsmM5KkXZK7OsS9yFkLgLISTuEvdKIO6xouyGspetyx4eZU+3/HWJu8RdCCFxF6JK8cwzEPfKqtEVm+KSXClPN3GPHmXfuNHrrVdv/Piioief7NaNUfbc3Mgou2S9ssu60bZocfPmY4917JiZqTukEBJ3IYTEXeKeFuIeq2KMGWWfONFQdsbX0ebmKsoucRdCSNyFEBL3SpnWUhnFvbwo+7lzRpS9fv2yUXaKO6LsFSfutxZ0yXq8pR6jybq1lbgLIXEXQkjcJe63WdxvFWWHskeLsqdnZF3iLnEXQkjchZC4VzL5Tn8RTwdxLxtlh7KbUXbmsj/xBJU9PMpeXdNgqq6sly/u996L9tFHJe5CSNyFEBJ3iXuFi3tklP3GjfKj7Iayp3uUXeIucRdCSNyFqJbiHkuR7be3lul426oh3+kg7tYoO5V9715E2SdPvr1R9sqYBlOVZd3aStyFkLgLISTuEvcKEvdoUfa9exFlp7J/883tjbJL3CXuQgiJuxDCNk8/3aNHQYEUuSqIe3GxtYWyG601yj5pEpT9669vHWVPTd2YVAu6ZD1xWZe4CyFxF0JI3NVWkLgjym7IOqLsVPZQqHJF2SXuEnchhMRdCCFxr+TiXlRkintJCcQ9PNZeNsoOZT93LhC4HVH29E2DSfVk03BZdyLoFS3rRtu8+Y0bEnchJO5CCIm72iSLe7pG2SXuEnchhMRdCCFxrxYt9Peuu5o1Y1w8N9cQ90OH/H6ruJefy56uUfbblQYjWbcj69ZW4i6ExF0IIXFXm6C4161rirvb7fOVlASDxcWsGFN5ouwSd4m7EELiLoSQuFcyKY/dUoXvvBPifvfdZcWdsXaK++2Islf2NJj0lfX4BT2Zsi5xF0LiLoSQuKtNgrh/8cXYsUVFGzcePRoI+P2hUEmJy+Xz3Z667BJ3ibsQQuIuhJC4Vxspt9Naxf2rrxBHp7jn52NZpZMnr11LbV32ihT0ypIGk6ySjuko62zvuQftI49I3IWQuAshJO4Sd9vqzBx3Q9zHjSsqWrly/36//+jRy5eDwTlzMjJ8vlRG2SXuEnchhMRdCCFxr/ZSbqf9wx9atMjNvecelIP8+OORIwsLJ05cv97rnTlz2zavt0WLadNcrmRE2auSoKezrDuZbFoRsm5tJe5CSNyFEBJ3iXscLZQ9N/dPf2rTJi/vjTf69y8ogKwXFTVvPnVqUdErr/TtW1CQjCi7xF3iLnEXQuIuhJC4V3IRT52U22nvv79t27w8aG5e3qOPdu6cn//CC7175+c/91zPnvn5Dz7Yvj2V3W6U/XYJevWdbJqsko4VI+tG26zZ9euPPNKhw82bukMKIXEXQkjcJe4JSjyj72z5SmWIrEvcJe5CCIm7EELiHqd8p4+I22mt2wkxZfKM0fKV8qLsEvTbOdm08sq6tZW4CyFxF0JI3CXuFdBK3CXuEnchhMRdCIl7BYp19RPu5Et5Ogu6ZD3dZF3iLoTEXQghcZe4S9wl7hJ3IYTEXQjhVNy7d0+GXldvmZagp6Ogp99k03SXdbZ//CPav/9d4i6ExF0IIXFXK3GXuEvchRASdyFEvDz1FMRdoly9pbwqCXq6pcHcLlm/taBHyrrRNm167drf/96+/Y0bukMKIXEXQkjcJe4Sd4m7xF0IIXEXQkjcK6eUV11BryxpMOkw2fR2yrq1lbgLIXEXQkjcJe4Sd4m7xF0IIXEXQkjc01XEK1bKq6qgKw0mtbIucRdC4i6EkLhL3CXuEneJuxBC4i6EkLjfDvmuSlJePQRdsn5rWZe4CyFxF0JI3CXuEneJu8RdCCFxF0JUZXGvOOFODxGvXoKe3hNM02GyqRNZtyvoEnchJO5CCIm7xF3iLnGXuAshJO5CiGSKe7du6aHIVV2+K07Kq5+gS9aTI+sSdyEk7kIIibvEXeIucZe4CyEk7kKIqiXu6S3Zt1/E01nKq9IE06o32VTiLoTEXQghcZe4S9wl7hJ3IYTEXQiRep58EuJe+XW5Koi4MymXoFftNJiKkHWJuxASdyGExF3iLnGXuEvchRASdyGExL0yiHhllPKKFfTKnQZTNWRd4i6ExF0IIXGXuEvcJe4SdyGExF0IUZXF/fZLtqS8Mgh65U6DSV1JR4m7EELiLkSV4rHHunaVuEvcJe4S9/D2r39t2/b6dd0hhZC4CyHSiMcf79KlcipyZRDx2y/lEnSlwSTW/u1v7dpJ3IWQuAsh0opnn+3RIy/vgQfatpWmS9wl7hL3a9fuvbdZs2vXnniiUyelygghcRdCpBW1an33XX7+k0927Vp14+7Jk+/0EvH0kPLbI+iVMw0m3aPs1uz2t97q1y8zU3dIISTuQog0onHjyZMLC2vUGDw4P/+hh9q3l7hL3CXu1VXc77uvRYtr1954o2/fzMxvvhk3LidHd0ghJO5CiDRi2LDly93u5s2nTSsqevrp7t1vR9w9NWJduUU8ndNdqpKgV5/Jpnbaxx7r0OHGjcaNJ07MzR08eMmSwkLdIYWQuAsh0ohly/bt8/tHjFi50uN5/fV+/VBhRuIucZe4V0dxf+mlHj1u3hw6dOnSwsIlS3bv9nh0hxRC4i6ESCNOnLh2LRSivn/66ahRBQXpodFVTbjtiXhVTXepDoJeOfLXY7cffTR0aHY2lf348StXAgHdIYWQuAsh0oj8fLe7pOTw4UuXgsFevebPd7leeKF3b1Z2l7hL3CXuVV3csf3Xrj3zTJcuN2927z57dn7+wYMXLgQCuDMUF+sOKYTEXQiRRhQX4+Gcm+tylZSsXn3woN/frt3MmUVFzz3Xs2deXtWQ4+o9YVSCrjSYWO2TT3bufONG69bTpuXlrVy5f7/Xm5NTVFRcHApJ24WQuAsh0hI+pK9cyckpLl68eM8en4/VZjhdVQoucZe4Vz1xf/zxjh1v3GD1mIULd+70eC5fzs4OhaTsQkjchRCVgGAwFCotvXgRD+/Zs7dv93qbNp0ypbDwqae6dlXcPd1FvCKlPNWCrjSY1LaPPorqMd9+O2FCbu6sWdu2ud0XL2ZlBYO8AwghJO5CiEpDIICH95kzN26EQnPmZGR4vY0bT5pUWPj88z17slikxF3iLnGvbC1z2Z9+GrnsjLL/9BOU/cyZ69eDQVz1JSW6+wkhcRdCVEr8/mCwpARxuFBo0aLdu32+jh1nzSoqeuWVPn0qc/JM+k0GTbeyjBL0qhNZt7bPP9+9+82bbdv+8ENe3oIFO3Z4PBcuZGYGg7zSdccTQuIuhKj0FBfjkc7c91WrDhzw+1l5BoUj8/PfemvAgLy8p5/u1i0398EH27WTuEvcJe7psfop89dfe61378xMFnlkxZgVK/bt83qZy86rWwghcRdCVDF9x2S17OzCwuLiQ4cuXgwGly3bu9fnGzly1Sqsujp1amFhjRqDBuXlPfZY587Jy4aPLtmVUbgrt5RXJUGvepVh2P71r23bXr/+xht9+2ZmcvXT4cOXLzeWUmKRR17Fmn4qhMRdCFHF4cS1vDzUfT9x4urVYHD58n37fL4hQ5Ytc7u//RZ58DVrDh6cl/fMM6hF88QTXbrk5DhpH3/cTtu5c3Z2VWk7dcrKimwfeyzVbceOmZn220cfrbj2kUeitR063LzpvP3739u3v3GjsrdPPNGp040bb73Vr19mZoMGyF8fNGjx4sLCpUv37DGWUsrLc7mKizX9VAiJuxBCCCGEEELiLoQQQgghhJC4CyGEEEIIIXEXQgghhBBCSNyFEEIIIYQQEnchhBBCCCEk7kIIIYQQQgiJuxBCCCGEEELiLoQQQgghhMRdCCGEEEIIIXEXQgghhBBC4i6EEEIIIYSQuAshhBBCCCEk7kIIIYQQQkjchRBCCCGEEBJ3IYQQQgghhMRdCCGEEEIIibsQQgghhBBC4i6EEEIIIYTEXQghhBBCCCFxF0IIIYQQQkjchRBCCCGEkLgLIYQQQgghJO5CCCGEEEIIibsQQgghhBASdyGEEEIIIYTEXQghhBBCCCFxF0IIIYQQQuKexoSiELQQ+Urkv0b7K/t/6/w3o/2OnW9n5z2DMQklRLRPSWyfxP528e6Z2PvB/v60f3bFe3zj/S7xfl87ryTruMfeZifHxcmnJHbGpuJbx3tW2P/ceL9LvHePoA3i/UT7Z2Zin+v87HJy1Sf2PLK/H5yf7cm9Upw8ieycM/bvYImdRXbuSIk9v+K9QlPxjE7szp+sbxrvd5G4V1NxL/4V+xdJ5F85URz7N9zELpjI7eQrTh5Udj4lsX2YrFtMYnvMvlIk69aWOqVwov6JfYr9vVFsId4tj3bd2f+Ozs92J/eQaFvi5ApK3Xdx0j2L99y2fpfEZDex+0O075uK+4PzJ4id97SvqtHOWzvngP27rvV6d35cnJzJsY91Rd4xkkWyrKPin8LJui9J3KsFsW8HyRV3+7e/eB9dTi5d5+Ju/4aY/uJuR7mi/Y7E3f53Sa4epZu4x/s+8QpT7LM0fZQiWed2RYp7cs+QqifusUM/9vdqvOKeOtVLN3GP1rGRuEvcJe5hEffEhmycXEjxDo47GeiPd2gvWYNrzm8oqR6qS1bsPN59mNyB78QGcONNnklumoHz8y2xodhkffdkJVPZ34bENNfJHcn5vkrsXpfYFZSKczu59+d4j2C8n5vYE8f53Syx/Z/YEy1ZSSyJ3ZecpAYlN8nNyTYn6y5h/zxJ1r3Fzh6QuFfrHPfkPiYT+xTnUclkDXNHi7ikOo6bWNqPk7hmsvZYcmNyTkQ5WkQt3nPM+fe1f25Hvo+TKFSyjl0quhbxJg/EmwZg58pNViJExeTRRvvcyG+X2Lhf+qQ9JHev2n8ldvqZk/t/6iK78d4P431GVOS4Vux7nfMExXjHZJwEtuLNaHByZirirhz3YvsXVWLyWhxBtN+PvT0lJfi30tKSEvY1eeJa2+Li2K/wHRIT93gfw/EmCyWX2OLiXAqT1Y2J/cCwc87Efs9o5160Y+0kEzTebO9UjPbYH6aP9zyMtiejPQ5jp744F/d4j11iW2JnnKE4CrHPjcTuGImdafaPdWJ3htR1Mp10t+zrkZ39meoc9FR0uhLb5sSSuJycOYk9lRIbYUisG5O6EgXROuESd4l73BF3+xGs5EbarP9uaLpVvktK+PuhkNfr94dCRUUeTyhUUOB2h0J5eS5XMJif73YHg3zF5fJ68Zs+n/FXfAfz3fCJ+Dc7t7l4Hx7292Hk/ok35hf7cxP7FPtiFO8ZYj/S4ETy7D+07H+KcS5aKSkJb41zLfG4UXKz/51Mj3NyXJxnryY3nh17fCPVYpTYfBIno0apGJuK9+ngZLTT/kiUE7VKbLK4nT3m5Hxwvg/jPdvt3x/s3zGcj5nbn2MQ+y5k537oPLCS2B5zcoZI3Kv15FQnxZjiHfyyG1mHIOG/VG38FAxSzY8fv3o1GNyy5cSJQGDJkr17/f5ZszIy/P5p07Zu9fmmTdu2zefjK/jXQGDLluPHA4GTJ/FX+fl4B+wJQ+KtF0di38V5zNX5YHqy0ktSF7dz/imJPRjsj5/Y2TZD0COVvbi4pITnUyrk27kGJdbVrBhhTSxCaWc7nTyeExvEjy21yd0nFTNi4+QulFgKk5NaZ6l4z+RGYeM9+k7qUDm/CyW3e2anI5FYVr2d0dRkRdyTFWpxHs6QuKuOe5IrWMd7ozQ03YhpFhdDskOhAwcuXAgEFi/eu9fnGzdu/Xqfr2/fpUt9vvbt58zxehs3nj7d4/n668mTvd7PP58wweOpWxctX/n22+nTvV7+Zt++S5b4fOPHb9zo8y1btn+/33/kyKVLgUBhISL01nSashd4eQOp9mNm8U5dcvI7qZhIlNgEqWSJkZPHgx2FivZZ1t8s+RWPJxDwenfuvHHj0KGFC8+eXb9+6dKzZzdtWrbs3LlNm9avv3Rpx44TJ3Jyzp3z+QIBny/ag9b5Y9X+cHZyFTxZZ7V9DYq3S+B8cqSTmQnOR3gS22OJhV0SS5xIrD66neMVryA6mbBr/ZTIp2SJhdgJTskVdyffOrGng53vEm8Ixn5apv2EkHj3Q7zpavZdKN7p3fHeye2HlqKdvRL3KivuiT02kj/Vz1BkbBnFPRSCRhcXHzt29WogsHDhnj1eb8+eixZ5vR9/PGaM2/3aa4MHu92vvvrddx7Pa68NHYpXhgxh6/HgdfwrfuYrr72GV/jzyy8PHszX3e7PPpswwe2Gyns8K1ceOOD3nz+fmRkM+v2BQHh+PLcwdnpJsgaCk5XUkdwUhcQKtDlPv0lsODW5U6asUY28PK+3sLBfv717J0x4443lyxs1evfdVatatvzww9WrW7Vq3HjLlj595s49c2b16sJCn8/lsp+clqzc2dQN6yd2PkTuw1uNBzrt/KduWD9155iTkUknCQnxfq79iYx20n6cFxiINxHIHBsLF/TAr/gsmEkI4b+fWLppKpJnEkvpdF7mwX73OPaVHtkpsh81t3PlJjbhOLmTxRMbRYk3PVXiXo1SZexM7YrdZ423Dx1t8paZxR4KZWUVFIRCK1bs3x8IdOgwb57H88EHY8a4XG+/PXy4IesvvTRokMfz4ouDBrndFPFXXsHr/Ff8bIg7X8fv4Dfx+/wrttT3GjVGjHC7P/984kSPp39/RPEzMk6f9vtdLo/HuBStk1nt1Jm23+OPV9OdTOJJbvzPScfA+fljZ88k67tYoxq5uV5vQUHLltu3Dxx4331z59as+be/LVhQu/ajjy5cWKfOu++uXt28+aRJx44tWFBQ4PUWFcV+zDvfTvv70P7+sXN/sL/PY3cvKUypk2An+yHeK9HOfnB+/cb+LokdTed3HufXcuqOe3lbjvPN5XL/wo1fuHnz5MlTp06fPvgLhw8fOnT48JEjZ86c/YWbNzMzb97kb1pH3mJLp5Pnpv2jkJjs2j/Wzu/nfIXXOPchO0Xx7gfn3y7VgYx4r3r722zn3Ja4V+tUmVSXDiz7WWZUGz+fOIHs8wkTNmzw+5nc8vrriKY/88yAAS7Xiy8yyg7VfvllqPlzzw0YgLZ/f5cLUu5y1agxcqTbXbv26NFu90cfjRnj8UDKqfguF37f5XrhhYED3e5XXjHf7aWX8PMLL0Dla9aExLdqNXOmxzN37o4dfv/Fi1lZoRDUIrwWTXJLiTnJzLNTGC5ZJQudDAE7KXroJI85WRMNreLeokVGxsCB9947d+477zz88IIFH3zw978vXFi7dq1aq1c3awZxnz+/oMDnu5W4O4m4J5Z1naxIv33JoOLwEyhDS5YsXbp8+Zw58+YtWDB37vz5Cxfi/1euPHgQypSfX/AL/Kt4z0MnauskkSl9xsoS6+ona1wrseKbyRrniZ1IwHPx4sVLly5fXv8Lmzb98MOPP/700/jxEyZMnjxy5Pffjx07ZMiwYaNGDR06YsT3vzBmDP9t6tTZs+fOXbAgI2PHjp07b96EzPP8jJwz5kT+nOxDJyMwyT1S1i7N9V+4cWPz5i1btm378cdZs2bPxp6cP3/v3n379u8v/BXrXSKxZ6j9TqmTVQuStZpKcleuVcRd4l6hNb/N7QgGjxy5fDkYHDp05Uqf78MPR40yElqs6S6Qb4/n9deh2nXqjB3r8TRp8sMPHk+XLojKDxy4fLnHM3r0+vVe75QpW7Z4vVOnbtni9+MVv79fP/xrp07z53u9+Cuvt3ZtaD0j8VB2l4spN5T4p5/u08ftbt36xx+9XubW+/1mLZrEHtXJEvf0X8k11eJekeuSRhP3Vq127Bg8+P77582rVQvK/tFHjz22aNHHH7///po1LVpMmXL8OCLu8Yl76joqzt/T/oMqUtlJXl7+L6xYsXLl6tWtW7dr16lTw4aNGzdr9u23zZq1bNm6dfv2nTpNnDh58rRpUPtz56yD6Ykdu1R8u1SPayVW/8eJyjiJStqfjVAx4h55H+P5k/8r+3/h4EHo45w53br16NGnT4MGjRo1bfrll/XqNWz41Vf163/7LdpGjfjz1183aMC2ceOmTVu0aNNm4MDvvhs6dMGCRYuWLDnyC8eOeX4lchw7sUSvyi7u1m6S+1c2bNi4cfPmnj179+7f/5tvcK3zemeniOMb3l9JzExSIe7x3lHjLQGSXHFXVZlqLe5OHjbxDpIaVVzQKz9x4tq1YBDTTL3emjWHD4dAM9GFqS+muL/7LoS+adMZM7zeMWOg49u2oUrM5cvZ2Sz7iKFPlH3EcJzRejxoWRSS+eubNh07FgiMGLFmjc/31VeTJ7vdb745bJjLxcx4qnzNmsOGud1DhqxY4fWeP3/zZiDA7xA7YSa5qQhO9n/sLUksBuk8wcBJSoaT1AjnaTblpcpkZAwaBHGvWfORRxYtqlPnsccWL/7kk/feg7hPnlw2VSbe8yHeBJjE4q+JpUPYP+7W737s2PHjJ06MG4cIZpMm0KD69Rs2bNKkUSP8H9suXbp169Ur4xd27rRGNJObPJDY8HRiSUSpToBJVrpdYiS2PU5Sd+zsPeuZw+4i5BFzT/r1GzQI2timDc83QyWbNm3Zkq83b96qVbt2LVqgI4lX2rblv37zTePGzZujo9mqFf916NDhw0eN2rsX3QHqe7TkmeQmyCX3rhjv58beHuuez8zM+oXJk6dMmT6dVzq6R02bcp937NilS/fuCxeiC5Sbm/cL0ZJ4U5GK6fxbW6U5YMH/K5Hpf06OiHLcJe7lTE51HuewexM3ijnyAj1z5saNUGjo0FWrfL733hs1CpHvgQMh7tB0JMkYcXfUh/F6x47duNHv37nz7Nlg8OrV3NxgkFJunUJqrQlTtjVq1LjdkHskwAQCmzefOOHzDRiwfLnX+/772IZ330WqzLBhK1d6vUePotoMPiUYjLZgk/MJXhVJsuJeiUWM7EcckzsEmay0n9RF3JM7C8K+tqbiPIzMvOTeXrNm3br16zt37t69Vy8KEJWoSZPmzVu35uMccc22bRctWrx42TIoV0GB/WVxUrFecrJ0IbEpsPaPlPNii851x8lYWXKTx3jWUaF+/nn79h07+vYdMGDw4EaNGjdu0YISibZpU8bR+/YdOHDw4IkTp0yZNo3pHDNmzJw5ezY7mT16IFpM0Tf/tkkTnreIwI8YsWvX7t0oRww4SuRk8b5oR8r+3Tux6ZvOJ15b93/2r0yYgFE0jGA0bIjxjWbNMM7WvHn79p07d+s2f/6CBYsX5+Tk/oKd+2SySuvGey1b38FI/MP/s1t47hfOnz9w4NAv7N9/4MDBg5gtceZMdnbOL1DioyX+xVvuQhF3iXtKRC3ag4qnLcQ5GMzOLiwMhX76KSMjEGAmOiabut3MaGeU/dVXoezffDN1qteLWuyBwIULyDWPlHIqtZ1vwhtq2YKPTNQJBFD93e8fP37DBp/v8OGLFwMBY5Emo3588sT9diFxd/L4vL2pMqlWt+RWpzZib2aiAvOJoeeovVO25eOc/zp2LISJEXpGsaz7MNV1SJIl7onVrkmsi5XY0U9unNJ+VZnkinukVFGgOdl07Njx4ydNgna3bIlzrEULnm/oPvbrB0mfNw/jO7t28ffPn79w4eLF8+fxX56BzM9GnvsPP7Rr17Fj167sZLJt2PDbb5s3Hzt23LhJk/gOjMBaRS2xFD4nSU2xxT32Xzm/f/Jq5SjE2rXr1m3Y0KNHr159+2LPt27N8YrRo3GVM9PdOl6RPuIe7XOt4s6zZdmyFStWreIcCc6OwHyIRYuOHz/5C5yMK3GXuCetqoyTYc14B6z5qZziuW7d4cN+f4sWM2d6vW+8MWyYUfvllVeQv86UlXr1Jk3yehcu3LXL72cddyNqbi6WZLbxpZ2YIwDWf+Paq+hUIJaP1VhZUT6yEGSyHn7JqhHhPDHGiTg6mfznfNA83qSOxNIqrJGknByPJz+fqTL33RdL3FEOMjxVJrFkjFTX30hMf+1U4MGgsd9/9OjxXxg2bOTI0aMZ6WQSQteuiGZ26tS1a8+eiL4bMXhIVd++q1atXr12rTWHOLEB7uR2cRO7ypxX80js/pOsFDIn3eN4F6JyEnow0mPAwoWLFy9dyrMLko1uIc4xnHP9+q1cuWrVmjWI9BpJGtZEl8gZGpcvX7ly9Spi8jNmME5frx7SZ6jvTMLZuHHTps2bmdsdO8s5FaNbiaV4xZtKZ+cV63e/+itr1kDgMdF3ypSpUzGugUm+u3ejQ1/eqFoqzsNk3TGs9yJ27caPx2gN7128v333He52u3fv2bN3b7QM/uTW+ZG4V+tykE5kNNrvWEs93riRlxcMDhyI3PFXX2V8HZr+xhtIjHnuOdR7+fjjcePc7jlzUNElMzM/v2w99bJZ5k7z2IyYenhSDbaaN/J4ZTHVWuCkG+AkqzLWljjr8iXWObl19Kj87YpPvyIj7oa4m+UgTXGPnuPu7BFStpuZ3K5dss6lyIc3s1cZkYKm9+nDCX9t2mCoHNHOBQuQlvDTT5yuyocf24kTJ02aMgXD7Tk59h97yeqWOO9aOznb7Z8nqc7lTUyqElNMJ1tivUJZ9WXMmHHjJk5kfJ3JLYz1Iq966dKsLJxZ8Y1RFxezTCRiq+PG8Z3btevQoWtXjBBNmwZN27+fEdbIke1Uz7hI5jMxGdOXrdXxC36FZTeZ+87uTWJFgZPVXU/sPhku7lB3jOpMnMgxQ05uHjRoyJDhw5FAtWcPAg+GuDtPqY0VGJW4V1txdz4VKdpUVEwbxcTQo0f9/kaNsMrps8+imKNV3GvWHDnS4+nXb9kyn+/CBUwkNZJhmKxiaHRq6qEy2sJPscZeEnvIxf9oNxN5rG14fn6s4TYnNwK7ms59wy0xWvyW2Zqy7Dz2b2+vGnMnIvddeFu+Dscv7kaqDCenlhV3O6ky8VR3iTwHyv9mTiYXJnfcxjyPS0svXbryCyNGjBo1dixygtu0obh36tStW8+ee/bs24ehcmSFDh6MRx1UqG1bVvlAVvLQocd/hckPkekHzifmxisE9icgOhHueH/HGht2oilOvktkxNp+OoeTYxfZXbxwAQkMPH8QF2/SBHHxpk05IZLpGdHGn2NPdaVu8h1QxHTRIlRN2bLlxImTJ0+fZk5zZOlVJ52fyONrJ6UkudF6J1dTbA+J/C6JdRqT24238xTgUYa2Hz8+YQJCDEwEYh4/Jy5HRtxTMV1Y4i5xd3RJxOqhhkKXL+OW9t13mPT5/vvff29UjOFiSazl0rLlrFleL6u+WCeepi6tIrHBwcR+Mzx6Wla/+Ggwfh+aEgrhgufPhihHaj1fd5oAE/kQpoiX/1mcYoytCgZxlJDVaYh7pGgaQp+8WjrRlJaJWDhziouR+ISJyPiZD9LypiyHj7SUJ8jWUZdk5biX3/0I73rwfODrSN1CGlfRL7DFK6iTxKNhPX9ixfmcVxmy81DnHuODjeXeunbt3r13b5bVYzQdSjV8OKZ0nT8P2cnNnTdv/vxFixi/pLhDsnr3RkrDqlU5vxItpcHOOW8/ddAqavFiJ5M13oducrfNibgnQxHi63rZfxJZ98zp05gaiHSrAQNwLjVqxIQW1ixCzPzoUTuJo9GOFPWdo0nMN47cw/EKopMjG7teXOzEPzvvE++2JUvc7V8XyU0bjn12WcF5dvo0tH3aNFPcmzYdNgyZ7gxJcKw0+h5IzliZxL0aTU5N1jBNLCEwZOjgwUuXgsH69adN83i41JE1ux3V2V2ukSPXrvV6c3KQZW7G2pNd5cB5hlyiw5HGyIGpVpxo4na7XMEglqrw+0+cOHLE59u7d+dOn2/nzu3b8fOuXYHAqVMnTgSDWVk3b0JNoXF8ZFj3sV2hidWpMJTdiGVD0NF5wGq2bvf588XF+fm7dhUXZ2evXYtVbletKi7Ozd24sbi4sPDQoeJir/f6daqmOZvAfM/4YiflRb+sRTmxB3w+dCBu3kRK1cGDmFK8ZQuKhK5de+RIILBpE34+eBCV+K9fx2PW62Unw9wO5GEbZUO9XrwbZjjgm+CbWycC2RF3O6ky4d+LHSHriAq7bbm52dk4H44d83p//nnzZo9n3bpVq9Ci84tXAoETJ44eDQZzc3NyjL+ynmnxFZR0PnPD+jDOzMSQ+LJlWFaJiTGsjd2xI+rKcNElDprzPTE9cM8eVNfu2/fLLzHczMSGUaNGjx43Dg/Is2ej3cHsXImRhdusJdsi45rW32e8H0vFFBVxsJ+dDcbSWPzN+j7mfrB3tkd+Fn+OVAe+Yv1NDsRzezJ/hdvJhA2+V+RYQbwzLiJLc3IbuQeKfoVVRK79CvZRZiZf55ZYv1HkyqPOu47WPY8pgxcu9OnTv/+gQUxdYOZx27Y4D7GI0q5d8c74KivZ5cmc/adVtHezHl/C45v7Kzd+hUk+7Dzw+Eaew3ae1JFnXeS5Z90//H0ecSS+FBayporrV/i69W8jr7topRKjEW3bIr+v9bP4m9gmt5vnJNNziorwWtl3uNU6uNEmhvJTjh5FsgymP0+ZwipDFHcs4zVyJO5pu3dz/1j/KtoecJLmJHGvphF3JxNPo/0eLwUKEEWqdu1x4zwerIRqFHxk+/nnEyd6PEuWoKSWUX/GED1nWY/Ov0u0f4281KNNhA2Pp7LuwYULZ8+63atXL1tWVIS56AUFPXu2b19Q0KFDkyb5+W3bNmyYn9+q1TffFBS0bduoUUFBx45NmxYU9O3bqZPLNXny6NFe79atGzdC5bGGnzXa6iQRwoyRI2Z9/HgodPXq5Mmh0KlTTZqEQkePvv12KHTo0IsvQpKfeioYPHDgiSfw89NPh0KHD7/ySih0/PhHHxUXX7jQq1dxcU7O6tU4/tnZ4SMG5j6K/QgPHxw2OygQklCIC2PNmLFtm9/fp8/ixV5v27azZ3u9zZph2awmTVDvH1X/PZ62bX/6yePp3XvJEq93wYI9e3y+M2euXw8Gz527eTMYXLXq4MFA4Pvv163z+YYNW73a7x88eOVKv3/OnJ07/f7cXMS3rekf1jru1smpjz9u1nGPnJxaXqqANTmKD6rTp0+ccLvnzZs5s7BwwIDu3fPzcT7k5bVsWa9efn7Tpl98kZfXpMnnn+fnt2hRrx7OFpwVgwb17Ol2L148dy5qL509W7ZyUvx5nImNxVnvMIhrHjtG7WZtbCbJDBiA/E8OIkNJjEFkJDdcujRkyNCho0bh95o14yOQos+pbJFT36IlaUT+K6V29258MuuEbNiAqYQYEcBUeRbyM6thYAj85MnNm7du3baN5SmnTp0+/ccfWaUEg+NTp/70E9Z+xcS79eu55qu1InXsO621e8BuybZt27dnZHCC45Yt+Fys8Hn5svXdmCXMXOrVq1Fgk3VRuD0oX4j/Tp8+Y8aCBQsXLlmC77l9O8rV4Vox6/PYT1EI3+f4PSQ/Xb2Kd/755zlzUD8D8cYffmDxRGaWY3EdlAFEJRbU11i6lBJz/Tryz63KG+84gJ0cd6zVeeMGJ0Mz85hnFM9DHMVZs3i+RRuRiDZRNbJikv1EoNhJODwTsE2XLm3fjhKWS5dibgjmf8yZw+PKfcv9bBxl1EHHtbFnDztL5uhbeeee9bgzjY1/i3Nu69YNvy6WhEoop0+Xneybn793L846dLgXL4aoTp+OrUGddhx9TARevvzML5w7Z71rX7167drVq7ze+Sk8wzHqcfQo10iOfBbwGsRvHD++fj2vVPwt3mXfPp5F5lErLcV1cuUK139AqGD1ahb05NXKPcaqVtxO42zEeRLtrmI9UlzhFZp+/DjvCZs24Qpg9Rh0EIcM4ZRllg1FFZ1+/Th7h3sVV8v27fwm/BmLzJ0/73bjm0YeHeW4S9xtDZs6zy8se4MwxP3mzby8UOjHH3/+2e//8MPRoxFxHzjQiLW/887w4R5P585Y03TnzjNnUISx/CH/eLcqdl5w2Sxytta0g3AdLv9vjd8pb5pm2a0IBnNysrJ8PihDUdGYMd99Bwn74oucnJo1n3suK+v55x98MDub7Usv/fWv2dkvvvjww2yzsp577i9/ycp64YWHH87J+eCDV17Jz2/fvkkTt/vHHydNCgRQPxbxYsS5y2bDR9tfZvfKzFn3eq9exRGbPx+L0zdtGgrt3fu3v4VC27b94z+GQps3/8M/YJ4CWv5sbfF6KLRlyz/8A+Kn//RPodCRI++8g4r5AweGQvn5WFKnuBixbHOyl1XPoz1mrIkjmNwcCq1efehQINC375IlPt9HHxlnlNv9/POYNcGfOarDV557Di1W3nW7v/568mSPh8tvYYVdv799+zlzvN4338RUaa4b8NRTffu63ax6dOUKVgywPg4Ncefk1MTE3VR2xMvz8jyeTZvWrSsqGjKkd++8vK++ev/97OyXX/7733nccT7gTEDLc8A4N3C2ZGW98sojj+TlNWjw0Ucu17hxw4ZxxMZIpyk7GmNvQnn5nVI7esffRhG4TZs6dIB2sxgfRZwTufA4v37dKi6s5UxNadsWf2esWIn6M0uW4HGLkYW8PHMuStmOXfTzp7T0xAnkIfMRjhogAwciFadXLy7ATlFgHBGP1YwMTI2dOrVXrz59Bgxg7J8dj88///rrb75hHJfTE1kbBytBjhuHSiXr1kG4r1yJLQR8nXFKVM9Zt44T2lg4D0kegwYxl5rfg6K5ePGSJcuWMYMW9VJ69KCYfvHF1183bPjFF0gxYlZ3q1Zt2nTo0Ldv//6DB0PxZs2i9LA0Z7SuRTQVYEQff3/gALsreOdBgygrxp756qtvvsH+adiQP/MIYtZCp05IjhoxAulQS5YcPgwFYiTSjr7bHzvlu1EHMfEZyVco4MjMYx6vLl1wvGbOxPqpVMPIfRK5f6JtoZO6K9YaOHv2YMbHrFnYu8zOR9pYly7G8cWRxVH+5hsm/xhHGdcK9y0lntNnKZqR38LaScAI1969LL3K8xzzTvr2ZUcUYyUuF89kntVI/xg9mp+IrcGzC8ea+7ZfvwEDvvsOgr5vn/VzuUAV66707o2K+d279+zZpw/Oofnzr1zB+Exkt5+TWVHlfdEiXqes28MOC67kU6c4koOI94kTP/2E7iuq8WO/mUe8bt2vvmrQgKl3LAaKq6JzZ15rPEP4DhToaGk8HOtgp4UpWMZ3wf/xfsVrgXH31q3btsVWINmPIz/9+2PVXf4+fho2jIuC5ebi3Iu22JzEXeLuqKpMvLURDFnA750+feNGMDhq1Nq1xkJLVKiXXoIkcT3UkSMhUqdOIQ5qrbYe7+daXy8q8nqLi7OyUDM+K6ugANFpJOGwzc5GvnD4K/hN83Vra/6t+T55eRgAwyBwrOg1b5SZmTduuN0LFsycmZ/fpEndupD1Z5/NyXn99ccfR/vYYxQ1U9kNcc/KYsvXX3nl73/nX2Vnv/nmE0/k5Lz33ssvFxR06dK6tc+H9AkkfRi6ZqRMRLvsrcru8Vy8WFx88eLgwaHQnj0PPhgM/vzzv/23weDWrZBytpByq6bzZ0Po+a9oQyH+/rZt//pfB4MZGf/5PweDR49++CFi8OvWYdAVuftGQk70xyEzALkfr13LzQ2FfvgB3T+sd+v1vvWWmWr18stocV4ZEs9zjC1f4fnGmRU1aowY4fF8+SVKjn766fjxXJ3X7X7lFcy1eOKJ3r1dLkbuIe7Wblt4VRmmykSunBpN3I1EKbwSCGRno7rCkiXz5uXmNmz46afZ2Twf3nwT7WuvPfoozoq//Y1nBc4B/Gy8YrxunBWvvfbYYzk57777wgsFBZ06NWvm8WzfjvMBj7fwjmp8Y1Px5T2XlFDyoCBz5/JhyWJ8eOR37MiHpTXWbs0bRsRs504+2KgmlK3RoxHDxQInR45EDuLb0SNkmx46xIco35Pyjajs2LGIeJ87x1gaF9yxVpfnI5nfgIUs+XhmdM2oQI8uBqY/9ujBaB/j6EwUiJaVi+F8t5uJQ6yrw+4NPrF1awo9l3ehfPN3+IncQm4PY8ncTm6Jsefxm/xXaM2wYevWrV+/cSPnDFh1IXIf8l+RdlNUxKgnujtDhvATuQ3mdze2hJ0cLqRlbknz5txXPAeYAWwkEhjVReKZtxD7POT4CWO66FCNH8/1AaxHCh2bjh2R0oAnE74fukYXL6LrhuuWV035SuTkerHubY6fsOwpxQ57qF07HjXuscijbF2wzKglj9/knueCUByxYaqSVUOt4s5xJwqxsbwUzj12zCCzJ09yOSqqMD/F+Fyzggq3kKUeWcne+olbtyK6DK0fPNgsmNikCbvQ7I5G7meW6eQ4AxPn+K05XrdlC7YcndqDB1k93Xo98mfuK+seM85GXrPmHmNFeY4JsLsSqdEYB7l8mdvM7iiLgVqPEa8+Bhq4MrT1/OceY1eHv4lu1rJlTHyKLe52uoUS92oq7vYSP+KJKBhFFQ8dQnb7gAGoFcO6MYxrMib6wQejR7vd06dj8aNr15Cra00gsB/JsFa0QOZYcfHSpfv3BwKI5ft83botWOD19uy5aJHR9uq1eLHfH/7KokU+n/H64sU+X3iL3+nRY+FCo2VyBRZvCo9qWh8igQCy0l2uadPGjcvL+/rrDz6Alj3xBKOnOTmvvvrII+H6juipoWJo+XN2dvhvQtz5OrQ+J+edd559Fqk1DRt6vRs2rF6NtAsjtl12j5k1dCiRUPZQ6Ny5jh1Dod2777yT2s3YuaHjpr7z9fB/Lfs75Yn+9u3/1/+FdJrXX0dXaMkSY0usE17Lnoe8jbEk6KRJmzf7/XXrjh+PQqLQdCzaZYi4daLza6+hfecdrIBbowbON75iTIPm3+IMRC0jtxsdAGPxL8y1MCLuzZsz4o5J1eVF3JkqE6uqTHgddyOXFd8J8SQkt8yZk5dXr94HH/BoGtF0KHtOzhtv8FjjZx7xd9557rnc3HfffemlnJy33nrmGZ4VaKH4PHN4PtSo8eyzBQWdO7do4fNt375lixGVNqdDOYkgRosfU5ioyKgkM2YM414UOyoFk14iHzZ8H8Thr1/H4/qHH6zrLDJyv/IX1qxhhmjkOEbsCVusXoNY34ABfE8+ehnPYyQP6jR0KNWEEkNlQTdixAjWjmDsEDVwRozo0AHVcazrcfKdEYHr0oVjC9THSO0zuiuI8zHqT43gp1MIGFmfNAlbx89CxBUTfCEK7GBQTJm6wJ8ZC4SqtG/PbgATRSjTjPlxqXlWQYl8IhidCkg1VgTdt48xXXYGmC/O7WzZEp/CuD41C2kTM2cyRYoFQKFNRkFGttRQfLfRo3E27N3LfPxok3EjX4k2Ymy9h6Bz6PEwxYJ6SsHiPuFRs64ngBjsqFFUVa63ynEh5iPHHqOINtk02vjP9V/58Ud08HhuWzOkee4xOkzlpTLifJo6lfLKyLc1EYh/y9pNTN7Y8AubN1NGrdtPcWdKVs+eOIuolewqDx+Oziz1HXNOevfmlcIoOz8R5yo6GOiQ46eOHTmbxVq8lVDcOcbFc4ZzXXB1QNwvXLh0KfJuQHHnt+YYFyWYR4pbyKg5rxpuOX/mKrnoSEyezOuCiyJxajL3K/cY9zPPAWal41z5+WfG+63H2hB3XGmM37PTYnahW7emshvibnYkjGOKvVe3LrohPA+NsqQgsgsd+9yOPT4mca/ik1OdFwWLHXGnJOzbd/58IAAt9noNcYc8MQ5Kcccqqn5/VharthviXt6Ukdjizs+luA8Zsnq1z0cJe+EFlp5EPJUtY6toIXyMxZqvUw3DW/M3+W61a48Z43avWYPcfWvyjCGceXm5uW738uULFuTm1q//0UeGVFHQ0TKGakTN27X79tvCwqFD+/Z1uSZOHDnS7Z46dexYl2vs2GHDCgv79evcOS/vm28+/hh/++ijWVkvv4xoK1WeUdjXXnv88YKC7t3btoU+7dmDPYHxAGs6j6nsyBXHVNcrV8aMCQZ3777rLmu8HOkx//APgQC0OxCAdqNGyLPPFhefOvX118XF5861aYOV49q1Y1INSmN98EEwuGfPPfcEAlZxt/68bdu//beh0IkTn30Ged23D0cOW2jWxrEmIOXlYexg5coDBwKBevUQZec5w+g4C4kyxeXrrxE7HzBg+XKfb+pUdAJnz0aGOtpAYNw4rIbbufO8eV7vxx+PHcuuI2Lw5nq9lHhOmH766X79PJ7mzVHjKJq4sxxkeeK+dm3LlpFVZYzvxCl9SIxhnrqRBmMcQZwbFPcPP3z1Vc554DmAqwRTu+fO/fFHt/uHHyZNKiwcPLhHj9zcBg3q1IHWP/usofIYvUF37plnioqGDevbNxi8dAkTi42Y/61muSQm7kx+QEY4F77p0cOUidatmQbDDOmykziNfUv1Z2KMVWSpjMwyt0aL7efcs8IDlt4xBI4tP4WRYD5oqd3MFWd+KrsiiECePIkFV06eZDcASQUbNjDWyL8yRBlt8+YtW7Zpgyzw+fMRVzOm4YbXJ4G4z5ljRty5r6wD7niftm2xtS1bUkowarF4MdRy507m3XKJdXQSjh3j5Eu845IljLKbtcybNqXicBEiJktY60xbQRID5BIiSzljrNEa2TVyrPFO2DunTnHsgjMcOILB8QdKPKWH+gLFadMG58T8+cyijhb7j60v0SptE2hRdjbzqqnm3LdM7+E+MTsV1K4OHTjmw1EOpIls2MD9bN1O+89T6xnONB6uJ9qhQ8eO3bpZ697gGLdpww4bc9xZC5xnHVvGhjnDAVs4cyaO5cCBOOeMBYAolIMG4VtgDsfRo9aihGbEfetW/q01Jt2pE0aNOndG4gyvCJyXXbsyX5wjZsgiX7uW+eJcygpH/dw561wRfnN2gTieYF2iiB1gjHFEF3d2BXnGcgsxzb1TJ3YWrKNJLDi7YgW2y7rHOAKA6/fwYY4woLP000/s9HKP8UzgtnHP469OnTJmMZhrP2OGzN69/Na8y/GOZOxDI8qO9DkkyfA7ciEw7inOPOG6Fly8ifdMOzM9ok2ilbhXa3GP95VbFycy8qz37j13LhDo2RNR6vLE/fvv3e6ZMyHumZmYqBJN3O1/bnnijs+i6rFl/DVS0Pk6EzAYx+X0WVaaZ/v883i3t98eMcLlWrr0wAHeqsx8Vmyxz7d79/bteXmYWpqd/fbbTz9tCBnFnYr2ySfvvFNYOGhQr14+HyYHBYM3bly/zvn0hs4i7uX3nz598qTLNX8+km0QMcjORlTViMTz3SjxyIAvKho5cuDAQODGjWvXwietGpXXsSezslaswCTPZ55BYsz/+X9GRs0DAWSrBwLHj3/2WTB48+aCBUiquXwZx5Wz8imjSCkqKNi/H9OrvvsuEDhw4Mkn8Z7/4T8YcXrrO+/a9S//ghh/587Iy0cVmvAsTKPds+f8+WCwQ4c5c3y+t9/GXAgjpg5xZ6S8WTNMP509G8t1nT+P2v/8dtb34Zq4e/bgPGR2+yefYJI0zwQe3zffhLJT3J96ql8/I+J+9WrZVJno4o5UmejizsmI165duYJuWJcuGHvBWcHzAfF1/pyb++mnb79dUPDdd717M15eXFxQgDzIsjMscESuXzeSbZBzaryPEYP/+99zc+vV+/BDl2vu3BkzMNMgPz9y/khidX4iNZSTvZjtzcFoKiy1GEkamzZZFwC3ZpFak22YRMGHPaWTkWauRwiJPnTIusyNHYELF3dTjvn+zMJnZwORxgULqBSxH4qMxUINTp/m1DdET7t1o1JQnhgxxVS2LVusWd3WVJlo4k5tYoyQMW/m33O9ydh3eP4OJ7xSss18dMp3hw7snFD6I9+B2mNVfyoOlY4TDVmpI/aWQP8xawYCQ6Gxxk15VkSKu/3x3thyz/dkwg87GNQpbgk7JIxv81y1jniwhSx26cLRDMjy+vXcY5wREW3mWKRUsUIVu3w8Is2a4d0psuwOff89Rio4twHjBeFZ15Eg1ebmTUa7mabFd2M2PKs5LV8OTWR9FevT30iVMecq8ChbF0HjeBSvCH5rjmNEZoFH3g1YM8UU9yFD4k2VwdTXadMY6acQczt5ffGuwm4z7gmoxmbeE6Jx/TrOR+yxVavYfeXdgFvF96SaRy7RFTmpmtn23E6jHCTOHyaDcRI56+LEO88wtrKrHGS1TpWJHcOwM5ge7XeMCZ34NxTpCwb79Vu61OerVctIlTFkmlnvnCaI6Gb0VBk7C38Y4g6pHDYMisZlnpicY6RDGG14ZZvwFmr4xhtsTaVjXJaTHfnKkiW4NK2XIyahZme7XD/8MGFCdnbNms8/z1xkJD8gSQb6nptbp86bbyKFZvz4QODSJSSrlM1FtkafjVtkUVFhod+PqYfIa2/VCqKG92QqBVtMWMzL+/bbTz/FdN+tW41K8Ia+Mz3mxg3Ey7t1w6313/97MyIOWYde+/07dvyP/xEMnj/ftSuWzzp50shNp/qbVWLC67v7/Zg+mp29enUggMQYvOe/+ldm1jvef9Omf/2vA4F9+/7+d8wU2Lq17I2npATlxUKhn36CjrOzx/x1dqXYfWrYcMoUrxfxeJTqw++bddkjpxeje4FvjxkXgcD48YjBI7vd6+W5YXTMzIh7ixbhEfeyOe5lq8pYy0EaqTIoS2Y8LF0ulMbbunX9+vz8Ro0++QRH6qGH2JFjAlVu7scfv/lmYeGoUYMG+f3nzqE+DBceKn/itDFlF/peUDB8+IABWVlIpzFSqnCmGVNXkXHs96OoaPiKAU5lnfCRSSlBqsaAARwQp4BSwTltLtpdyPo6H+eM9SIC2aEDppgZysjcUGtldzsTtqw57lZlp6hx6B+T4RYvvnkTOmT/cWjUA0FlC9Z4YRSQA/GUFaaOsDNg/VtOirXmuFu3jTLBNA9O++Pv27/PU6wpEJzyaI3IclIdtG716sh3Zp0cLlpEeeJRYLSSU/rsF0LgokjoRmRkUEyxLy5fZvFKpj8ltpKlnTozxt5G1JljPhRK1mZhR4IjAOFJDkgF4b7iMW3fHqlTTJRi1JllT63ftbxqPADJMTduIC1qwQK+mzma1Lw5Yr3ff884sTVubQcmcvB6QUS6a1dM6m7VimcOY/MsvWrdHnQmEXFHYpVV3NmBYWoWYthr1jAX335dduunsKvJkSKruBsRd2x5bHHnGcu/5RbyGDHKjtj42bPW9Dk7oLuTlcX6M9R3I4EKx52JPTxDYn9rdGXOnME3gbizA4D3GT4c4n7gF1AiOdadJFoto2idVUXcJe5xr/1pZ/jGKu7M+D558tq1YBCRTr//3Xex9BJTFKhinJzKOOipU/hNa+G/eIvWmeIeCk2bhkKBn32GqYdffYVykw0aTJmCdupUj6d+feNnr9f4Ge033+CVhg3xO198gb/iclGIyDIH2uhy1KgxfLjXu3z5gQNmBiSXJNq3b9eugoIePdq2NSLr1kmESIEoKhoxon//QODcuTNnIiOp4Xs4UkTx7bze9etXrUJee/36yHh+8kkjTeK55x54ICendu3XXisqQsmuQABRXlPcsZ+ystatQ8Y5yjuWzWgPBDIy/t//NxA4ebJBAxTCOnIkvPqOGbO3bqMRyzfScnAMrl+fMSMY3L//sceYeGPoOya2BgLsGFy+PHIkxieMhwq7FidOXLkSDPbvj3kRHP2wTjb95BOku3BeBKcLm9tXvmKaYzj8GWdaKNSt28KFPh9HWoxxFUPcuRyYzxcZcae4R0bcWVUGEXdzAaZAwO02orNXrly86HJNmDBiBLptr79unBVMkoFqFxT06dOxIyolHD4c3m2zajqnO16+fPGiz7dly/r1LteMGePH5+U1b/711xjbwaRnzqNA9D0r64kn7r2XZ53Hs2zZ/PnoLOXmWis/JVZKNTLyx4FgqIORAMDKGKjgMXs2hSlarnB4MTgIFvNNoe1dulAZ+dim4nAqoX1xx0Q2ivvgwXzwM/2GkTtEf6lN4TIau2xiZCVvdg8YpWa2MZNDqIaMf1uj1ExgsIq7Nd7JPcmlqThpMnbELtrRYZYzOiVLl/I9qYyUFebuYymsCxesmsKFihhz5XwDKhRkv0cPJEisXRsZlYwG61djhMGopW1n5lViq1DbqXKNkQ6Ph2cRU4aY9MGsaHOCMpNqjMmIHHOgaqM6St++jEYzQShyNQNrAhir+iBdZ+RI69RSlg5c8wvr11tjxrHXCY6MbbO8ILthSDZbsYIdaZZK5OTvsjnuyP7v29foylJbGfunWONvw69Zc5ZMeev1lq0uhfs+9BcibE2ViT/ibp1YzDkVTPWxzkCw4yplx4Ju3GDnjVer9VNYqYb57pF/y09B0dgTJ1ie05ilgGMae+VU+wFQ+9OgJe7VdHJqYvXLo71ipoyEQtevo6De9OnQaGS0G0kyRjlI1PdAtQmfb8eO06d5Q49H3COXW+fPe/ci0WLOHERt581DxvPChbt3BwILF+7ZEwgsWLB7t9+Pqt7mz2gXLcIrS5bs2+f3f/89bqWoPWLE2hHxNdZ5rVNnzBivd+3aw4dNcUf+MqrH/PQTyvMh85gKxdQFRFjz8xs3/vxz3MYzMhhPDU8sin0xWyvuoLgkpG3ixJycWrUY10e2NJNnEOnPy+vWrVUrr5f57sanoAb6pUtDh2Iq6t13hys1J5Lu2/fAA6jHgyrsXCHVkPXoRffCCx3y971edMTOnevaNRBAjRrWnzE6CRkZ/+k/oVtXvz4WbzpwwIjd4gxgwcfmzVHXhUrNfY7yji5Xq1YzZ6LKL+TeWMKIEnrrAUc+eCARxcVM0GLaDD8FSTjh4n7tWl6etVMVPVWmfHE3opiBwNGjBw5gwmizZpw8anS0XnoJk4zff//ll5n0EllolAtvBQIQeo9nzZply1yu8eOHD2e3DaM6zzxjzHkwqhI99JCR6Y5prPxNj2flysWLUT8JlfXLnnXxZrdb7ydc+hsJACNHMk+Yk7cYz7OzgmAkfKhzChofpYziI6LYsyejtlTA2AIRTdypoRRT6g5LUsYeyI79yDTKxkGSqcjcD0yhYd45dSGauFvVgRUz2BngIjbWu7edvFirZGAPHDzI2D/fn5MLzUnDu3ZZY71cxgi/PWECJ7ZyjzFaTBXjJFeOpaBbdvUqF+WxEzO2X4k/sVUF7GScl1V5t5sJIZDojRtZoZwTPdkFtU43tI5aMFMfgnz1auT7czQDKwCvWcNiiNaEHIpj5DTNeGeY8Gcqb2Q5SOtW8aoxxN2c9cEUFJY7ZKUddm9in3XlP/2Nsy5ZqTLWfc65B6xbH7kHYlfNj6zfgiO9cSOm4fbpwyPCrPoJE9B1ufQrkVc6Oz8Ud65YECnuKPEZj7jHfsX+fB6JezUS99h1ke1kWZVXexu/zTUpV67EMjd16iBWivSV8NQUJi0sXLh3Lx/D5aXK2L+5E78fWsdVMNlCCktK2HKNzMiWf8W0im3bTp0KBuvVQyTemgHPuPs330ybhmWQTp40xd3nQ0Rp3Ljhw1GY78UXkR5jTEWFqD32WGFh9+6Y0In0BustNZ5vZ4qd17tly7p1OTl169aogaQIxm7NfHfkN6Oywrp1hgginonppM2a4ab6H/9jePb51q0o4HjsWM2aLBBpTdSJJ43CTKRBHvasWUi8+V//yygfSXGnyh869MILeNysW2c8PvHAR9nHQIBKbRRqxJ5H8pLLhbQrrxdr4RmJMfYn9BjnFY5vRsbp08Fgp05z54bXcbemypgR9/KrypRNlTGryixciKKhxi3b79+1a+vWvLz69T/8kOlShri/8caTT+bmNmpUty4X1TLWKCwsLCjAJOO9ezEHZMqUwkJMy0I6zVtv5eRg1gQrzxgxe3YO33rrqadyc99//8UX8/Pr1fvoI+TTd+uGWuHLlgWDV69iYJqpZLde9Cr2/cEafWP0y1rQkBFKpmdwSRdKAPXIFQX+Kx91iB9euMAIKN+Z78kJapwcxvSDaHe22JNT2Q3gID6GtLEMkynH9s95696gojFHH4LWvz8rcHP7oSEzZvB7WVOMrOJOpaPisNY4OwOxFy2KPGqRv89KJpwsa9YwadYMNbL792fpSWtcltMoqXecfmftVPAdWOCRyQbUXLzP+vVMEuAYi3XFysjjYicBMvb9305Ff/v6zn/lmrNcTospQ5xii25e796m5rZowb2Bzl+/fuj+rVkTWcWFe2D2bETnOeGYCRV8H05VjMzPtv8UjjzW1vuV9TqNzHHnkeW3oHQiyWPMGExpPXKEdyI74l72Hmv8PheTsk5OpYjfKlUGHUBD3KHR1mnumLa7cmW8y3hF3hn4V/ymKAo5fjzfn5/Iulj4tyNHIjuiRsQdY3QcszLS23BNMccdS1bt2xc5GyferbVzhkvcq+nk1GStGBq+jLMZg92798IFSDBqgzBHnLnmjLtThUeORK13Vk/nrcYaQY89wFT+dLfoOePl/2v472zYcOwYVntF9RhjlABxX1YBZ6HJ/fvxvYwbgduNLPQBA3r0QMUYRFKpaCzt98EHr77qco0ePWQIpnKa0w3jw6qRfv/Bg3v35uWhri/SJJ56ypj8ino1ubmoV+P1rlq1ZIn5vV2uYPDEidq1w2vIsM3I+C//BVrfsiVy7s24bLyTla0Z8Lm5mHS7f/8TTyDHHVNgjWoz/+pfYQLqvfciuj9/vvGQg+qitrLfj8W5zGnEiIV/9BGOxfjxGzf6fIWF5nJTdib0WM8KgnUDQqEhQ/DY5FRXpuKUPzk1djlI1HE3ykFycirEHaMOhqJt3rx2LVJWXn4ZZR+R3c7Jyhgbyc/HEfR4sGYqj1dh4YgR/fohUt6gQW7u55/XqmXE6Vky8tlnsSDXs8/++c8401Ct6JNP3noLNYXatHG5Zs6cPBkjWBhKRq58MJifj5ED67jUrR8hsaaAm5m70EoWj7OWtONDmqXujIKFEDsWXqSOc3Kk0eIVPKh/+IG/ierKkyYx/sdMdyPbGBF9PBpHjaKO2xd3ax13KjXylYcPtybeJLaWp3mulZSwo8JILT4Fj3JsM8vSsZqEGXH3+ayTU617j8stWau+RMuIjT3mwNfZXWINEOY0M/bJrGh2HqyF8PgeTIZhTQwu0GMW02zShF0pRmrbtMH2M4GEEVaOGLCa0IZf6/MgpeTsWabNRJvQ6WTehf1yxrGr/pedghwIYDTh2jVUs9+0CYlQI0ZwuqQRO4fEc61WM23GeC5AQgsKqKoc5eBRZlIKu0Z2JrnaPw+jncnWaLF1cqp1JIHXKjqXWNmj/EXEbp2wGi3iblQ34t6IHnE3xZ2pSjzrWJ6V55KdQGSs6nPGX124gO/KVU55nZpBhyFDuMqptUNr3Ye8lln9xhT3pk3NiHt54u6k0LYmpyrinuCt0H7Fd2t8+OLFrKxgEFXSUSEENbatNV6YCIElbzwe6jIy18wCi7fektj9UTu3P2smtFE7HFUwqHTGIj5G7XmPh3Xcz5+/edMUd5cLcdLevTt0yMyEWhlxUEwhpX5h0urEidHE3U7cyKqRTJ9APn27dqjw/fzzqA2PT6QavvXW008zs9kUd0wFO3r07bcDgY0by4r7zp133olSj717Y+wBmdCJTWQ0xb24OD8/IwOrqNasiWru5kRYrrGKCjNYq3XWLO5DTDMtLYVMe72ItbtcZiUZY9YBV+G1L+5lExuMf8U5GQrhOPr9qFrjXNw//TSauKO+Pmo7QL65HqoxIRXr5ubmYrXU/HxMIc3Pb9bsyy9RzPHpp6HmEPRnnvnznyHraLE4V24uagfl5eE3CwoGDOja1e2ePXvaNJ9vz54dO5AMg0Hksl3UaOdbvNeL8WA2119kFeSyy6AYS5CYhQiNXOHoLR7QbKERTZpYlzgxql6gAgxSFDp1goSuXYsM3/Dc4sh4ajRxZ4lA5ug7EXfrnkEn4PJllhRkrj8/kdFNpqwYZwViu9aIu3VKKyR79epoNZ7ti7v1eFF6KCgUdxbXQ+X8mTO5imfk8wLaev06Shhu3Mhq1tY1ZSnxxuqtqGfClVM5psGOFuP66Lb98ANGZ37+mVMeY68v6yR5JnbQqrxOV/T5WgaYSFtYyDQS1qWhjDIhCh2bPn0gehkZ1gpCqG2em4vc9jFjeNZRQ5lMhcmbO3ZEezrHK3PRvpd9cecxYtqP/aMTLcfdubhz3/KKYNV5zhWxL+7RuhbWtSNY5pJpYLwX4Vj268epvZGpR+E57rHEnZ3zxMTd+dkuca9SJHfY0U7aDBacCYVWrEANEE4PZTV0Lo7DhBkul9OnD+rPnD2LeezWd7C/NfF+C3MY0Vg+aePGo0cDgdatkSzBaams4I6xAo/ns88mTPB6ly3bv9/vz8/H+qnh4t6vX6dOmZmo7kKNZj0ZlPl75x2Xa8qUMWPsiHv0LbeK+5EjBw9yqZ3c3Bo1nnuOXQXGdLOykP3sdq9YsXChmSpDca9Z0yrurPcSDO7Y8ZvfQNy7dCkpCQSwvPytE6vKe8Uq7nl527YhJea115Ae84//aET62e7a9fvfQ9znzjUi7rjJoSIQ01fCxZ2rnLJSO1fGjZ0qE6tQaUkJOl2hEKdNs9wkJ0wzx91eqkz0BZjKivumTWvXZme/996LL2Zl8dxAWosxsfjNN596yqgR9OqrXEOXS3QxKg+5R5IMVt79/HNWZ/d6N25cswYlJvGIZQJM5BiScUQSTSeIpjKsQc4sZ2YAm9WgWfmBNTqMSh1W+bbTYqEeFkY03sE6qZSqgSKMs2axYkb5CQPliTvfh9NGKe4cN0g0da1spJPVY8LFHZ/IDHvmrBvjMIg+UxqYAsQHP8tTsi51YmobuQeoa1wD1RR3xt7bt2feMDPUrZ9lfQemMLE+DN5lyxaOk3C5+y6/LnBDGWVZPWvmNFvuec4rYHUgVouPPHaJHYXIZ5yRmoU2sURQa5KJkf2PGC0Wm5oxgwUlOXmaBRlZTNBabYZrCXP8gZ0ZxulZH92Ohib2pLMn7ubKqVZx54yFaOeenaSdaOJuJ1WG5UEjxR0Tefv2ZaUaJ6m/1jMklrj378+1Glj7KPITkShz8uTEiWVTZTiBntORo4l7vBXzFHGXuMc9OdVJxN166l25kp0dCvXpg7j7K69AkihkrObB9SwpZzNmIKpatqZH9HhqvBHE8AiBOeUTkxGDwcGDV670ehFrd7m4muZrryGxB5MjPZ6mTWfM4JqpRtamUfEDJf8KC4cP79cvKwu5y+aSOkiVqVXr2WeLioYO7dWLU0vtVNQub8tNjfT5du36+ee8vEaNPv3UyGs38ukxRfWTT95+2+NZvx4ZgYbGoaNx8uRXXyFZxajdbkTcUXkd//rll8jzDK+wHs+grVXcs7KWLUMV9fvvx6cgh97Ip/8//g/UNX70UfzO8uU8M10u3OTGj8dYB+v5YM8b5wmSlNzuoUNRoZ/LM0VG3GPvQ/4+Y7QHDiDNqU+fJUt8PjPH3e22n+N+//3z5tWs+cgjixYh4s7JqWY5SOvkVJ8vI2PLFkbWsSYusts5cfnNN5980igVytESTjDFMlu5uZ99VqNGYWGvXh06QJJnz/b7Dx9GvXxU6A+FoCTRU8DsVoyxfwWFR2EhXVwwnNnS5vLs7dp17owppEhz+e47VoGgtt6q7dfPaM2/GjSIy/dQbc2FxFu0QKR/xAg+IK2rb0ar426NuFMIqNcs6xZNH2Pf6yIXk+dCSIhIDxrECCvXMeXEUCbSmBF3r7dsqoyR487a54z2Rbvj2ak1wb9iGgxrfltTZTjZl+s4WiOLkd/O+uwo+hV2mVjPhDU0MAaybh0XpmFZPXYSwquk49uxuCeTcKzxafsdyGj6wqNA9UQHgwtBbd/Oau6JxT6t+wFVmfLyONmU5zkWlGrUqG1bVHxnRX8I6ZUrRpwen8wEMGvJRe4ZVIbfuJFHKV69s1/523o+lC/uyHHHVrEzFhlxtx/pt35KtIg7JqfGirhbJ6dCozlGwWuEy1fZH6Mov2y08VdMbeIZax2JYhIdJ21HpspYc9zDJ6diH+K+xKoy8aTK2M90iHZkJe7VLuIerYcae5JQbCGwvhdPWybALFu2b18ggPKLxvL14QseoWWhRlbyvn49P99aS5uqXd42xL65m/9qPACt73n9OpR9+vSff0aF7wkTmDjhcnGrmNJDlWQGtpGLbyod6qN7PC7X9Omo9PLxx2+/bdRWZ6b7yy8//HBBQfv2336LzOPTp82ymdGzPMv7doZ8QgtXrFi0CMUfX33VqBbPz0I0F6kU9ephYui2babSoeI5K7jv3Pk//6e1qowxbfTQoeeeQyFI1KA1z5bYw3jWreYjCK+hgs3Vq2PHGjVkWLWG4s6psUePvvceovLbtxvT+yBf8+ejwg/KdHq97NSxng9TWViD6NIldAKtHQv74s7f5oTpb7+dPh2fgu4Bz8b4xL1WLVPcw1NlrOLu9x86tG9ffn779k2a5OZilVOji8X5D4i75+YiTz0/v127Ro2KikaPRjd2+fKFCwOBgwf37cNsgdzcaIJedlp4+O9Yj1y84h75wGPklUky0OtBgxhHpA4iUjVgAKWTFcTZUuzKa7EeodHiUcfW+ldQm02buAgOH5CM4LKu9ty5iJdZo2J2Vk5laT+KCz4Pj1hzClpiVWUooFzmnWX+GHHnUjgzZkDpGGW07kmruFsnp3I8gdnVsRdFtyPuULErV5hxbl1LlV0mptBYBSXa9M1oUNRYmYcTcLngEY7OwoWsL2R2upo3h+o2aYIUq++/pzzxHeyMBkd7nfF7qjAjx5w2yjMHHaYzZyI/JbIbFnsEA6OlBQWoRbJ5MxNmrEd5+nQkHVmPMmcp8IrgGUs15N7gyAPHBewna4UnAd465mo/VSZZ4m6NuKMDFynu8VaVMa4L7jHrxNnIoxnbZKyfhepUBw8iADB6tHX9BJ4zVHOk7kafnIrtNCLu3IdGqgzuYNEmp9oX99jj2xJ3ifstSGygx7zlGYpx+TIWWpoyBQkPzBdnigITZihPSKFBVXUs8v7jj9u3Y0EaLBrk9SLKfavJptRbU3LL/qbx+3w3puUwxl+3LrKo0ZFwuVgCkp0KTkvt2BEVSHbtwnQ/VKexvrO5oP3GjWvXYlohJoxSzlDBPSsLRfqY6e52L1o0Z04wyBqxkRJWfta4ceyYJHPq1PHjhYXffdezJ2uMoGPAgoBIsUBKRmHhkCF9+gQCWHXV/BREm7EQCArEPfVUeFUZivXu3f/8z6HQlSuosB4ImCk91oWWyo93hedSFxTs2YOJsJ9+ilQcxNr5/mwzMv7zf0YXokuX4mK3+/x546GCmxD3MKf/suOE0RiMeGCmwVdfTZ6M0obQbtQsipbBXV4qFNucnKKi4mJ0wIxFwSjuPAPjSZVhVZnwiLuZ424tB3n58oULRUVjxw4blptbu/brr+fksKNlLsCEmjO1a7tcP/44eTJq7WdmRtf0suVBjTGf/PycHL//2DGU07x48dw56xJO8SxrFquSDHKTMzNR8WTePC7UwqgYp5AirjhzJh/JybpfUX24+DxiYkZdDk714xqcrGESO8fdKu5UAaY3YJh88WLrIjX2Y59lc8GvXYNuz5mD9KGuXal0LAe5fDmiy9ba55HlIKlQFBSuFMsl3CNF3P628W+p0ZhYOXKkUfYOgsIps9w/ZZesx5UJOAfAWvAxMuUg2rHDcnTZ2VCt5cu5nJO1LCC0euBARsQZxY+dsBQ7B/3oUYx1UJt4lBkL79gRk6QhzsuWZWWVPcp25kpZfx9/n51NfeT0a/Mod+/OYqDWekccC1q/HmvEcnkyazlI6OHEiZFrCMT3bDUm0eIYXbvGdCYmnPCYOhf3eBOW+HP54s5UmcmTcY+4VY47z1JzsaoWLfg6CzVG22N2jiP3DOaRrF2L67NXL673zE/kNHrWYjLvs+XnuGOLrHcVs457sqvKxE6CkrhXi1SZW+X2xZspfuuIiJGPjBaVf4PB3r2RqMBlmF5+2agwQ3E3FrdnWcD+/ZH7vnUr+r+5uUj4MCp4h5/Q5bVm/9WIzObnu90oVoWCgFzV9cMP0YVgSgY/l1F2voKFnBAb27kzXBbNnG5zWfuLF8+fLyoaNWrwYEa+jeQHMxaen9+iRf36Zvk/o8J17NaQs+xslEKcPHn0aKM4IBItjAjuCy9g5dQvvnj3XcbjudB9uAK6XCdOhEKnTjVqxJVNzUovjIUjieXAgccfRxIL8uONaummvkdr+f5YuCgUOncOhS937sRCS9buARZgCgb37Ln7brz/okWsFm99jGJycHExqsf4/UxiYayd+e6sNsNO1J49qOBgRPlvtQeN447q+4FAkyY//GBUiGeNI0T3mSpDcbfWcTcfKuE57tHKQZZdOZWFDjdtWrcuL69hw48/5pEyxR0Rd4zSuFwTJ37/PWdBhF+zsburUECPB4uvYJLrN98UFg4e3LMnpqvu3EkBs59DGfvBwIW++TDmIDvFnRKMOOSWLdbkh2TBwnyc5sh0C1acYDnCXbsgptHWFg0XdyMXn2sxtm7NeDBrw0fT0GjdmMjEACb2hOspdM2oMmHmvHKpKaylyRz3zp2t8wE49ZN1viN1M9pWRW4bRZMdKlbZt8b1p01DkgCl3Doeycxspgogdv3jjyiYN3Eis+RZLNL+saOYsuge16nliAcndDLBhuUX4810t34KI+7MV2ZHKHxqI8aCMBU0vGK9/aNsnP8nTpw6xYissbIvPoXHnak52DtG0hHPDZQdPHqUqWXWkQdMs+7ShQs5Wav62D++nHZ8+jTGEzBRcto0ru2KQpOrVzMNjKVYrdJpTZUxykFCOu3kuNvvLnKqbvnlIO2Lu7GmKdWf+xlJVitWWPdz7CMYmdLGPcYjwi4Bx/Fw7bVty9k71vtJ5KiXmeNupMrwymJFGoy8/fyztY67mRAVz5iSnTu2xL1ai7ud26WTSLwZ+0QldUSsd+/GEGmXLgsWoH4LJghaV7JknJu1XN57D5FRVJ7xejF50edbtAgpN3yHc+dQ3eXmTVSDyctDhW+0wSAUEP+amYk8a8RxFy1CtXi8g9/PRXYYc2XdGMZ3mZ7x4osDB3o8H3yATsXEiZs2+f0cKygvemlNYsEjAZWzly6lQBu5y8x353RDVBcpKOjUqVkzLM2xdCm2/caN6GMDuAkiknr4MJU9J+fLL99/n50B1vM2qnpDBDFdtXlzv//MGSxxb73gjc4Tuh5YNQ7LMN15Z7hYG/nu//iPmFT68suYeY8YsMeDiURWQS+bjIFOAmrIUNl3777jDmvVGvOd/+//OxQ6duyjjyCURsqQNdWDKr5hA6YIs4So0ZUyO1Ts7PXujQkgUOYAACZhSURBVPkSrKZfVOTxRNZSMV65ebOgIBRaunTvXhx31C96+21OO8b5xtEVivtTT/Xt63LZqyqDHHdG3M0FmMyIu88XPvyNzNtLl1AwtEsX1o2BuPPYoeuFKkD5+U2bfvGFx7NoEUZFkMseeT5YW545Hs/SpfPmoUOI9VPZGXjvvZdeKihApRqPZ9asKVMCgQsXzp61ng/WDqedJAE+xlAVZPt2lmaDsjdtylgdo3eQ+lOnipOENfeX6QdTpkAsqLkUd06NRYXyBQs41SzyjscpodbJqZRjyhNzWxlj4+PcesTtpIiwUwGZmzDBmJSJRzgUoEMHyjejsJH70xpxZ7qRVQKwNEzv3pgkt349VDonx/59HtHunBxMcV27lrpDbeIW4n379mUNfmtckKoBZd+9G6vADh3K/cO/Yu4vK98j9dFcxSIWSJ45f54JEpDd9u2ZXsVuGCa6bttmzUG3P+pr/VfqONd8ZWfJyJCG9nHfsroLxzHQ1TWl6tawY2BdYIsqyYnO+MSBA/npXM3U+l04f4ATjrlskyGLOMrcWkp/vJ0iro2KDtiMGZxeyfdkaU6WakUE3lg9gNtjRtwHD2Y32JycOn26/cmpt16AKZq4G5NTI7sikeJurh7AWlWtWrHcKseRonXXo8HxQNbm592DdxKcJa1bI1o+ejTvGNFGlvj6uXM4rzmx2+gSG+N43btzrYnY2xZv6NP+igQSd4l7kivPWJUBt/6SEsbRe/RYtMiYkvjCC5B1JkgwGkppo15Ts7A0kteLIVCfj2kPU6Zs2eL3M7Vm5szt230+VCDx+bAGqt/fs+eiRX7/119DBPmeTNHhO1vryjO+W7s2YvAjRqxahUQdo+xjebH8yHovjLuzantOzvvvv/IKVk598EHquxFnfecdrGoJUUO1GSxOhTohiJJmZKBG/K5drMbNXOfCwkGDkBiDKHtWFuP31D6jDgkKBWLFVo8Ha3By8mL4cDDFna+43SdOIFGoVSsUavxP/8mIhVunq27b9m/+DVahffhh6HjHjlDJmTMxuXblSrRr1iCpY8kSLO6DajnHj3/6KaPs4YUmzRKQodDBg088AZGeMwexdkSCw7Mwje1jN2nSpM2b/X5W02eqDDtXHAlBp8vtbtdu9mxjPASjKIHAvn2YeMrVczduRIHRyZO3bPH5mjWbMYPjOS4XO4TspBnijjZxcUeOe/niblx3fj8irps2rVnD2u1Gp85YRAlTiqnvmHDsck2aNGqU17ttG8YeMC01EDh+HAuCHDq0fz+W31q/3u2eOnXs2Pz8b7/99FNzkusjj7CyENfrLSjAtCn+VbzpcNbzh1PuZs3CYuCMBxuVSfAzl/62llZMrrgjtlZUhEraW7eypjijtljNs3VrKia1yY64G8UrjTVEmzVD7LRzZ0winD6dy8VDtG/e5NJQlEIKLpfUocYxJo243cSJkCYjT52xdqS7jBjBd2MyQ9kUoGji3qaNNaGCcwmQarNqFTPCGZ9m/J7rqrJ+BUs68nc4FZVCyXemLjPmzcWY8B2uXbNuFcWd6StM8qHWcG/zWDOhgjMQ2CFhUg11jUtZMakGMdXLl7k4EUc2uCUsH4kJvEOGIMHl+HHr/ok3XdOqL8yQZgybHTwqKfck1ZbVhJjZz8m12b+Cc6yggEecAs2uIM6rY8fmzZs/f9EiFiXku1lXk+W4BM6Y8EXBrKBTePYsOjCTJvEMZLSeXSNOlWa5Scolt4H7k2cgOwBMymKqBo7iokXsDDBmzNQdXpec1XDlV6xXZWUSd84HaNWKK/iy/Ci6kS1bcrkonqvswBh7jKsFAJ6ZHLPCckpHjyKVbe5cpjbxKuOnQOG7d8cMic2b8T7hY56R8XuOZeE8W7yY3Vq+D4/mkCFYSRojPDt38irAMWPyzY0bvMrspGlJ3CXut8ifs5NNldiadtHE3YiwIsa6bx80a9CgFSt8PuuqmYywGrnmZgoNlYuF/FiH+513UHWkZk1E0NmyxCReN36TcmZWkTemxrLgI4o/ejz4dLd79Oj161mpHRNETK2M/gixxt0ZAYJmoSpI+/bUdIg75IyKRu1mXREsxJOTU6fOm2/m5jZsWKcOppZ+/rlRhwSLN/EdjPg6xR3Z84bw1anzxhsu17RpY8cinaZshnTZUQ9ja5mJfvhwrVpIm/l3/y48Om7oOyPl/+7fBQI7d/73/45El/vugxg/9BBe+d3vIMz/z/+D3/k3/4bFJcPFne2uXXfcgTkOgwejy2Ym8LA7UfZRwFdPnsQySUip8np5fK1HzTgTcEwZg0etd5eraVOkwTRqhNVt69QZPZoJNpy3YD2LjCNuirvH43QBJrMcpCnu4ecGqg8hpj53bm7u119jLVVOYsbRxJFFp44KziP+xRc1a2Jia+PGhYU9e7Zvz4rvOTlcmKlWLZw5jNkbZ4XRDcCEV6TfjB07dCgLR8Ze9it26TQkGSAKC72gdlBcEDcdOBAZ6Js2WSuTOJkVEy0xAAP/585B94YPZzyVwsGkBSZyWOOdsVNlWLiwUyck+VBJ8dBt04aKjw7KggVQj507UX0dHR/EmlmQDh2YuXNZNo5KwRiqdbEYCOvq1SxHGPn452qyVnG3dirwDl268H0ou0yrwIqO48czvYSrM3L1R1bXQWx+3TomcvD3GfmnaHILufeofZF7mK9Q3fgdGV0284ybN+e+YrUQiOH8+UwTwjuePIlo/JEj2L71681Jon37WscieBTQTZoxI/NXYs/CijdJg+LLGi88N6x50twnXHxqzBiINFMvEPFGigN0ixVp8O3mzuUawNZ5CJxlwSM1duy4cRMnstNoTcKJPIepa+zwcNVeblVkuUzWKuE1hXP38GF2PjFNe/Nm6vigQbgS2Tlh0ppRLBUttnjECB6RyBx3jnKUXw7SEPfYawjYKQfJYpdGjrs59XP8eHTzWTg1djlIXuM8c7j/eVazs8Q9hlGpPn1YoNPcYzwLjx6lOi9ZghVXWYeKHVfrFcH7ACuyWysCxb4XsRvP0qjG6s74djwW3EJ08/r1w/TV6dNnzfrpJ17tixdT5RM725XjXk3FPdptxU5d2HintMauV2PdGkbfmdYyf/6ePYFAq1azZnk8LMvIDHiKGldapXgxRxlpLYjHI4aKljF7o2UEnb9JZWcqDt+H/8pcaiTPeL0LFiChIlLa7OQdhich4BbJ9U2RING1K1YzfeEFoyAgo60QLCysgxUxMbXUut5qVpYxsZX/CiGj2DHx5uWXoezG0k4TJiAZ4+LF8G5RtM6YcTtGpZ/c3C1biosRLy8uzsiAgluz3qnd5tTS8H+N9rr5M9KU7rmnuPjSpSFDkI195Up4bL38M8TYg+g2HThw8WIo1K/fsmVeL7pkRkeO0XccWeNYI47uchlzJDh+wnNj4EBE2XEO8F8xtsPltHD0kSTDs4Li3qIFxP3WOe7h4v7eexD3qVNPnFi4sKjIzHG3TjE2xmSQyGCkuDRu/PnnRpeM5wOPO+vxIx5vdNvQwcMquVieCa/z3DAqvrMjh3MjL+/rrz/4wO2eNm3cuGAQSTKcPG09T+3rMifYLViwcOGSJXiEYjgeDzw8hps1Y4oII5fRplHGvgNEW/ExcnvwUC8oYPKJWWrQKEb5449QmitXEN2KjLgjUmqIOx+xjAUymYSyyxg+H+qUZi42hGrlKFKJApfMlsa/dutmptxAvyAnkMEePTgVklH5yKBJeRF3aCSTOviezErHFMgVK1h2kBLD/Q+969OH4gUx+u47/ozP7t2bYm1VbUbxIezff48kmPAEg8j9TL1jTJT6S2Hiu3GfI9bMIp2Y2od9Q8Hl9nBLKDT4G6OiCPctxygQAeWCe+WtpRr7bIn9O0zew0qt586xPo9RpRv7mN+CLVN3uIc5X4LfhZ0N1oHh3jNWjTXSjVq3pjpjzGX3bmu6UeyriZnZnA2CMYehQxk/to4MUCU5B4CKzzOQ1Yp4ZlorLHHbuFWcrs05G9YyqZE57lwULLKO+9WrZSPusUfmoyWToAu0c6dZDjI84k55jdw/VnHnOA+/KTvJPBt5dTAVjSNCPNN41Iw9hvOQ1y+vSmvBR2uJSX7WsV84ccJaryb2OWaGEjiKMnmy9brj92XLT0Hnu0MHdjPYnTC7edGegNF9I/ZMDIl7FVf2aOIerZ+dWFaWnbQcqyLn5KBCNXKXA4Fx4zZs8Hrbt58zB4UaGYmHeD3zTP/+bvezz6Llck4Ud4o402DYMsXi+efxm08/jUQIvOJyIRkGsg5FY7LN5s0YsjVrhIerpb0LqTw5xvDx0aMHDrjdEyeOGIFc5Hr1EE999lmusco1Mjlhkeuecpke42e8npmJFTS5xD2npRYUdO3aqpXLNX/+rFmIp165Eh5lv9Xi9mYMmD8jQx2Ze8hQ37//iScCARRtDASQQkNxt+p7uLLzZyzqFAjw5x07fvtbFHysUaO4GIk0JSWY7GmOSMSuURM+MsOyWIcPX7oUDI4Zs2GDz/fttz/8gJQndL0wndTlwvJYbvdzz+FYmz8by2bxPOFMCabW9O+PbgDX6+X6uOwGMFWmRQu8HinuOTleb35+gwZbt/bs+Zvf/Pjjiy/+4Q+zZ7/11j33zJnzzjsvv7x8ef36Y8ceOTJ7NiLu4XWjrQU9zTowubk+39q1K1YUFQ0c2L17Xl69erVrIxXqiSesK6fiZ7TPPHP//Vh71foKVlSFuKPu+zvvICrfrp3Xi8pFodDly+EdufAyrbcWd65iDAE6f37oUNQnrlPns8++/PKTTz7/vF49DltDi+bOZYJB5DUS3x0geiVva5SLOd+sQf7pp59/Xr9+3bpYrZMPxQ0bEAWzdiHKiruxcioVh5PkGJ/jZDU+gOvW/fLLBg0++aRu3a+//uwz/AVf4WfxZ6Y6MC2BYxGMhTPNJlantDxxN6LRkHOu2sjUI8TtmWoyYAClGd+6Xj1j21A9BVvVoAFWLWX7zTc8Oqz8w+SWffswYsBIf+xon/GvppowUsjllpgNzO/OpJfPP8eaqdgn2BKjxZbgdWuXBiuvTpnCKLJVdu1IuZ2zKDLuywx7bj8UctgwihSFj/uK28mfI1eBZfKJVR8xpXfWLE6Jzs83F66KHZ8uq6d5eaw9Ql3m9G52z3BMGzTAWVe/Po8vjyy3jdvDnymgPPMZL2dqFhKnwvettUvGopk8IvyUjz/G57BDBaEOXxrJTpQ9cs+ze8AuHM+Hjz769NMvv2SKC4qG4u4UK1WGi1sZaw8j1YrvyWQwXDsLFvAM529++imuU96djDPQvCL4M68gdoE4qsYJ90g5K6/EZOw7ElNxeIfhRFWzO/Htt9ZzqXZtbBd+atyYtae4GobVfGJ3VmPvf4l7tUuVcVICMnaqjP1q8WX1PbwSyI4dqADDLPYuXVAoEMUivd4vvpg0yetF1RePp04d5IkjH9rj+eijsWO93o8/HjfO6+WiTkii8HiQ487IusczevS6dT7fli3oZXNiq7V0YOS3sqMj0eWYtzMsveTzrVu3ciVi8N265ebiZpOb++WX773H1VUh5UiYqVPn9dfz8lDbOze3bt2aNXNykDaTl9emTYMGRUUTJowc6fejSnZxMR7/ZYU4vrXZrJVhvF4kB6FkZCBw4kTdusgYf+ABTDb93e+CwZ07/+mfIOX/9b+i/S//Ba/8t/8WDO7a9ZvfBAK7dt11VyBw4MDTT+Nx2akTOwMQb58vMjHG7hZac52LizMzMc0UK9diXsTChV4vJrByRVucAzjiOPr82eOpWxcr3XJlAGiV3485FaEQc9979Vq8mIttcUwG5SAh7pzAGinurBXz3XeHDk2b9u67a9e2aPHxxxs2tG//2Wd4DLZqlZExePDixefObdiAvGhDj8o7i6znOB5ymER96pTbPXfujz/m53fr1qYN6s988kleHs8NnAPGGVK3bo0amPpcq1ZeHmY1FBR06NC0KROlmA3POjOJFYIsW7Udy40hDxnZ3zNnMh7JZJIRI5C4wWSSSPl2vkpr5MOJ2nHqFLKFmW3PPF2mwbAeM3OXrZGzyHKQFHdI3MiR5uMT9U+OHz95EjXXZ89G1G7YMEhH//5MYGBeLDsM1BFmnzOCGG25lmj7lmUurakyVnHnREaeGUxAwrfaupUjA9z/1DXqF7eNlcUZOWZ1EVZSp7xaS8vaX9KIsFwmlzNiVRCKFD+R0snoO8svdunSrVvv3oyADhuGSD/SUZYvRxfw/PloKSVO0gZil/9DlLuwkDX7Ga/lseNx7PLryq/ccn4XvsKYN78pO3VIxti4kdnKiZXpLHullJQgaeTyZY7SsAwoUizwfOjRo29fpnJxvoGxbTzKUE92PjGbYfVqJp9AP8NnU0QqNROrOC+F+4GRaUypXLYMBV8zMyNz3O2kxVo/5cABXHfsNDIKzhkCOCONopmxq8pQxzkmwDOKiWr8LK55zLkcLGzKAqOcis3rlFNFeaWw08UJyiwEaZ2Tk1iCn3GfRDcJd8ljx5jIxPkbvHvwc7mqALv3WPBs+fLILP/EZhVK3KtRxN3+EKQdEY89jSPeT4msoIGpJiUliIUj/zI3t7j40KFLl0KhDRuOHQsGsWRPIDBtGmrDswIMW76CaYuo2HrokN+PAoLB4PnzWVmQaNTzRkX2yA6DvUF8e/uwbJyVqs2aIbjYDx7k+qZu9+zZ06e73agb43ZjYqLbPX06FoPCqple788/b9oUCJw9e+oUluPJyUF6kbHt1u6G/WE166tWfUeKCkYdPB6kqOTn//wzqtDMmFFcfPHioEEYgu7UKRQ6c6ZtW2M5p8uXR4wIhTIzUd6xqOjQIRwxRByZilN29MLOkGv49MSyVfndblTG4ZnA2RFU+R9+QD1+TmmdPn3bNr9/2TJMDMR0VUykLSzE3kdt8x07zpwJBLp2nT/f62WmO9OxsD6u280Rnhs3UJjSulUsKYrJeNnZZ85g8t3ZswUFly+jBOjVq5cvFxXduIFJgwUF7LTdKjoYvmfwW5geh8m+ly5x2SZkUa5e7fEsXjxnjts9b96PP7rdCxag47lmzfLlfv/evTt3IhkGhTERv2eCVvi5fOuktVgLfBj1vFmDnOkffOjioZeZGbnyZTSJt1ON2M79gZHa3F/B1ty4QfnmljECat0GI+JuiHvr1oxZskYKFycyOwZc7Covj9Ws2WlhTjAVYc0vrF/P8o5MxuDUNzvx48iMZ5aDjBR3ripqlTBG6JkRjooWFy5wkRdsz7p13LYtv/Dzz9xmZutyb0Qu1GI/6dH6V4zWU5hYN51Z4Zg2u3Ytq5sjW3zlSkZGGf09fx6Kwu5H5JbEG023k34ZLRLJDgOnFbKCEBWWCyphy1Hla9mylSs5XwJJMHv3MlOc5xdHlqLdSxOrvW2ubouJp/gcrLB76hSrpnDsBVnaK1ZQ0Hk24pzGCt44yuyW2InRGmvf4ntwP/Bo8ttxHMC6TJWd/RwN632DdwxOq+XUaqZIlZ8OZ02VadyYWePswPC8su49rgDAax977fRpFv1EOcy1a5cvh6Jz3gIj69wS67oBsedXxD7rrLbAb8R9yEQgiPzx46zChESckyd5VWIPIO0Swm/n7hd7n0vcq2lVGee3TjtZ4PFmz5vqFlko0ayBgEs/OxsKjhsC1BJSjpU1kaKBVxijLSryeqO/T+TE08Qm9Ubfh+ELKZnvyfgESpOhfCWq1yC9IRi8dAmVUSCD1HRWfC/vHcqm6CT+2DPXPS27n5Ah7XKhjCcmLblcp09jj6IujduNhX4Qp2fFd+sge7ziWLbqf7QiiOXdbgsKMO6Ac4BHPxTCY4gjNpFzFYxyk8xl57RUzoJ4440hQ1yuPn0wHRaiHy6g8XWQy3t8Rn/MR24jPxe3dxQ4RZUdTDtGlxPfD4/eyC2K7CDZz1WNHbO0Hw6wn0pn/y7kZGgYqyMaVWWMpXkQcae4M1Um9jejGFHQcTXm5karBW5Hi2OnyjAvFsXkli8PrwNdnoYGAqy5zm2DjKATVf4+sl94wI4c8HVMtXa5oGY5OezKcUuo6dZxj8RkPfaTK7Hoe6TKU5r5LdgdZYcnMkfc/pMuWofNvnjx6FNzGQWnanOd4OirZpYdd3VyBdn5LsmdNBkp7kgHatmS4yGYnrtlS+x34FgWjiVGuHFU0d2MXpbRybw+O3s1crq8nbModpBUk1Ml7nFMIEvsoRtvtmvsSyhaVN5+m1inJfbjLdFvF9+3iXy/5O7VaBIdXkqyvK0qbx/H07ExX7VKL5YtQjwfosqa/Vi6C3MGwjsxsRU/PC7CJa9mzcrI8PuN+kXm+ric+TBmDGoK5eYitma/u2u/i2snrmz3fIieU24/0Su5JDapPbHttKMm8Yh7fIqT2J3Eibjbj7Qlax86nxKX+N0gGZH4W4/uxj8rLBVbG+++TcVTOLE7Rrz+EPsoRE5OZe2XaOJuf+/Zl2Pn967YAc1EnsKxo/4S92qVKmMn5m1numqyTvr4bpRWyQuXs/IFzhrHtTdYnIpHRXl/ZYqvNSUkPPKa/Go/dtN+ytN3M95v1cf4u4WRi3MxPQP55UiFQlx8+PDVq32+r7+eNMnj6dx5wQKv99ixq1cZyYuW5lSe5PJnJFOEQn37Ll3q9ULWUbMI2e0Ud86d4EJd5iiNvdiSnQnf8T9cE+mKxnudxh7Ed5Jcl6yRt0TS7Qyip8ogM5ZT8ex8X/tBkNjbaY2nWlf6NOqKWMW9/PQbO4ISO6HRvjpES4OMnZQSey/FOwJg53xw/u0SG01yEjSxc8dITNkTu8rivWPEF2i71d3Pubjb2WN2uqPxpnQmFqxxUkNJk1MVcbc11TJZEXf7E1Wd62m8t7lot+nEuhbOuzSJ7efE5i04/0Q74xXRt9b8PWaWc0GlRo2mT/d6WaOd2ec1aqCaO1fPPXMGiSPlCXp56VXGHIkFC3bv9vu/+gpTWlF3yFiMifrerRuW9Dp4EOlKZnJSonve+Z60o19OzrrEUhScf5fUiUJk9yNycmrsVJl4r277cTt7EXdsIXKawyPuialDqmPDiUVYY+/DVI8UJeuOl1j6WbK6Acntrif3Wk5sr8bKcae49+hhJ+Ie7x5ORcQ9sSdsYvtQ4q4c95TEEaNFQWJHiVIt7vYfh6kQd/vDarEjCqkW93gHvu0PSpaNlhm/x8xyrHobCKDei1HMEZNHjeW3WEFo5EgU8WQKDTPaMfGUswGwTikmWOXlIRP8xIlr17g+QDDYtOmMGV4vF+TiurkUdyzS5PFMnIiJrfyryJkE9vdA6rTDecQ3sfhlYo+QeK9lJzIUbS8lJu6xc0md35eYd5sKcXfStUtWnDjeLlbsKyjacXFyb3cSw3YSeY33CWInpzlZneFkiXu8T14n4m5H3+1fuYk9HxOLo8drFNGuLIl7NUqVsX8hxb5pxjsUZUcKnUQxnfymk+/iJH/Ribg76QbEu2cSO1L2zzrrvjh8GNNye/VC/LtGDayMyzr9XHiLFdxr1sTrrMSPGjKBAIo8olDlmTNYwfXkyWBw4UIs5oXEGL+/bt2JE40aMqza/uKLSI/B0ktud5s2qN2zfTv+1ppkldiVktwjmNjYkZMRp8R+M9XbnFjWtTVVhhnkrKxsiruRKuP8mrJz77VOoZs3zygH2bGjsTQMamggVWbFitipMqm49hO7gznXX/vPqVR8buqeAk6ey6m4Mzgfl07WEyTas88q7iwHyVr1qNd+q8mpsb0luWdLsj7F/jvEe11I3KtFxN3JdJzYZeDs9EpTl1PrZKqN/Rikk6iVk7h+tE9J7rSYZOWhxh6B4V/yt30+xMt37kTRRio1ZZ0tVsBFHRio/FtvQbsxzRQ13adM8XiQp+7xNGiAnz//HLJeqxaSbbhuLlZdNToAXKKrbl1kz7NwpJnXbhSjjHfkJ/YMiuSmPTifFuY85pTYWJmdq9vJtVx+xH3gQKu4c+XL2OIe7xVkXwQZcTfEHStlWsWdlZ4h7uGTU52nG1XEdPZbRYuTdc9MRbTYScTdeSZ66q5cOzO77NShSlaSm52IO8UdI1EU927dIsXd/mfZv04Tuws5H+eMd1RHEXeJexxJEXZ+J9oQVbQtif2e0Xq30YtIxve58apAKvIR7fTCk9U9sHPbjTclw/5DKPpRKFtnh6kvmzYdPx4Mduu2YIHP9+67I0diHVzku3NNXCa6IB7PdVKximr//kaL32FknZrOv8WEVPx+/fpTpvh8M2dmZAQCmZmo8m49/5x3uuycafF2Su1PdYr9+I99BTlJwLCTGmGnq59YBzJya1lNnIuhMB2FK6FykRQuW2M/fuZkloj1PSnuc+YgWYZrtXItUqhKs2aoib50KeLtzsQ9sQCBk268HbVN7JxJ7LvYmbSaijS2eMdA4j0uid2XkivuTsJY0ayDqyhwUTN2sNmhbdeuQ4cuXTb8urxavIl8qRb3xI5UYmmxsV+RuFejVBk7A3BOBvjsPA4TG4Cu+IGtxB548Q4EV+TAd7L2ofMjG5k2wxbL0BQX79599mwoNGTIypVYN3fqVI/n/fe//97jQRV2t5uxc8i62w19N9oXXkDLWHvNmiNHci1Vj6ddu9mzfb5Fi5D1npNjKrudvZzqlCHnyQ+pSD+rmKH55H4KwSJJ58/Png1FHjNm3LgJE7DG6vffL1iAFRy5pJGdtMDkpgqwgvi2bVh5duJELFY/ahRW58QWTpyIJWSwrFwgEH2F0VTvbed3yGSlnTg5n5Oby+783p7c5/LtfVKkIlWJSyNx2SmuzTx6NK5Zrnd76BCWnUpF6qyTp2Gynnp2jrv9p7DEvYpH3J1EUJwPQSYrKpPY0HBiQ5DxDp/Zids5T42wnyrjJCEnsXhzYkfKWh+GNV5YJnLzZsTgR49et87vb9Hixx89no8+wnRVTDB1uznxlD+/997IkS5X/fqTJ7vdWFbJ70dVmUAAKyFibVisompV9tSdD4kN2ceOF8Ybg0/umExyrynnaR7Rvp2xyA4WrmE8j6uuciEb6wqOiaUoOIlSM+6O5ID8fCykxOV2UP8Ir+M3cNYncx86SQWxswcSS9iLd1QnFSl88UZP4x2TcVKeNbFIdkXeMZJ1pLiwFPXdekXwGuF0befjjYndhxP7lMRwUhJA4l5lI+7OEz/izfp13o9PXQmtZA1KpiJGlbr0m3jj64ntQ6fnWHl1yyncFy9ifdy9e8+fR8V3qDzz1Bcv3rcvEFi2bP/+QGDduiNHAoGMjNOng0HUlikuzsnBOrtl3zOybn08D28n54P9KJ1z7XByXjnP342dopNYLCr2+e98HDLefR7v2W7/Xp3Y0Y927OKN4ybrLuQknh3veZjYU8nOnold3SWxznBie8BJ4lxyI+WJfZfERicSOx8ij52dczVZ6WSJ3THidTmJe7UW99SlW6RaXity+KxiBpdTsW32U6GSm7SQjHcz3jPync3Xo/9O+G8mK50g1UOi9q/cZCUnJHc/pC7xwMkAd0UmbCT3fuUkVc95AkZy71ROPt3JnnEi7k6uUCfbk9gdNRXHKxUJVBV5RTs5T5J7jSeWJCxxV467I8GqyJtIKjIC7bySWBZjYiKS3Jtacm9eFfPAtnvsnLe3ymlO7kyGis/LTJaO2z+Hb69Ap4+gJPcMSZ/OfCruD87zg50IdKq1L94zNrmzDm5vFyt110WycuvT+Y7t5OkscVfEPcGTxv4NOlmP4cQuv2TFopzHb5w80hKT+4qJOqQispXc90xW58d5bCxZRzmxLXR+XiWmoenQUbld0l8xY4wVr+NOhDVZZ4jze29Fji+lQkBv15iA83e7XWGj5BpIvMHB5J4DEneJu8Rd4i5xl7hL3CXuEneJu8Rd4i5xv90JM8kdEnKuAs6TdlKtxU4SZpw//Jy8f3IfY8ndh863KhW3+NQJSsWrWMVIbcXv/+R+RyeyFW+CYrLuXfHen53IqJO7a8VcoRXTPbu9ndLkJgIlN7SU3Dt5cjtUiSWqVUwnPFnpuBJ3IYQQQgghhMRdCCGEEEIIIXEXQgghhBBC4i6EEEIIIYSQuAshhBBCCCEk7kIIIYQQQkjchRBCCCGEEBJ3IYQQQgghJO5CCCGEEEIIibsQQgghhBBC4i6EEEIIIYTEXQghhBBCCCFxF0IIIYQQQkjchRBCCCGEkLgLIYQQQgghJO5CCCGEEEJI3IUQQgghhBASdyGEEEIIIYTEXQghhBBCCIm7EEIIIYQQQuIuhBBCCCGEkLgLIYQQQgghcRdCCCGEEEJI3IUQQgghhBASdyGEEEIIISTuQgghhBBCCIm7EEIIIYQQEnchhBBCCCGExF0IIYQQQgghcRdCCCGEEELiLoQQQgghhJC4CyGEEEIIISTuQgghhBBCSNyFEEIIIYQQEnchhBBCCCEk7kIIIYQQQgiJuxBCCCGEEELiLoQQQgghhMRdCCGEEEIIIXEXQgghhBBCSNyFEEIIIYSQuAshhBBCCCEk7kIIIYQQQgiJuxBCCCGEEBJ3IYQQQgghhMRdCCGEEEIIibsQQgghhBBC4i6EEEIIIYSQuAshhBBCCCFxF0IIIYQQQkjchRBCCCGEEBJ3IYQQQgghJO5CCCGEEEIIibsQQgghhBASdyGEEEIIIYTEXQghhBBCCCFxF0IIIYQQQuIuhBBCCCGEkLgLIYQQQgghJO5CCCGEEEJI3IUQQgghhBASdyGEEEIIIYTEXQghhBBCCIm7EEIIIYQQQuIuhBBCCCGExF0IIYQQQgghcRdCCCGEEEJI3IUQQgghhJC4CyGEEEIIISTuQgghhBBCCIm7EEIIIYQQEnchhBBCCCGExF0IIYQQQgiJuxBCCCGEEELiLoQQQgghhJC4CyGEEEIIIXEXQgghhBBCSNyFEEIIIYQQEnchhBBCCCEk7kIIIYQQQgiJuxBCCCGEEELiLoQQQgghhMRdCCGEEEIIIXEXQgghhBBC4i6EEEIIIYSQuAshhBBCCCEk7kIIIYQQQkjchRBCCCGEEBJ3IYQQQgghhMRdCCGEEEIIibsQQgghhBBC4i6EEEIIIYTEXQghhBBCCCFxF0IIIYQQQkjchRBCCCGEkLgLIYQQQgghJO5CCCGEEEIIW/x//6Ge9MYOoZcAAAAldEVYdGRhdGU6Y3JlYXRlADIwMTctMDEtMTdUMjE6MzU6MTYrMDk6MDAjXBiiAAAAJXRFWHRkYXRlOm1vZGlmeQAyMDE3LTAxLTE3VDIxOjM1OjE2KzA5OjAwUgGgHgAAABd0RVh0cG5nOmJpdC1kZXB0aC13cml0dGVuAAinxCzyAAAAAElFTkSuQmCC;" vertex="1" parent="1">
                    <mxGeometry x="510" y="219" width="137" height="137" as="geometry"/>
                </mxCell>
                <mxCell id="8" value="" style="shape=image;verticalLabelPosition=bottom;labelBackgroundColor=#ffffff;verticalAlign=top;aspect=fixed;imageAspect=0;image=data:image/png,iVBORw0KGgoAAAANSUhEUgAAAgAAAAIACAYAAAD0eNT6AAAABHNCSVQICAgIfAhkiAAAAAlwSFlzAAAQKQAAECkB9XjiDwAAABl0RVh0U29mdHdhcmUAd3d3Lmlua3NjYXBlLm9yZ5vuPBoAACAASURBVHic7d13uCVVlbDxt3M3NLmbDAKi0kQRRaIJRUVFxIQYEB1zxBnTZ0AdVBidkWGcMcyo6GAWHcEEGEYcQRAJkkRaBFFSk2mgc39/rNt0uOmcc6tqVXh/z7OeCw19zzq76uy9TtWuvUGSJEmSJEmSJEmSJEmSJEmSJDXDpOwEJPVtE2BLYANg5lDMGuGfR/qzdf8ZYNFQPNjHP6/5Z/cBtwB3lfaOJRXOAkCqh5nEoL5mbDXCn20JTE/KcTxLiEJg3bh5hD9blJSjpCEWAFI1NgDmAbsO/dyetQf5jfJSS3EPaxcHfwGuBq4a+nlfXmpSN1gASMXajNWD/K5r/PO2mUk10F9ZXRBctcY/35GZlNQmFgDSYLZm7YF+1c+5mUl1wALWLghW/bwpMympiSwApPHNBh4PHDgU+wIbp2akdd0NXAj8eiguABamZiTVnAWANNy2rB7sDwT2AqakZqR+LQcuY3VB8GvitoKkIRYA6rrJwJ6sPeBvn5qRyvIXVhcD/wdcDqxIzUhKZAGgrpkFHMDqwX5/Yoa+uuc+4HxWFwXnEesbSJ1gAaAu2Bx4NnA48DRgvdx0VFMPAOcAZwA/AG7LTUcqlwWA2moeMeA/l5jANzk3HTXMCmIi4feJguDq3HSk4lkAqC2mAAcRg/7hwM656ahl5hOFwBnE/IHluelIE2cBoCbbAHgGMeAfBmyam4464k7gR0Qx8BNctVANZQGgppkLvJAY9J9MfdfFVzcsAX5BFAPfJhYqkiQVZCpxL/97RIe70jBqGEuIc/S5xDkr1ZpXAFRnewDHAi8lZvJLTXEb8FXgS8R6A1LtWACobjYFjgZeCeyTm4pUiN8BpwJfI+YPSLVgAaA6mAI8nRj0DwdmpGYjlWMxMVfgVOAsfJJAySwAlGkXYtB/BbBVbipSpW4GvkIUA3/ITUVdZQGgqs0AXgb8HbBfci5SHfwG+C/gNOIqgVQJCwBVZWPgDcBbgS2Tc5Hq6BbgFOAzxPbGUqksAFS27YC3A68FZifnIjXBQuDzwMnAjcm5SFLf9iDucfrcvmEMFkuIz9AeSFIDPJlYJjW78zSMNsWPiM+WJNXKFGJ53t+S31EaRpvjt8RnbQrSBDkHQBMxi1ip7x3Aw5NzkbrkT8C/ECsNPpicixrKAkCD2ICY2PcWYnMeSTkWAP9GTBh0V0JJpZkGvBm4lfxLoYZhrI5bic/mNCSpQJOAo4D55Hd0hmGMHvOJz6pXdyVN2CHAReR3bIZh9B4XEZ9daVRWiRrN3sCJwKHZiUga2NnAe4BLshNR/UzOTkC1syOxj/nvcPCXmu5Q4rP8VeKzLT3EKwBaZQ7wfmK9/unJuUgq3hJin4ETgNuTc1ENuJiE1gfeDXwTeCKeE1JbTSF24Hw9MJW4MrA0NSOl8gpAd00ituT9CO7OJ3XRLcAHia2IVybnogQWAN20O/A54IDsRCSlOw94HXBFdiKqlpd7u2UW8Y3/y8AOualIqontgNcQ/cN5wLLcdFQVrwB0x6HEBKCdshORVFvXEROBz85OROXzMcD225x4BOgsHPwljW0noq/4KtF3qMW8BdBeqyb5fR/YNzkXSc2yB9F/3IGLCLWWtwDaaR4xye/g7EQkNd6viEmCV2cnomJ5BaBdZgLHA/+Nl/slFeNhxCTBGcD5OEmwNbwC0B6HEJP8HpGdiKTWupaYJPiz7EQ0cU4CbL6Nicf6foqDv6RyPYLoa75M9D1qMK8ANNvBwGnA9tmJSOqcvwAvI+YIqIGcA9BMU4EPAV8ANslNRVJHbQS8guiPfgWsyE1H/fIKQPPsRDyju192IpI05DfAS4mFhNQQzgFolpcBl+LgL6le9iP6ppdlJ6LeeQWgGTYkZvgfnZ2IJI3ja8STAvdmJ6KxWQDU3wHEJf8dkvOQpF5dT9wSOC85D43BSYD1NQX4AHAqsGluKpLUl42BVw798/8BK/NS0Wi8AlBPDyO+9R+YnYgkTdCviasBN2QnorU5CbB+jgIuw8FfUjscSPRpR2UnorVZANTHdOA/ga8Tz9dKUltsRPRt/0n0daoBbwHUwxbAd4kJf5LUZr8GjgRuy06k6ywA8j0G+B9gu+xEJKkiNwLPBS7JTqTLvAWQ68XEDFkHf0ldsh3R970wO5Eu8zHAHJOAE4BTgGnJuUhShmnAC4hx6H9zU+kmbwFUbwNiB7/DsxORpJr4HvBy4P7sRLrEAqBaOwFnALtlJyJJNfN7Yl7A9cl5dIZzAKrzFOBCHPwlaSR7Ar8FnpCdSFc4B6AabyJW9pudnYgk1dh6xI6CtwK/S86l9SwAyjUN+Cyxpr9XWyRpfFOA5wBzgbOBFbnptJdzAMozh1jc5+DsRCSpoX5OPClwV3YibWQBUI5tgXOAXbITkaSGuwJ4GnBLdiJtYwFQvJ2BnxI7+kmSJu5PwFPxCYFCeV+6WHsSq1s5+EtScR5O9K3zshNpEwuA4uxHrGa1RXIektRG2wDnAvtkJ9IWFgDFeCpx2X+T7EQkqcXmEBMDXSugABYAE3cE8ANg/exEJKkDNgR+AhyWnUjTWQBMzCuA7wAzshORpA6ZRWyj/uLsRJrMhYAG92bgc1hESVKGKcCRwM3Axcm5NJIFwGDeD3wCH6OUpEyTiFUDHwDOS86lcSwA+vdJ4H3ZSUiSHvI0YDoxQVA9sgDo3WTg88Slf0lSvRxM7B/w4+xEmsICoDeTgC8Cr8pORJI0qn2BLYknszQOC4DefAp4fXYSkqRxPZbYVvin2YnUnQXA+I4H3pOdhCSpZwcCS4jlgzUKC4CxvQ04MTsJSVLfDgFuAy7KTqSuLABGdwzwGXzUT5Ka6jBgPnB5diJ15OA2sucB38YCSZKabhmxYNCZ2YnUjQXAcE8lZpC6vK8ktcMi4mrAL7ITqRMLgLXtR8wcdWMfSWqXhcS8gAuzE6kLC4DV9gB+iVv6SlJb3Qk8EbgiO5E6sAAIDyceF9kyOxFJUqluBg4CrstOJJsFAGxDDP47JOchSarGn4ki4KbsRDJ1fSvbzYCzcfCXpC7ZETiHGAM6q8sFwAzisZBdsxORJFVuV2IM6OwTX11+zv2/iH2kJUndtB2wLfD97EQydLUAeAfw7uwkJEnpHg3cB5yfnUjVujgJ8OnAD+lu8SNJWtty4FnAWdmJVKlrBcAjgQuAjbMTkSTVyt3A44E/ZidSlS5NAtwYOAMHf0nScJ0bI7pSAEwBvgE8KjsRSVJtPYoYKzpxi7gTbxL4JPDy7CQkSbW3MzCbWCOm1bpQALwSOCk7CUlSY+wP3ABcmp1Imdo+CXB/YvvHzi70IEkayGLgybT48cA2FwDbAr/FDX4kSYO5BXgc8NfsRMrQ1kmAs4iVnRz8JUmD2pIYS2ZlJ1KGthYAXwIek52EJKnxHkOMKa3TxkmAbwTelZ2EJKk1dgcWELeVW6NtcwB2Iw5QKy/XSJLSPEjMB7gyO5GitOkWwAzgazj4S5KKN4sYY1rzVFmbbgH8M/Dc7CQkSa21BbAB8JPsRIrQllsAzyR2+GvL+5Ek1dNKYufAH2cnMlFtGDA3By4f+qmx3Qb8YSj+SNwC2hTYbOjnqn/eZuinpOa7F/gd8Bdi3/tVsXDo50xiktvuwB5EP6Cx3Ua01W3ZiUxEGwqAHxFXADS6o4lq9e4+/s4jgAPXiF1ox/kitdkS4PfAhWvEH4hvrb3aGvg48IrCs2uXHwOHZScxEU3v0N8K/Gt2EjV3A7Aj/XUAI9kUOGAongHsPcHfJ6kYfwFOB75LPAW1uIDfuS9wQQG/p+3eBpySncSgmlwA7ElUt62ZkVmSk4D3lPB7HwUcBbwEt1mWqvYnYtD/DuU9m/5H4kqgRreYKJZ+n51Il8wEriC+1Rpjx6MHbON+7E0UGjckvD/D6EpcA5xANZ9pgA+V/H7aElcQY5Iq8u/kH/QmxNWDNvCAJhHzBf4NuGOCuRuGAcuIb/pPonqP6DPXLse/D9jG6tNzyD/YTYnjB2zjIswCXgVcMkJehmGMHQuAjwHbkesC8tuiKfGcAdtYPdqS+GBkH+imRF3uzR8IfIOYoZzdJoZR5/gd8Erqc0n5reS3SVNiAe5AW6ofk3+QmxIXD9jGZdoa+DBwM/ntYxh1iSXEErMHUD9bELchstuoKdH4xYHq6mjyD26Tos47Ik4njuf55LeTYWTFzcREu62ot5+Q31ZNiqMHa2aNZhPgVvIPbJPiYQO1dPX2AU4FFpHfZoZRRZxHDBLTaIZjyG+zJsWtxJilgvwn+Qe1SfGHwZo51RzgvcSiJtntZxhFxyKi0N2H5tkCWEF+GzYp/nOgltYwB+PJ1298eqCWrocpwJHAueS3o2FMNJYDX6E5V+RGcyn5bdmkWEGMXZqA6cCV5B/MpsURgzR2DT0V+A357WkYg8SPgb1oh0+Q355NiyuJMUwDej/5B7FpsQzYaJDGrrFn43oCRnPiIuAptMvTyG/XJsb7B2lsxSpUD5J/AJsWvxmksRtgEvBC4Cry29gwRor5wItp9h4ro5mJ/fEg8SA13k9hcnYCY/gM9VkMo0l+mp1ASVYC3yb2LH8FcF1uOtJDFhAL5swDvkmcq22ziJiXo/7MJMYy9eHl5FduTY0n9d/cjTQVeC0+NWDkxULgI8AGdMM/kN/mTY2XD9DenbQZLvc7aNxP9yadzCD25L6L/PZvSiwnzpXbh+L+oT/LzqspsRT4LN1b9nVP8tu+qbGAGNtqpY73qr4IHJudREOdAxyanUSSLYFTiHkCbbQUuAW4aShuHoqFxH3GVbFonX8f6c+WjPIa04lNnFbFzHX+faQ/m02sZLcVsdTz1sSxaMoiN/06E3gnsTVvF90KbJ6dREN9idggrTbqVgA8Efjf7CQa7CTgPdlJJHs28B/k76LWq2VEp7rmwH7TOnEzq6+KNcEkYC5rFwWrYs0/24K4ldMENxH3+U/PTiTZj4BnZifRYE8CfpmdRB3NIFawy75U0+R4ad+t3k6zgX+lXpe17wZ+DXyeGEgOIQbBOk/ELdtkog0OIdrk80Qb3U3+8VoVK4iCsm2P1g7q4+QfkybHH4ixTus4nvyD0/TYo+9Wb7d9gcuo9hjcR+yh/kXgHcDTgW3LfqMttC3Rdu8g2vICom2rPJZXUM8d+jIdRX4/1/Q4vu9WL0ldbgFsDVwLrJedSIMtJb75jnZ/t6umErOXP0jcsy7KCmKAuGzo55VDcQPxIVfxJhFL6u42FLsTK+3tTrFXUhYBHyVuqS0t8Pe2wTxiLQ4N7gFgZ+LWnohLf9lVWdPj8r5bvVseTqyRMGj7LiW+hX6CmGewcbXpawwbE8fkE8QxWsrgx/nnwCOrTb9RpuCCQEXE5/pt+LaaR0yEyj4gTY+v9dvwHXUM8ejbeO25GPgV8U3wUOLqipphNnHMPkocw8WMf7zvwKePevVb8vu7pscyYJd+G76N/of8g9GGeG+/Dd9hc4HTWLv97gd+RtwqeBKuQtkmM4lj+kHiGN/P2sf+q8Q5od78F/n9XRviu/02fNscSP5BaEs8q8+2V0wyew8x0autz61ruGnEMX8PcQ6oP28hv79rS+zfZ9u3yq/JPwBtiR37bHtJGsRTyO/v2hKp+ytkPoN8BD5iU6RbsxOQ1AnOXi/OwcQE1hRZjwFOIR6dchJEMe7HSWqSqrEpMWlSxbiS2GdhRdUvnHUF4NU4+BdpQXYCkjrjLmIWu4qxG/F0UuUyrgCsB8wn1gRXMX5LrHonSVW4CfvwIv0VeASxCFVlMq4AHIcnTtFuy05AUqfY5xRrW+LpikpVXQDMAd5V8Wt2gbcAJFXJScfFey+wSZUvWHUB8AFgw4pfswssACRVySsAxduEihd0q7IA2Al4fYWv1yV+GCVVyT6nHG8BtqvqxaosAP4RmF7h63XJ/dkJSOqUhdkJtNRM4ENVvVhVBcCOwIsreq0umpqdgKROmZKdQIu9nJgUWLqqCoB34AlTJgsASVXKXEW27aYBb6vihao4iJsBr6rgdbrMAkBSlfxCV67XAhuV/SJVFABvIhb/UXn8MEqqkn1OuTYEXlf2i5RdAMwC3lzya8grAJKqZQFQvrdR8sT5sguAY4C5Jb+GLAAkVcsCoHxbA0eX+QJlFgCTgb8v8fdrNQsASVWyAKjGP1Dinj1lFgDPA3Yu8fdrtZnZCUjqFNd0qcZuwGFl/fIyC4B3lvi7tbZKnhmVpCHbZCfQIaWNpWUVAAcDjy/pd2u4h2UnIKlTKluuVjwReFwZv7isAsBv/9XaITsBSZ2yfXYCHVPKmFrG5IJ5wJUl/W6NbCXxyOXi7EQktd6GwD3ZSXTMcuBRwJ+K/KVlXAEoddaiRjQJK3JJ1bCvqd4UYkn9QhVdAGwFvKzg36ne7JCdgKRO8P5/jmOBOUX+wqILgLfi4yFZnAgoqQoWADlmEUvrF6bIAmAa8OoCf5/6s2N2ApI6YYfsBDrsNRS4CFORBcCzcNnfTPtmJyCpE0p5JE092QZ4WlG/rMgCwC1/cz0el+eUVK4puMZLtsLG2qJm628B/BXXpM+2N3BpdhKSWuvRwCXZSXTcYmKjoDsn+ouKugLwchz86+CA7AQktZp9TL4ZFLRLYFEFwLEF/R5NjB9OSWWyj6mHQsbcIgqAfYFdC/g9mrgDsxOQ1Gr2MfXwGGDPif6SIgoAv/3Xxw7EYkySVLSt8BHAOpnw2DvRAmAm8JKJJqFCPSE7AUmtZN9SLy8j1t8Z2EQLgCOBjSb4O1Ss52cnIKmV7FvqZQ7wnIn8gokWAF7+r59nA7Ozk5DUKrOJvkX1MqExeCIFwPbAUyby4irFLOC52UlIapXnEn2L6uUZwJaD/uWJFADHTPDvqzzOy5BUJPuUeppKrMMzkEFXApwEzAd2GvSFVaqlRFU44ZWiJHXepsAtTHDCmUpzNQM+ij/oN/gn4OBfZ9Nwwo6kYjwfB/86m8eA+zMMWgC8YsC/p+oclZ2ApFawL6m/gcbkQQqAyUzw0QNVwp0BJRXBvqT+Bpr4PUgBsB8wd5AXU2X+hLcAJBXjBcB12UloTNsA+/T7lwYpAPz2X293Ac8C7shORFIr3E70KXdnJ6IxHd7vXxikAOj7RVSZpUS1fk12IpJa5Q/AC4Fl2YloVKWPzTsBK43axqtHP3SSNGGvJ7+fM0aP7UY/dMP1ewXAy//19U/AF7KTkNRqnwVOzk5Coyr1KsDPyK9wjOHxXQZf1EmS+jEZ+AH5/Z4xPM4a47gN08+gsRGwABeEqJvLgAOAB7ITkdQZs4ELGHAFOpVmCbFL4H29/M/93AJ4Jg7+dbMIOBoHf0nVWgi8lBhwVB/Tgaf3+j/3UwB4/79+3g1clZ2EpE66FPhAdhIapud5AL3eApgK3AZsMlA6KsM5RKW3MjsRSZ01GfgFsT+M6uFOYHNg+Xj/Y69XAA7Cwb9O7gReiYO/pFwriHXo78lORA/ZFDiwl/+x1wLAxX/q5XXATdlJSBJwA/Dm7CS0lkLH7GvJf7zBiPjyOMdKkjJ8k/z+0Yj44zjHCuhtDsA8nGhWF9cDewH3JuchSevaBLic2JhG+eYRSziPqpdbAM8sJhcV4HU4+Euqp7uAN2YnoYccNt7/0EsBcFABiWjifgScnZ2EJI3hDODn2UkI6GHs7uUWwK3EIwXKswzYE7g6OxFJGsdewMUMttusinMbsMVY/8N4B2hnHPzr4PM4+EtqhsuAU7OTEJsTY/ioxisAenqWUKW6Bzg+OwlJ6sP7iOWClWvMMXy8AsD7//lOAG7PTkKS+nALcFJ2Ehp7DB9vDsBVxKMEynEd0f5uuCGpaWYB1wDbZSfSYVczxo6NY10B2BTYpfB01I934eAvqZkeBN6bnUTH7UKM5SMaqwA4gN43C1LxLgZOz05Ckibga8AV2Ul02CRiLB/RWAWAEwBzfSo7AUmaoJXAydlJdNyoY/lYBYATAPPcTKyrLUlN91VgQXYSHTbqWD5aATAdeGw5uagH/wEszU5CkgqwiOjTlOOxxJg+zGgFwD7AzNLS0VgWAZ/NTkKSCvQZYHF2Eh01kxjThxmtAPD+f57T8Ll/Se1yKzEhUDlGHNMtAOrHCTOS2siJzXksABrgHODK7CQkqQSXAz/NTqKjei4AdgbmlpuLRnFKdgKSVCL7uBxzGWFjoJEKgN3Lz0UjuAs4KzsJSSrRT4i+TtUbNraPVAC49n+O7+Ojf5LabSnR16l6w8b2kQqAUTcOUKm+k52AJFXAvi7HsLHdKwD1cA8xAVCS2u4cos9Ttca9AjAJdwDMcCbu+iepG5YQfZ6qtQvrbPC3bgGwPbB+ZeloFS+JSeoS+7zqrU+M8Q9ZtwDw/n/17sPZ/5K65Syi71O11hrjLQDy/YBY/1+SumIR0fepWmMWAE4ArN4Z2QlIUgL7vuqtNcZ7BSDfr7MTkKQE9n3VW2uMn7TOf7wL2Li6XDrvr8B22UlIUpIbgW2zk+iQu4FNVv3LmlcAtsLBv2rnZScgSYnsA6u1MTHWA2sXAN7/r9752QlIUiL7wOo9NNavWQB4/796Vr+Susw+sHoPjfVeAcizCLgkOwlJSnQJPgZdNa8A1MBFuPufpG5bSvSFqs6IVwB2Skiky7z0JUn2hVV7aKxfswDYMiGRLrswOwFJqgH7wmo9NNavKgA2A6bn5NJZ12YnIEk1MD87gY6ZToz5DxUAfvuv3p+zE5CkGrAvrN6WsLoA2GqM/1HFux13wpIkgHuBO7OT6JitwAIgy3XZCUhSjVyfnUDHrFUAeAugWl7ykqTV7BOr5S2ARF4BkKTVLACq5RWARBYAkrSaBUC1vAKQyJNdkla7PjuBjnESYCKvAEjSan4pqpa3ABLdlp2AJNXIrdkJdMyWAJOAWcADubl0ykpgytBPSRLMwF0Bq7beZPz2X7VFOPhL0poWA8uyk+iYLSfj/f+q3Z+dgCTVkH1jtbayAKieJ7kkDWffWK2tvAVQPedbSNJwC7MT6JgtJwMbZ2fRMVa5kjScfWO1Np4MzMzOomO8AiBJw1kAVGumBUD1PMklaThvAVTLAiCBVwAkaTi/HFXLAkCSpA6yAEhge0vScPaN1bIASDArOwFJqiH7xmpZACSwvSVpOPvGalkAJLC9JWk4+8ZqzZxM7MKk6niSS9Jw9o3VmuEVgOrZ3pI0nH1jtbwFkMD2lqTh7BurZQGQwJmukjScY1G1LAAS2N6SNJx9Y7UsABI46VKShnMsqpYFQILJwPTsJCSpRqYTfaOqYwGQxDaXpNXsE6s3czIwJTuLDnIioCStZp9YvSmTgQezs+igzbMTkKQamZudQAc9YAGQY6vsBCSpRuwTq/fgZOCB7Cw6aOvsBCSpRuwTq+cVgCRWu5K0mn1i9SwAkniyS9JqXgGonrcAkniyS9JqfimqnlcAkniyS9Jq9onVswBI4skuSat5VbR6D1oA5LAAkKTV7BOr94BzAHLMBDbJTkKSamBjXAo4g7cAElnxSpKX/7N4CyCRJ70k+WUoi7cAEm2TnYAk1YB9YQ5vASSal52AJNWAfWEObwEk2iM7AUmqAfvCHN4CSLRndgKSVAO7ZyfQUd4CSLQt8fiLJHXVhsDDspPoKAuAZF76ktRlfvvP4xyAZBYAkrrMPjCPcwCSefJL6jL7wDwPTAYWZGfRYZ78krrMPjDPgknEmvR3ZmfSUffgREBJ3XUHsGl2Eh21/mTgLmBhdiYdtRGwfXYSkpRgGxz8s9zB0C0AgBszM+k4L4FJ6iKfAMhzI8CqAuAviYl03V7ZCUhSAhdDy7NWAeAVgDxPzE5AkhIcnJ1Ah1kA1MTBwIzsJCSpQlOBJ2Un0WHeAqiJWcCB2UlIUoX2BTbITqLDvAJQI0/NTkCSKnRIdgId5xWAGrEAkNQl9nm5bgSYNPQvs3BJ4EwrgDnEmgyS1GbrE4vPTc9OpKNWAjOBJauuADyISwJnmgw8JTsJSarAwTj4Z7oVWAKrbwGA8wCyeUlMUhfY1+V6aKy3AKgPPxSSusC+LteIBYATAXPtDOyQnYQklWgurgCYzSsANWVlLKnNnsLqyefK4RWAmnpedgKSVKLnZCcgrwDU1aHEJTJJapv1gCOyk5AFQF1NBV6UnYQkleC5xBoAyjViAXATsLz6XLSOl2YnIEklODo7AbEcuHnVv0xe5z/MrzwdrWt/YMfsJCSpQJsBT89OQsxnjS/6k9f5jxdXm4tGYaUsqU1eAEzLTkJrj/HrFgCXVJiIRudtAElt4peaelhrjPcKQD3NA/bOTkKSCrAdsf6/8o15BcACoD68CiCpDV6Ci//UxZgFwF3A9ZWlorEcxfDjI0lN4+X/eriedbacH2mA8SpAPWxDLAwkSU21J7BXdhICRhjbLQDq7bjsBCRpAuzD6qOnAsAnAerjUGD37CQkaQBb4eX/Ohk2tnsFoP6soCU10VuA6dlJ6CHDxvbRZmbeRFRvyrcY2B64LTsRSerR+sSa85tkJyIglv/det0/HG2WuVcB6mMG8MbsJCSpD6/Cwb9ORhzTLQCa4Y3AzOwkJKkHU4C3ZyehtfRVADgRsF7mAi/LTkKSevA8YKfsJLSWEcf00eYAPAwXBKqbq4gnAlZmJyJJYzgf2C87Ca1lB+CGdf9wtCsANwB3lpmN+rYrcFh2EpI0hoNw8K+bOxlh8Iexl5p1HkD9nETcX5OkOjoxOwENM+pYbgHQLLsBr8lOQpJG8ELgwOwkNMxABYATAevpw8CG2UlI0hpmAP+UnYRGNOpYPlYBcFEJiWjiNgf+X3YSkrSGtxMTzVQ/o47l4+3RfAOxCp3qZTGwCz6pISnf5sB8YIPsRDTMX4in+kY03n7zPyk2FxVkBk62kVQP/4iDf12NOYaPVwCcVWAiKtaLgf2zk5DUaXsAr85OQqMaswAY7xbAhsAdwNTC0lGRfkPMul2RnYikTjoHeGp2fRM5ZAAAGCFJREFUEhrRMmAz4N7R/ofxrgDcS6zqpHraD/j77CQkddKrcPCvs/MZY/CH8QsA8DZA3Z0A7J2dhKROeRRwSnYSGtO4c/h6KQCcCFhv04GvArOyE5HUCdOBrwPrZyeiMRVSAFwMLJh4LirRPOCfs5OQ1Akn4lXHuruNHhbz66UAWAmcPeF0VLY3AM/OTkJSqz2DWPRH9XY2Pewc20sBAN4GaIovAFtkJyGplbYAvsz4T48pX09jdq8FQE/VhNJtDnwxOwlJrTOJGPw3z05E4+r5qn2vBUBP9xNUC4cBH8tOQlKrfBR4enYS6snv6HHeXq8FAHgboEneC7w+OwlJrfA2ok9RM5Ty6P7BxKUFoxmxDHjOiEdSknpzNLHSaHZ/ZvQeB414JEfQz2SOqcSywO5F3xwPAE8GLsxORFLjPB04E5iWnYh6dg8wh/gCOK5+bgEsA342SEZKsx7wA+Dh2YlIapR9gdNx8G+an9Lj4A/9FQDgPIAmmksctznZiUhqhF2AH+FKf03U1xjdbwHgvgDNtDPwY2JnKEkazc5EP29f0Ux9jdH9FgA3AFf3+XdUD48FfgVsl52IpFp6LHAesH12IhrIlcCN/fyFfgsAgG8M8HdUD/OAXxOX+CRplUOBXxC3DNVMX6viRXbAx0KaHrcTk3wk6WhgCfn9kjF4rKDCKze/rOANGeXGfcDT1j2wkjrlHfiFrg0x0BN6g9wCgFgTWs02m3hE8EXZiUiq3CTgE8Q24m7u03yVjskbEIvMZFc9xsRjOfABBi8GJTXLhsC3ye97jGLiPgZ8ZHPQTv8+4HsD/l3Vy2TgI8Tzo+70JbXbY4CLgRdkJ6LCnA7cP8hfnMi3Pm8DtMvTgEuBJ2YnIqkUbyIe83Nl0Hb5SsaLTgb+Rv7lD6PYWAa8D+8LSm2xEV7yb2vcwAT66olcAVgBnDaBv696mgKcQKwc6DPBUrM9Fi/5t9l/E4VAit3Ir4CM8uJvxI5gkpplCvAPwGLy+xGjvHgkyS4ivxGMcuObwFZIaoL9ifk82f2GUW6cxwQV8ehXygQEVepFwB+ISUQ+LijV06bA54nlvvdKzkXlq8XYOweXkexSXEg8SiSpHiYBrwQWkN8/GNXEImBjJqiIb3O3ExPG1A2PI4qAk4kFoSTl2Y1Ymv1LxJcxdcMZwN3ZSaxyJPkVkVF9/BX4O2Aqkqq0BXAKsJT8fsCoPp5FjUwH7iC/UYyc+CPwElw7QCrbJsDHiZXfsj/3Rk7cQkFfuoqa0LUE+EZBv0vN8whiL+pLgcOTc5HaaDbwfuDPwHuA9XLTUaKvEgu21cq+5FdGRj3iN8AhSJqomcBxwG3kf66NekRtn/C4jPzGMeoTPweeiqR+rQe8GbiR/M+xUZ+4gBo7mvwGqiqWEo9iZOfRhLgUeDkwDUlj2RL4KM6pMkaO51OgoidtTQWuBXYo+PdmuRY4k/gmeztwD3Dv0M/7ifbbhliO8VHr/NwJJ8Wt62/EzOXPU6NHWKQa2B14B/BSYlK1tK5rgV2IfXhq683kV0kTjc8RA/lEPAx4L3BFDd5P3eI+Yh2BHQZtXKklnkqso5L9mTTqH6+hAWbR7Akr/1R8k/Bo4BPEc/PZ769OsYzo/F4EzBi4daVm2Rp4N7G8dvZn0GhG3EyD+sgPkN9gg8SdZTTGGiYDTyEemVuR/F7rFncAnwb2Gbh1pfqaTmzJ+0Oi8M3+vBnNinfTIJsSl3mzG63feLCMxhjFfsBvS3ofTY/fE48+zR24daV62JuY93I7+Z8ro5lxD7ARDfMv5DfcILFnGY0xisnAq4FbS3gfbYhlwLnAO4nJL1LdTSOu8n0K+BP5nyGj+XESDbQtzdwl8AKq3/J2I6LDcF3vseOPwD8DT8L9B1QfmxCPQH+deLol+3NitCcWA1vRUKeS34CDxNtLaIte7Aqc02OOXY87gdOJqwMH49Koqs5WwBHAicQVKgt3o6z4L0pU9nPquxKPwTXtefj7iedyr096/ecRt1B2SHr9JloGXE5cwfnNUPyR+BBJg5pJTEx9PDFv5/HA9qkZqStWEGPoNWW9QBUD8/dp5gYxZwHPSHz9DYEvEDOHNZi7iYJgVVFwAeU/6aFmewRrD/Z74QqWyvE94MgyX6CKAmB/4LwKXqcMnwfeQO7KS28n1iawEyrGtawuBi4e+vfbUzNShinAdsTk0n2JAX9fYLPMpKQ17EfJa/9XdWn+XOI+bRN9h1iec0liDgcA3yQmVqp49wLziVnb6/78G95GaKoZwI7Aw4Gd1/m5IxbVqq9fEpOdS1VVAfAs4AcVvVYZfkrcl1+YmMNc4LvAQYk5dNEi4DpGLhBuoIb7cnfMbIYP7qt+bkv1T/RIRTiMWCW1FSYRi7tkz6icSFwIzCm6Yfq0Hj4lUKdYSpwXjVukowWeQCyPmn0OGEbRcRkt9DLyG3ai8Rei48k0k7iakt0WBjxAzHFRjtfiktpG++KltNBU4rG67MadaCwHPk7uc+fTiLkJ2W3R5VgGPHu8A6XSvQaLAKM9cT0tXuTsdeQ3cFHxN+BY8u4xTiEmBma3Q1fjVeMfIlXk1VgEGO2I19FiU4jFWrIbuci4jLyJeTOAX/eQo1FsvK+Xg6NKvY3888IwJhKXE2Nkqx1KfkMXHUuBfyiykfowF/hzDzkaxcSnezssSvAN8s8Pwxg0DqUjfkh+Y5cR3wE2KLCderUbsWVk9vtve3wbHyurs9nA1eSfJ4bRb/yQDplHezfQ+AOxyEjVnkFMTMt+/22Nm4jlmVVvuxHrdWSfL4bRaywlxsTKZd1vuB3YnFh6s23mEOs3n0m1687PH/r55Apfs0veAFyUnYTGtYB4XLfUNdSlAv0H8JXsJKq2GXAX+dVXWfE3Yp3xKk0FLikgd2Pt+GU/B0G10NbbjEa74i46vP/EceQfgDLjFmJb4SrtRexbkP3e2xJLgT36OgKqg0cAi8k/fwxjrDiODptG7MaWfRDKjJuAbYpqsB59qIC8jYiT+2t61cjHyT9/DGO0uBY3pOII8g9E2XEx1a4cOI1YnyD7fTc9bsGJf022PvBX8s8jwxgpjkAA/Jz8g1F2fJfqdl8E2AefCphovLzvVlfdHE3+eWQY68bP0UMeTayxn31Qyo6PFdVgPfpUgbl3Lf5vgPZW/UwiHs3NPp8MY1UsJ8Y8reEL5B+YKuL5RTVYD2YTj0Rlv+cmxvMGaG/V05vIP58MY1V8gZqo8pL0eLYkJkXMzk6kZHcQs8pvruj1Dge+X9FrtcXtwNbEEwBqvtnEXICNshNR5y0knlC5JTsRqNeyprcAJ2YnUYHNgC9W+HpnAN+r8PXa4Os4+LfJQqr9zEmjOZGaDP51NBO4gfxLNFXEGwtqs15sA9xb0vtoYzxmsGZWje1EN+YZGfWNG4gxTmN4CfkHqoq4H3hUQW3WC++D9haXD9rAqj1XBzQy4yVoXJOA88k/WFXEhcTyvVX5Vknvo02Rta2zyncs+eeX0c04n3rNuau13YBF5B+0KuLDBbVZL9YHrijpfbQhlhGTUdVOm+NtAKP6WESMaerDu8g/cFXEMuDxBbVZL3am3ZswTSQ6tSd3R51H/nlmdCvehfo2me58WP9IfDuvyrOAFSW8j6bHCyfSqGqE95B/nhndifOo19N2jfJI4AHyD2IVcVJBbdarDxaYextiOe1fg0JxKTb7XDO6EQ8QY5gm4G3kH8iqTpYqdw2cBJxWwvtoalw5seZUg1xH/vlmtD/eRs014dLEKcAvs5OowCzg+ApfbyVwDPDVCl+zzn6XnYAq4z4PKtsvibGr1ppQAKwkHt9ZmJ1IBY6l2ktGy7EIWOWi7ARUmd9mJ6BWW8jqR05rrQkFAMCfgXdmJ1GBqcAJFb+mRUCwAOgOj7XK9E5izFLBzib/vk7ZsQLYp6gG68MUujsnYBmw3sSbUA0xi9jrIfu8M9oXZ6PSbAfcTf5BbutJNAX4GN17RNDlf7vnUvLPO6NdcTcxRjVGU24BrHIjcFx2EhV4GvCUhNddDvw/4DnEYkFd4SXh7vGYq2jHEWNUYzStAAD4Et1Ysa3KJYLX9UNiR7yudJI+AdA9F2cnoFb5ITE2NUoTCwCA1wB3ZidRsoPImQuwyvVDOXw2MYeqdKXQ0Wo3ZCeg1riTGJMap6kFwM3AW7KTqED2QhKLgTcQSwdfk5xLWS4CLstOQpVr1KVa1dpbiDFJFTud/IkfZcZi6rM73TTg7bRjI6F7iSsbexfaQmqSTck/D43mx+kozVzgNvJPgjIjcy7ASOYAnyEenctum37jIuJSnWv+C+B+8s9Jo7lxGzEGKdGR5J8IZcatwIzCWqs4uxLfou8jv43GiquAk8mdT6F6uob889NobhyJauFk8k+GMuOY4pqqcBsCbyI208lup5VEwfRV4JVUu7mSmuen5J+vRjPjZFQbU4FzyT8pyopLimuqUj0R+HfgCqpZTOhe4nGubxHLbz6a2OVQ6sWp5H+2jebFucSY03ht6iy3IAaDrbMTKcnBNGsXsznAE4iiYH/iuMyht9sZK4jtkVfFXcB84Np1ft5SeNbqklPoxtNEKs5NxBopt2YnUoRWVDFDbgVeAPwvMD03lVK8iWYVALcD3x2KNW1AFAJziCcLHhghFlWXpjrswewE1ChLiDGmFYN/W72B/EtEZcQS6vNIoNQGHyb/c200J95AyzR1IaCxfAb4cnYSJZgGvDY7CalFvNKkXn2ZGFtapY0FAMDraeda36+jXbdtpEwWAOrFxcSY0jptLQAWEc9o3pGdSMG2Bp6XnYTUEhYAGs8dxFjSynOlrQUAxGYfLyFmlLfJh4jbAZImxkmAGssKYgxp7cZRU7ITKNl1wFLgkOxECjSXWH3vvOxEpIabBzw/OwnV1vto53yyTplEPIqWPYO0yFgIbFdkI0kddBT5n2WjnvFd2rVOzojafAtglZXEUrpt2s52feBT2UlIUgtdQ4wZK7MTKVsXCgCIS+bPG/rZFs8HnpGdhCS1SBvHilF1pQAAuBo4NjuJgv07sEl2EpLUEscSY0UndKkAADgdOCk7iQLtBHwb1waQpIk6iRgj1GJTgHPIn2RSZHy20BaSusFJgMaqOIf2PxU3TNeuAAAsJzZ0uDQ7kQK9DnhrdhKS1ECXEmPC8uxEqtbFAgDgHmIC3Z+yEynQv+CkQEnqx5+IfvOe7EQydLUAgNjS8VDas6f8FOBbwJOzE5GkBriFGAM6u71vlwsAiJUC21T9bQD8BDg6OxFJqrFVV4Gvy04kU9cLAIDLgMNpz2YP04HTgHdnJyJJNbSI6PMvy04kmwVAOBd4Me2ZBDIJOJFYJ8BjLElhOdHXn5udiOrnWPIfRyk6zgTmFNlIUkv4GGD3om2Lwalg7yL/JC06biWWt5S0mgVAt+JdSD34JPknaxlxGi4dLK1iAdCd+CRSjyYBp5J/0pYRNwHPKqylpOayAOhGnEoHtvZVsaYS98+zT96y4ofA3oW1ltQ8FgDtjzNxrxQNaBbwK/JP4rJiBbF40C5FNZjUIBYA7Y5fEX24NLCNgd+TfzKXGcuIy2QPL6bJpEawAGhv/J7ouzUGnxEf393A04E/ZydSoinAMcC1wM+AlwHrpWYkSYP5M9Fn352diNpjZ2ICXXZlW1XcA3we2L+IxpNqyCsA7Yu/EX21VLidiN2jsk/yquMmYq7AW4BH45UjtYMFQLviT8COqGc+GtG/rYBzgN2yE0l0D3AecAlx22D+0M8m7Ko1B9hjjfgS8V7UPUcBX89OQoW4gtjZ7+bsRJrExyP6dzPwBODHwL7JuWTZCHjmUKzpPlYXA9eu88+3VZjfbGC7odgemMfqAX/Ldf7fH1eYl6TiXQAcBtyZnUjTWAAM5k7gEOD7wFOSc6mTDYi1BUZaX+A+YAFx9eAe4N41/nmkf18MTBuK6WP8XA/YhtUD/nb0N/vXq2BSc/0MOAJYmJ1IE1kADG4hUXV+E3huci5NsMFQ1I3zGaRm+h7wEuLLggZg5zcxi4EXAP+dnYgG5hUAqXlOBV6Ig/+EWABM3DLiGfpPZyeigfgZkJrlZOBVwPLsRJrOzq8YK4lH5E7ITkR98zMgNcfxwHFEn6sJsvMr1geAv89OQn3xFoBUfyuBtwIfyU6kTSwAivcvwKvx8lRT+BmQ6m3VbdZ/y06kbez8yvFFYpGRJdmJaFxeAZDqy4nWJbIAKM93gMOBB7IT0Zj8DEj1tJBYbOz72Ym0lZ1fuc4Cnoa7UtWZnwGpfu4gFln7RXYibWbnV77zgAOJ5XBVP94CkOrlKmIX0t9mJ9J2FgDVuAp4HPCD7EQ0jJ8BqT6+CzwevzBVws6vOvcQcwI+gs+w1omfASnfCuD9xIQ/1/WviJ1ftVYSC1kcQWx+o3zeApBy3Q08G/gofjmqlAVAjjOIrYT/kJ2I/AxIia4gbo+6LXcCO7881xBFwP9kJ9JxXgGQcnyHmOw3PzuRrrIAyHUfcCSxhPCK5Fy6ys+AVK0VwHuJ3fy835/Izi/fSmIToefgegEZ/AxI1bkLOAw4MTsR2fnVyY+Ie2FXZCfSMd4CkKpxOfBYYoE01YAFQL3MB/YDvp2dSIf4GZDK9y3ifv912YloNTu/+rkfeBHwHpwXUAU/A1J5lgPvAl5M9G2qETu/+joJeAZwZ3YiLectAKkcdxKb+XwiOxGNzAKg3s4B9gF+lZ1Ii/kZkIp3LtF3nZOdiEZn51d/1wNPAo4DHkzNpJ28AiAV50Hg7USfdX1qJhqXBUAzrABOBh4NnJ+cS9v4GZCKcR6wF/CvuKRvI9j5NcsfgYOBdwOLk3NpCz8D0sQsAt5J9E3u4tcgdn7Nsxz4J+AxwEXJubSBtwCkwV0I7A18Ep9aahwLgOa6iniu9gPA0uRcmszPgNS/xcRyvgfgpmaNZefXbMuIZYQfB1yWnEtT+RmQ+vM7Yob/icQVSTWUnV87XEYUAf9IFAXqnZ8BqTdLgQ8Sq5VemZyLCmDn1x5+OAfjZ0Aa36X4JaN17PzaZ9XluZPw8lwv/AxIo1sGfATYF28zto6dXzstJvYSOAi4JjmXupuSnYBUU1cAjweOx4nGrWQB0G6/IR7R+RDwQG4qteVnQFrbvcQM/32Ai5NzUYns/NrvQeDDwCOAU/FZ3XX5GZDCcuBzRF9xIrAkNx2Vzc6vO24CjgUeC/xvbiq14mdAgrOJpcZfD9yWnIsqYufXPZcATwaOIJYW7jrnAKjLrgYOA55O3PNXh1gAdNf3gd2JnbvuTM4lk58BddHtwJuAPYEfJ+eiJHZ+3baU2LlrZ+BTdHOmr58BdckSYt3+nYH/wGf6O83OTwB3Ae8AdgW+l5xL1fwMqCtOB+YRO/fdk5yLasDOT2uaDxwJPJFYUKgL/Ayo7S4itup9AXBdci6qETs/jeRcYtnPY4C/JedSNicBqq3+CryCWMXv/5JzUQ1ZAGg0K4GvAI8kVgJbmJtOafwMqG0WEvuCPBL4b+KzLEkD2wR4H3Ar0aG0Jb5SZCOpUY4i//wrMm4lPqObFNlIkrTKTOANxHyB7A6viDit2OZRg7SlAJhPLOAzs9jmkaSRTQFeREwWzO4AJxJfK7ph1BgvJv/8m0hcBLwQb2NJSvRU4BzyO8RB4nMltIea4Znkn3+DxFnAISW0hyQN7DHAN4nFRbI7yV7jQ2U0hBrh0eSff73GMuDrQzlLUm09HPgMsRNhdsc5XrympDZQ/c0l//wbLx4APg3sWFIbSFIpNgdOIPYayO5IR4tHlfbu1QTXkH8OjhR3ENt4zynvrUtS+WYTSw3fSH7HumZcXeabViP8M/nn4ZpxA/A2YP0y37QkVW0a8eTAj6jHPIEPlPt21QD7kn8eLgXOBJ4PTC337UpSvq2ITUmuJKfT/Rt+y1L4H3LOwcuBvwe2KP8tSlI9PZaY6HQH1XW+r6jknakJdiW2ya3ivLsdOIV4YkaSNGQ6cRn0TOKyaFmd8ClVvSE1xisp73xbCpxB7LQ5vaL3I0mNtQUxcfD3FNsZfwtXTtPIPkyx59plwHHE0zCSpAE8BvhXYAGDd8aLiDkHDv4ay8uBuxn8PFsAnAzsXXXiktRm04AjiElbvd6zvQ/4DnGfV+rF9sQmUb0WAkuIc/II4hyVGmFSdgLSgOYC+wPbAtsNxYbAPUNxF3A+8DNgcVKOarZpwJOBg4gtdjcGNgLuJda0uBH4K3GeLUjKUZIkSZIkSZIkSZIkSZIkSZIkSa33/wGqXnFnZWCSoAAAAABJRU5ErkJggg==;" vertex="1" parent="1">
                    <mxGeometry x="331" y="254.6" width="65.8" height="65.8" as="geometry"/>
                </mxCell>
                <mxCell id="9" value="" style="shape=image;verticalLabelPosition=bottom;labelBackgroundColor=#ffffff;verticalAlign=top;aspect=fixed;imageAspect=0;image=data:image/png,iVBORw0KGgoAAAANSUhEUgAAAZAAAAGQCAYAAACAvzbMAAAz0UlEQVR4nOydTVbb2LfFr7Kq/6dGUGIEgREEeukFRhAYAaFnWoRW3IOMwGQEkB49nBHgjCCqEZTfCPSWnK1EMbaRpX0/tX9rZZH/q5eLP87VvufjnvOXESvJx+WOMWbPGFP//B9+1hy0XGpujJk1/v4df59W/7sYZTPySxdCCCdkvl9ACOTjcg/i8Bo/a+FwRQGR+Q5hmRWjbO7w9wshxNYMUkAgGJUH8QY/XYpFWwqIybfqZzHKCt8vSAghmgxGQPJxeWSMeQfByH2/ng7MIChfFPYSQoRA0gLSEI2jQL2MrlTeyL3ERAjhk+QEBOGpswRFYx2VmHw2xtwqbyKEcEkyApKPyxMIx57v1+KRW3glU98vRAiRPlELCEptP0A4huBttKXOldz6fiFCiHSJUkAkHK0pjDFXEhIhhA2iEhAJR2ckJEIIOtEISD4uK+G4lHD0YgohUY5ECNGb4AUkH5cHxphJpHc3QuXeGHOuy4lCiD4EKyAIV01Qjiv4zOGN3Ph+IUKIOAlSQFCSe61wlRNmxphTXUgUQmxLUAICr+Nui063gkfljXz0/SKEEPEQjICg7chEXodXKi/kWLkRIUQbghCQfFxeozw3JppzPtaxE+HN+DlCWve+X4gQImy8Ckg+LnOErEJ9yE5xh+Jf/N10LYHFe23+qWePhFpddlOMsnPfL0IIES7eBATluXcBhazq+RvfMX/DSVK5MfmwOZ8kFKYIaalJoxDiGV4EBFVWEx+/e4lKJL64FIw2IB/0BiXMvj2UAiISzOcjhAgD5wISQL6jFo37GJLFaE//3rOYzCEiusEuhPiFUwHJx2XldZy4/J1gjlbnn2MQjXXAM3nv8XLlqfppCSFqnAiIx1vliyaC8DaSieMjIX8GMXadQ5KICCEWWBcQiMej40qrQXSf9didWCIihLArIB7EYxDCsYwnIZGICDFwrAmIY/FQY8Dfoa1Lh3kmiYgQA8amgNw5ynncojV5MjmOvuCOzbUj8ZaICDFQrAiIo2qrAg8vlZauIR+XH+GR2EYiIsQAoQuIo3seNwhZyet4AdwjmTjwRvZ12VCIYUEVEAc3zNXoryMOhL36bg4lIkIMB5qAIO7+yFpvBTM8oOR1dMRBy3x9R0IMiFeMRRpddW1xW4yyfT2Y+gHPbb9FG/qu7AXS40wI4QCKgFjuqntajLJTS2sPDrRyOTTG2AoDHiF5L4RInN4hLIuxdeU7LGO5Wu5QFXJCpE0vAUFM3UboSglZR+Tj8gPujLCpvsNdhR2FSJfOIaxGg0Q2Eg+H4Pa+jRChLfsQQgRCnxyIjbyHxMMDuARoQ0SOUNothEiQTgKCsAd79KrEwyMWReQaVXpCiMTYWkAQumK3x5B4BABE5Iq87I6lHIsQwjNdPBAbF9FOJR5hUIyyj2hQyeQIBRdCiITYqgrL0m1z5434EFKpHmhvIIbNcFyBP9+MMdOhlqLm4/KRHKYs0C9LVVlCJMK2AvKj+kH8/bcuLwkioXu2ZWPB6oH32RhzM6SHn6V5LlfwcIQQCdBaQCzcF5gVo2yfuN5aSPMxFkIypAcgOvk+kkOWu7gNL4SInFY5EAuJ8znaaVgHbTUYJ+nFZ5CPyycIUvIgL3VOXtbFfBIhhAPaJtE/kE+hpy7CQWjVwX5gLU7l+bi8hrAmDfJTzBzVCTwbIUTkvCggeEieEX/njYv+Vg6mIlai+jSQ6qJzJMFZqKxXiARo44EwvY/Cwj2DZ6DBo4sb0Is29vm4vEv5shy8RWaxw8FQwoBCpMxGAbHgfVgPXeHBZHuk7jJH8EZc/15noJz5hrjke+JaQggPvOSBML2PW0d3Knw18NtB246nhGP8VyiAYHCSstcmxBB4SUBY3sfcQjXPM3DPw/dDaQ/eyMfUkuzwHpnfoyqyhIiYtQKChzHrAXjl6BJeSA+kSwhJUrF+VGWxPMmj1ERWiCGxyQNheR8FZk5YBWEj397HMjlKfu8Se1CyCiF2HBU7CCEssFJA8DBmxfGtV12BkMtpq9f2I5UkO3JZrFJsZpGGEMIh6zwQpvfhqlHiG0e/pyt1kv0xkeQxKxeSpxbmE2IorBMQ1mnelfdhyE3/bHIAbyTqnlroZ8U6HKikV4gIeSYguFnNiNe79D6MhRkltrnMx+WPyE/fn0nrhBx+FEKsYZUH8o60tkvvI1bqJPskxiQ7mi0yKrJ2BtISRoikWCUgjI08JyZZXTFFXN/HzI8ThLVifIiyvBDWwUUI4Yg/BIQYvrqNcfgSyo13PYnfDvpqRZVkR2NMRqPFGMVTiEGz7IGwToGsU6lzKuErRtkx5pX4GHx0UN9k9/C7u/KFsIbCWEJExrKAMBK6sxQmzuGuwz65gWBbmsOrYqguYxVLhF6KLYRo8EtAiDe5GafRIIA3cg4hmXl4CXVfraCHV+HAwPh85IEIERFND4RVThpb8vxFilFWz2/3lWSPYXgV4+CQx5T/EWLoNAWEET5IIny1DiTZ9z2JZOjDq1ifScz3YoQYFGwPJJnw1ToqgUSS/diTNxLk8CpiGEt5ECEiYSEgyH8wYuwuBkYFAcpXdz0m2eu+WiEl2b8S1gjp/QghNlB7IIxNW+Bm8mBoJNkPPSXZDwIbXsU4QEhAhIiEWkBeE9YajPexTDHKpkiyM0e+bkMQw6tYI4t9vw8hRDuYHsh3whpRU4yyj0iy+xDTUIZXyQsRYiAwBWSwHkgTJNkPjTGnHpPsPzCS2AffCGv8Q1hDCGGZVzit9j6xDi3/8RJoZb9LvKW9DdX3OfHkjTDsQB6IEBHwSt6HPZBkP/XYV+sIYS2XIsIQkBDvuQghlnjFGh5FWCNZkGTf9TQjZc+liJAukkpAhIgAlgfyL2GN5PGYZK++42uHv6/3+wvsfosQYgWVgPyPsI5CWC1BX61DD321Thz20mK8rxDutQghNsDyQMSWeBpe5aqrL6OkWwIiROCsGmm7NawLZEPDw/CqHONzbcPwQHSwESJwKAIi+uF4eNWZg9+hkm4hBsArQhfe6Gafh4jD4VW5EtRCCAYMD0SnTSKOhleFPJiqRrfRhQgchbACpTG8ykZ+yfbMDV0mFGIASEACptFXiz28yurDuRhlCmsKMQAkIBFgYXiVTvdCiN5IQCKhkWQ/9v1ahBDCSEDiAi3aJ75fhxBCVPzl+wWIl0HZ7TWh5LpGOQohRG8kIAGDtiMfMLKWidXS63xcKscixABgCIh6FlkAc8EnlhLetu/uMF6z7hcJETh/IZzRRwR0q5kITu/Xli/7McbO2ub/fL8AIcRmXumkFw75uPxgjHmyLB5zlAXbRF6pEAOAkgOpTs2kSXSDBEnyiSNvzsWMdnmlQgyAv0gVObnG2m4PkuSXSJS7oPquPzv6XX3RiAAhAucVafiPqm62BNMBnxyKR8VnR56i7V5bQogAYJXxSkBagiT5hHinoy0zzGR3ASMHotycEIHzihQqeE1YI3nycfkRXodr8Zg7boHSOweihoxChA8rB6Kk6QZwp+Pa0+dUfb+HroocSMOq5H0IEQGvilFGmd2AhLBoUH0m+bicGGMePYnHDOLh8oHMeJ/yPoSIgLqZIuN0Ki+kARof/jDGnHh6CTcexMOQwpkxXHQUYvDUSfQZIRF+oNJLr0nymuq7PC9Gma/vgvG+VRIuRATUAvKdcPt58KWbSJKzGx+2ZY4yXVeVVs9AGFM5ECEGQi0gU8KDz9eJ2zuWGx+2ofr+TgPoBkCxAQ9hNyFEB5ohrN7k4/LIQZ+lYMCJe2K5d9UmCoSrQvnM3xHWGHwYVIhYWCTRUXPPOL0OJoyFxoc/PIrHjTFmPyDxMCQPRAl0ISKheRN9SqgYqh6m5z3XCBoL0wG3ZYZwVVBhHnwujBCePBAhIqE5E51x8stJF8mCA3c6rj3dJDdIkp8Xo2w/NPEA7xmLeKweE0JsSVNAWKEQyoMkJDw1PmxSfTe7xSi78fT728AI5Uk8hIiIXwKCPAjjZOsrJ0AnH5eVR3VnjLnzVGFV4DLgcci9oVCFxvh8vhLWEEI44tXS/2acAHOc2KPG0XTATVwhSR7DqZzldcbwXoUQYLmd+xdSmOY9MSTmFM+NDw0eoueB5jmegVJmRruWIpb3LIT4yR8eCDYwo5z3CC09YqJOkvtqfDhHdZWP/lV9YPX6ivLAIcSQWQ5hGeJGPiOt44o9j0nyWyTJXcwrZ8P6nr+Q1hFCOGKVgLA28olavL9InSQ/DTlJvg50HGZ4mgpfCREhzwSEGMbacXyi990HaluuilG2G0mSfB2sxpHyPoSIkFUeSMVn0vpnDr2QWE6wU4SrvHXNZUD0PgxCeEKIyFgnIKwN7dILCb2H0mIuOZLksXlLq2B5H9NEPg8hBsdKAUE8niUiZ44qskKu4rmB1xHya2wN2ftgebtCCMes80AMMS6942LIEk6xoeUT6pnk5zEmyVeBkOQ1abkiFVEVYoisFRAkd1kP5BNc0LNNKMnYZuPD0EStLx9wKGAg70OIiNnkgRjyA5l1al0L7lH4fmDfowVJyI0PO4FOyyxvkhkmFUJ4YKOA4IHMSnDuYWa4bXzNIymQJD9OOCk8Ia71OZWwnhBD5SUPxKCpH4tL2/NCcI/l1ObvWEGI0wGpQPxZ390cn5kQImKyNv9P+bj8Qay6mRWjbJ+01lrycTkh9mlaR1SND7sC0X8iLnkV+z0YIUQ7D8SQvZA9NC20SjHKTsmvu0mdJI+t8eHWoOqKGbqS9yFEIrQSEAvJ6Q8uZobglHuMhxaLGKYDMmG3tlfuQ4hEaBXCMr/nZDwSf/cceQPrCefG3YU+Ia0C7dZ9V3k5AxcGmd5HUYyyXeJ6QgiPtBYQ8/OBckee0FdftHNyIsWN+Eu8h7Z3GSqP42ukrdY7YyHvYVCllmyhgRBDY1sByfFQYTZIvC9G2TFxvVbAo6r+/LNUIFCJ2XeI23SI4RZL33P1WR4S1xNCeGYrATG/Z4Wzk+C3SHoLzyDcZ2Mq427C92OEGCRtq7B+geQxu/LoBMIkPGJRPK4kHkKkx9YCAmx4C9dI2gp/3FkQj5nufAiRJp0EBHcfbNyxmEhE/ICLlzYaXio0KUSibJ0DaZKPyycLJ1aDctlBVT35AmGrO0vicT6g+zJCDI6uIawa9iW9momjxouDppHzsCEeU4mHEGnTS0CQGLUVorhEWEVYAKW6NhLmph7fa2FdIURA9Aph1aC3la0qqikuoA3uPoYtcEnwkXzPo8nhkG7sCzFU+oawFhSj7NziIKdFCxXbbeCHAooU2JcEm5xLPIQYBhQBAcfE4VPL7EFEVKHVkXxc7iAkaDMseKu8hxDDgRLCqnEQGjEYg3qukFZ78L1MLOU7apzMeRFChAPTA6nvh9hOni5CMOhlJV4A1Wy2yq1rFk0xLa4vhAgQqgdSY6EN+Dpu0CZD3sgSjrwO47ItvxAiLKwIiHErIvV0QF08/H234wPa1ttmjoqrpKcyCiFWY01AjFsRMagCuxpyBRA+72vLOagaiYcQA8eqgBj3ImKQZB9U91d8xpdLc01sIvEQQtgXEONHRAyE5HPKDzkPwmEkHkKIGicCYvyJiEFo63Mqo1SR46g+yzPHwmEkHkKIJs4ExPgVEYNLjl9w2S268BbKlt9DPHwwQ0uZ6D47IYQdnAqIcXfZ8CVmEJP7kB+I+Kwq0Tjy4G00mcHzULm0EOIXzgXEuL2j0Ibq4fgV7ce9VnAhPFV5Gu/w06do1GhevRBiJV4ExPx+WE5wug6JSkS+QVhmNj0UCGn15zUEIwRBbaKBUEKItXgTkBq02nBx6a0PUySQv+NnM4k8WxXawbyN2oPYaYjDm6X/HSJz5DsGe6dGCPEy3gXE/E4Q33nOi4ifRD9/BZ5dDpH+pyHkey1sbAYBrQ8MBf6sPCiI4SC7ek4QAmLCDmkNiehCVo280RtsZJtNNgsI7HfkzFTOnCiyq3YEIyA1jttxiJ9UBnsai+HiJHiEYgOfocB6439N5Z7RkJFdbU9wAmJ+5w+u5Y044aoYZR99v4iXgE2coKw5hOq0ZebGmGqzf1HuKB5kV/0IUkBq8nF5BCEJ8YuNnSm8jmDvwZjfNnBmOYTApvpMP6MEOtr4dsrIrjgELSDGfXvyIVAg1xG0a+ypzxebeaMnW9BCPRRkV1yCF5AauJqXHlt5xM4cBhd0uCqRDb4KDT/ziOzKDtEISA0SXdeRuZ4+mcPtvQn54YVS7kmCG7xJFN9FSsiu7BKdgNQE0FwwdKJ4WMGznAzsQFAg/xRcUjQVZFduiFZAahqhrSOV/i4ILtG2jnxc1rmtoX5v99jwQX9PsSG7cmdX0QtIjec5GSEQzdyTgZ4O1zHHZg/+ewsd2dUfOLGrZASkSSO8lbpXEt2ME5RPThL/XrpwU4yyc98vIlZkV2uxaldJCkgTGNa7hMSkaFwsiuLmeE0+Lq9Rki1Wo7krHZBdvYg1u0peQJpATN4EMKBpW6aNmSVRiYb5HV68U2ihFRob3BLZ1VZYsatBCUgTxEubzdJCaq9ezyTxPuSqL/ic7wL7fENnjsuet75fSKjIrjpBt6vBCsgyyJs8Ov61dYvnb43WzsmcPAMZXxwzpxKR58iuekOzKwkIIApILQr13/+v8d9qbyLqGQBtCHiTb/Lo2sx1cI1EpIHsigbFriQggCgg0c3UYBPIJp82PLtim1BgY5rkQWPcsM/3IhGRXdmgt11JQABRQO6LUXZMWCdKPG7yujrtm43ad7yvujzcR9x90CIiu7JGL7uSgACigMyLUfY3YZ3oQFXMk8MKNy+zEjzOkBikiMiurNPZriQggJxE308pGd4GbPJHR6eoYPp8OZ4rMbgSX9lV2Hb1ys7rGTzvfb8AD0wcbPLK0K+MMbvFKPvoe5NXFKPsvhhlh9UGfCGRymDxMMVDdSjIrgK2KwmIHQY1ijcflx8dvOebkDb4MsUom2LDnzaq8Gyw46Hc3Auyq/DtSiEsYOEeyGHslwDb4OD+zAwx2mjCNjjJXVpur5F07yzZ1XNCtCsJCLBgsLfFKDslrhccMOgfFitjrkKfoLgJBw3+jlPs4iu72kxIdqUQlj1OUFWRMraMuE7qRbvJDeLYxphdnHZtMEk0HyK72kBIdiUBscul7xdgC5yCbMSnZ6hiSyL8V4yyeTHK9iuP1MLyO3jYJoPsqh2h2JUExC5JeiE4ndh4cNVtp6OYbbINCGfayFkc4aEbPbKr7fFtVxIQ+6TohdgYF3qf+iwMtLixkRe7TiSUJbvqgE+7koDY5wTtCpIAHhW7CmRajLLjlDd5DW78sje7je/EKbKrfviyKwmIG659vwAi7BDDzBgzqN5h2OzssMNZ5F6I7KonPuxKAuKGg3xcRn1CNL9LnZmtFYrUwwvrQNiBmQDdifWgIrvi4dquJCDuuEwglMXM58xRbz64TV6DBCizFDPWog3ZFRGXdiUBccdOzHX7Fk6J5zHdArbIIblFxRlxLevIrqzhxK4kIG7ZizXMQG4QeTvEtuSrwEmZmfw8ieyQIruygCu7koC45yS2fEhjTgGDwlLderTgZjFriuUO8buyiuzKLi7sSgLih+t8XEaxyQHztZ4POT69gStiyCGWMJbsyj5W7UoC4o9JRCLCCjNMU2z+xwAPP9YJOkduIXRkV5axbVd/kRYW3ahExIQct0U7A1ZlTxLdiRF6OcDn8gbhk38xD79zAreyg3xcviclld87GETUGdnVc2K0KwmIf0IXkXekdW5j70WEJOL1htDLZT4upz0rga5IG/0o8Aer7ArEbFcKYYVBJSKhdlVlNeq7Iq3jBdzheWoRtz/AeNBO4Ul0i2V4DjuBN1mUXSVgVxKQcDjJx+VTSCWYMBTG64n6lIhN/rhFyKW+89P1xPe5479bhnXKpyK7+kkKdiUBCYvKoH4EdHJ8Q1rnC2kd5zQ2eZcHXqeLo0gIMx6MoSbSZVeJ2JUEJDwqw7jLx+VdAN4I4wE0i3WIT89NbnCy7HoYYDwc80Db58iuErErCUi4HMEb8TJ+E+LFePhEeUokbPKarqWqrKKKoLwQ2VVadiUBCZsdVGD88HBnhPXgia4+n7jJTdfPEbF9Rk+n14Q1mMiuErIrCUgc5Ih7LjwSR6EtxilxFluSk7zJ+8I4ZQflgciu0rIrCUhc5Gh9/R9yJDaT7YxE51fCGs4IbJMbUtllHkAurYnsyj80u5KAxMsRku0lxOQDOWHKWCuaJKfFTd7nBvGM1McopES67IpDEHalm+hpcFRXZeTj0mCD1W0QuhpLb4OPpUrG8gmx72cwJVy62wvooSu74hCEXUlAuFwZY/4JoJ12CHHvKIb6OAgv9L289Z2w0a/zcRnrHJplZFc/CcGudiQgZIpRdgovwLeI+Iay0XHrdq+xEadIovZ2wR1s8htCsndKHvkaO7KrcOzqtQTEAhKRBf/2+ccYunW2os3DJf77bZ8ZEA42efUwYrTRjqrayAGyq3DsSkl0W2CwfcjdUG3T6aSYj8udfFw+oTvpph5BJ7houXVS1sUmx0zq3sRWruoA2RUBkl1JQGyCFu375OH2sbD1e0a56eMWlTo76FDaerO72uTk6XhDtJ91yK549F1rTwJiGZTM7QZUBRMyHzqUebbe7JFuchNL4jhgZFfr1+2FBMQB1RdfjLJDjJYcxGly21JLnBK7JvVe3OwRb3LRQHYVFhIQhxSj7AYhLXkjz+lbcLB2sw99kw8c2ZVFJCCOKUZZAW/kdCjeSEsYTf+ebXZt8sEju7KIyng9gUH393CvP/h+PQHQdirbS9Sbva5WGfwmHziyK4vIA/EIciPnSLKz+vQHgecGfnXVjTZ5YsiuwkICEgAIa502hCQK43mBbate2JVGO9rkSSK7CggJSEAsCcn5wG4hf/f9AlriY5OH0NssVmRX6+ltVxKQAEFo66YYZbuo2rqJ0CvZNvZ8H8F7jO6EmCCyq3CYSkACpxhli943xSj7uyEmMVws22qjY/Nc2Xs5vfGyydH0T/xGdkWAZVcSkIhoiEklJJWgHGNzTAM8ZW1dPol7MiEWE/g8IbKqiFJBdsWBYVeFyngjBUZ3jz8LUKGyB+OoDeR1x6Rf3xNKp8lzAXYy9h1eoGz0gPJpsqufpGBX/0pAEgLGSLnlno/Lsu8SlaB12SABbXbfm9yQZohXXus9YZ3eyK4WpGJXM4WwxDoYeZbOp01Uo/kMO4SwyQ2pAisU78PIrtKyKwmIWAfjofOu1wvwt9mD2OT5uOw7cnQBOkKHguwqIbuSgIh1MOrne59yPGz2IDY5YIQZQmvcKbvyD82uJCBiHYwHT95lstsyDjd7SJu8gnFSDMn7MLKrIKDZlQRErGTbuQsbeM9YxMFmD2qTo06fUSnzjbAGDdmVX9h2JQERm2BsdlrFi8XNHtQmB5QHZIAhLCO78grVriQgYhNfCWvs5OMy5M0e3CbHfR5KmCGk99VAduUBG3YlARGbYJ1ez0jrLCBu9uA2OfhA6vjKeFDbQHblB7pdSUDEWlD+ySi73GP3dCJs9ttilO2HtslxSmQ9GIO4PLiM7Mo9tuxKAiJegvUQuiSt84sem/0W/zZEWKfEIrD7H8vIrtxixa4kIOIlPpPWOWBdYGrSYbMHu8nJp8QvpHVsIbtyhE27koCIjRSjrCDeJbgmrfMH2LjHL4RF5ugJFeQmB5fEaXchdp/9hezKKdbsKiMtGj2IpT72XOaqGGUfSS8pGFDtMiEtZ/Uzwml0r9H2+zuqRoLMB9TgYtwTablpMcoOSWtZQ3ZlH9t2pW68og33OOUxTjGX+bi8txWfx4YOelOvgfUgNcTwkG1kV/axalcKYYkXQUUJ86E0QVxW/Dwlfuw652IFRein4hrZlV1c2JUERLTlhrjWnq24dWwgdMqsJAp5fOsqZFcWcGVXEhDRCpwWmYnZE+ZN4hjJx2VujLkjLlmdEoNOni8ju+Lj0q4kIGIbrsiz1yeMrqoxglDLHbE6xkTofdTIrki4tisJiGgNSi/ZCdrHoW12bPJHYnzaxOh91MiuOPiwKwmI2JYb8mlxZ4Cb/Zq8yStCvofQBtlVf5zblQREbAVi1ufkZQex2asTYj4uH5mtyMGUOGfDC7Kr7vi0KwmI2Bq4tOwHVtKbvRFeoDb/w6k9du9jgexqe3zblQREdOWUHHIw2OxPqVXRNG4D23iIXSGHkAqyq5aEYFcSENEJGJetqp9JPi6TuBSGh9YjaYzoMtNilDHvUXhHdtWOUOxKAiI6AyOzFXs/iTn0gLj0BK0kbDywkgldLSO7Wk9odiUBEX05thByqNlD6CGqBpVovPdkIanZ5DSx0NUysqslQrQrCYjoBapnbHd+vczH5Q8bcx+Y5OMyRzXMnaXQQs1NLP2uuiK7+k3IdiUBEb1BB1Tb4ZRFe4ZqI7HHmPYFG3xijPlhoRpmmWkxytjlrkEiuwrfriQgggJKMF3chD5ADNt7VU31wGlscBevZYbQzmCQXYVtVxooBTRQigMM3+UGrJvxfXExAxyN6o6MMe8tlU+uo3qf+4nnPdYiu7JGL7uSgAAJCI/qFOd4E9QUqN75CpeckoSFbVR/3nl6X4t8gIsHWcjIruj0titNJBQ2OLTQ1K0NOU6pi5NqPi7rudvf8RCoT1mz5YcAyjp38Kf6+z/46bvcU+LxG9kVD4pdyQMB8kC4WOoMOjQkHkvIrijQ7EpJdGGF6iRWjLJ9RwnQFJF4rEB21RuqXUlAhFWKUXaqzb411ebelXisR3bVCbpdSUCEdbDZk2y7YYF7nBBt3cJOBtnVVlixKwmIcALq+fcttqdIgatilB1LPNoju2qFNbuSgAhnwHXetdgoL1bquLQKMDogu1qLdbuSgAinIAl6iOlzOjX+DC3sxj5R0Deyq2c4sSsJiPACWnbvD/jUWD3kjhWy4iK7cmtXEhDhjWKUFTg12phCFzI3OB0m3VHXF7Ird3YlARHeQSJ0F5PoUt7wU2zwc3kd9pFd2UcCIoIAMeyPCD+kVt8/RTLzcKjNEH0hu7KLWpkAtTIJC7Ss+GCMObM0utMF98aYz0qQh4PsiosEBEhAwgQb/ggbPob+R0Vjg8vbCBTZFQcJCJCAhA9mJpxh49sc7bktc2zur0qMx4fsqjsSECABiQu0ya5nKfgYRTpDDPpbqJtbbI/sajskIEACEjeN4TyvcYpkhiXm2Njf6g2uKqphILvajAZKiSRAQvGPpGJjmM9eI2H6z4YwxbfG36eNdcVAkV1tRgIikqXRtjqJzSrCQHb1G90DEUII0QkJiBBCiE5IQIQQQnRCAiKEEKITEhAhhBCdkIAIIYTohARECCFEJyQgQgghOiEBEUII0QkJiBBCiE5IQIQQQnRCAiKEEKITEhAhhBCdkIAIIYTohARECCFEJzQPRCSLBv8IG1w89LerT2/TsCuNtAUaaRs3Gj0qbHDx4NauPr2Ny67kgYgogXdRbex3+GmTHfyOg8bvn+E0+a0YZfeWf79wBLwLb3Z18fDbrj69Dd+u5IEAeSDhk4/L6gR4Zow52hAu8EF1aqw2+1eJSXxcPIRvV6GKiQQESEDCJB+XO9jYZ+TwgS0KY8wXY8xtMcoK3y9GrObiIV67+vQ2HLuSgACSgNwXo+yY9JIGDYTjAzb4ju/X05HbatMrER8OEI4k7CqERLwEBOCB9V/PZabFKDskvaRBgjDVpTHmxPdrITKFd+p9ww8VhKmStCufQiIBaZCPy7LnEvNilP1NejmDIhGP4yWqjX6q0JY7EvE4XmJhVz5CWxKQBvm4/EFIov2tEs/tyMdldSq8TniDL3MDj0R2YpGLh2HalctSYN1E/xOGgseQkAuCfFzm+bh8NMZMBrTJDU7EP/JxeeT7haTIxUOZXzwM164uHtzZlQTkTyQgjsjHZWXsTw5q7UOlerDd5ePyDuE7QeDiQXZV2dXFQ3mH8J1VJCB/8i9hjTeENZKleljC6xhSaGETR/BGhvrAo1A9LOF1yK5+cgRvxKpdSUD+hFHNoAfBGnB7/Ic+o2dUD7zHfFzqDlEHcHtcdvWchV1dPNizKyXRG5BKeSv2i1E2I6yTDEiUT3y/jgi4R6WWEuwtQKJcdvUy96jUotqVPJAG2LSMPIhOQg3ycTnRJm/NEbwRhWFe4OJBdrUFR/BGqHYlAXkOI4z1nrBGEkA8Urq85YI9Y8wTQn5iBRAP2dV2LOwKIT8KCmEtQQy17A75whhO0I+qSutF5REfKhz6G5ygZVf9WNjVp7f97UoCsgRaafwgLHVejLIbwjrREZB4FJiz8B1/rwV9tpxjaFRB1YOC/sFP3+9BIgICEo+1drWcY2hUQQVpV31FRAKyAtKN9KIYZbuklxQV+bh88rRBCoQgvzKHPjWGVb3z9L4kIj8fxkHYFSsR3RhW5dWu+oiIBGQF+bi8xq3OvhwOrYGeh5zHvNH11voDFh7qEfJcLjf9HNV9gwyLesh5zBtdb63bFZo9erOrrn20JCArQIuJO8JSg+rO61g8qk39uRhlt45+3zPgmbx3/J4Ph1bi61g8Fnb16a0/u4Jn4tyuunhWEpA15OPyP9KN1kEk0x3e8wiuNbrjFvSDOpQ4vOfhvTX6Mo5b0E8/vd3eriQgayCepm+LUXZKWCdYUG76ZPnXFChMCHK0p/ktJBMH94BuilF2bvl3eAflpk7sKtSRsea3kDixq09vt7MrCcgayA/FZG+mo+Lqh+X+Q1GNCkYI9NryfO3jkMW0L6i4sm5Xn97GY1fosmvdrrYRU10kXAMe+KzQ0zVpnRC5s7jJZxDfaDa5+Wk71QbcRxLWFhN4PKli3a5iEo8KPNit2xU8nlZIQDbzmbTOQYrdVtGS3db7uo25dLUYZXOELk9R6cJmJ9U2HmjJbtWuXFRW2eDT22z+6W04dqUQ1gbI4ZkCp+kkKmhw+n2ydEo89VldxQbh0DtLoYekLqzi9GvNrnxWV7FBjsiaXX16+7JdyQPZAB72rDhzXVGRCjamvdV3HZLZ5OZ3OHQfoRM2l4mFsqzZVUriYX56I1btqk0oSwLyMlfEtT6kEMpCyS77fSR92xqHkUNSs84myYSyULJrxa5iDVm9BO5ueLMrhbBaQL4gF3Uoy1LVVdLisUw+Lu9w65hJ1F0PLFVdJS0ey1w82LGrTXdj5IG0g+mF5JGfGD9IPHpzaiHsELNNGVt2NRTxAM7tSgLSAtwkZ8ZPj1DBFBWItZ+Rlx2aeDTDWcz3nSO0GB2ItdPtamDi0QxnUe0KocWVSEDaw/RCKq5x4SwmLsmnxNOhiUcNROSYXIoZa5EG3a6GJh41EBFndiUBaQm8ELaITGKZOofcB/OEe5tatdW2wKaOiUtG54Ug90G1q9SqrbYFnXWpdrXOC5GAbMcN8Xa6wanrMRIRYYbcqtNh8r2c2oDEN/NgEpsXIruyABLf1u1KVVhbQmz13iToRLKFyqtke4N1hTyEK4o+WRYqr/aHGrpaB3kI17M+WfJAtgQbk705Q/dEjoib/ErisRJmx2Z2QtoWVLuSeKzEql1JQLphow9NyCLCeiAVsTVGdAVEldWS5CCS2+k0u4qtMaIrIKo0u1q+nS4B6QAqaGzM+KhE5CmkRCgeRCxRU3x6M1fEg0kwNrQKPIhkV26wZlcSkI4glGWr2mOCuewhwDolTmOIy/sEBxNWB+j3pHVsQbOrkIdBhQBKe63YlQSkH+eWGpkZ9M16DCAUwbqrwi6BTpUb0mkxDzQcWiO7cgvNrtAFeIEEpAeNUJatvlYHCGl5uXCIBxBDwGYx92lyCdkLCfKiKh5AFLsKaYZ5yJC9kF92JQHpCZKfNmee7xhj7vJxeefBG2F1RmUZ7lBgnRbfEdawgezKD3S7koAQQGzfdiLvCN6Iy2oTxgNoPvQb59tCnEOzhzs8oUGxq6HfON8WeCEUu8IdHgkIC0yFs23QOxgg9MNRpRbjpKhN3o0vpHVCnD8ju/IH1a4kIEQwA9uFYeeo1LImJMTBVyyDHRTIGTHa5rwhrEHj4kF25RPkjGh2JQEhAxFxdSO2KSQfyTkSxkYvdOu8F5RwA2ENJhS70q3zXtDsSgJiB3ZP/peo563/QLL9hBD7fk14XaqQ6cc3whqhhbBkV/6h2ZUExAIW51+34QhTxP6DmHzoeB+A4c18JawxWFgXLwO7DyK78gzr4uXFQ7n3F2Mh8ZxaRMjz1LflqK7ZzsflHF7RN/ycv3A3g/HQ0UmxP1OCF5E79og3IbsKA4pdSUAsU4yy03xcmgB6E+3AYH4ZDV6XQVKNOefEIP9BvWCJ/klHSODVIbo5RPEeg3Ssg+E6b5ZO0/VrYD+ovxE2+p6FDtILUM65h+9jkzi8JnXeLVCOKvpBsSsJiAMgIt9eGlDvkZwUWmhCfZBePCx6g60bPlSJyvXFQ3nz6W1m7T7OxcOiI8D1ms+q2oyXFw/lFCNVWWLGWOcfwhp/gNvklx5uu4fiScUOxa6UA3EELtMdWmx7EhrfGYtUJ1wMxWkzue5D9f9bX3JiAgG7ayG0i/YzzX5BPWFsdOrhAB7Yk6dWKRS7Ehy7koA4BDmH/YGcolgn8Lst4+Z77ImReGBuM3p1MdtleXZCF0LrIYbPwqcn7SRMmTqsHmISEMcUo6woRtn+ALqI9t7oeFh1idMe4N/2BiLQpbX+TkAhS0opL7wq3+9JAhIOBxIQT2Ay36E2xEZWDvJ38G+bnPVI/h6QQlmheCGhzKgRHHrblQTEI42QFmvkZEj0CtMRWn7npId33zh/kC3VtwWeWAiXEocQ/o0GCYhnilE2L0aLyqH9gE6avSGU8DIeVow1+uYxgupF1YMgLiOqhDcsJCCBUIyyWTHKDjFbRGEtzp2BXmvYqOaKmCAERISFBCQwUO67Tx6ELzqg064Qm5GABAjCWh+NMbsDFhJGOI+xRt/PPhVvUrkH8QwJSMDUQlKMsr9jC20R5onMej6856SHXl8RYnQ+DYEgBIQ4T0QQkIBEQjHKbotRtovS39vUvRLC+M17Ugiqz9ztgjR21Xv+Aa1ZkinyEAt625UEJDKKUTbF0KpdeCVWmuQRYCSgzzsK5Zw1ox43drt+xqy+XH0/S5b3YHvufxtU2MCjt11JQCIF4a3KKzk2xvxtjDmGZxJKmKv36QYexLb9wxb/hpwA7zJl8oYxd4E0ZZLyWaDT8CljrR5498ZSgNFmp7IrCUgCQEzuK88EYa7aO7n1GLumdIDFQ6vtjf0C4kF9zw0hayMIc3TjZZ3WgxEQ8/OzuPUsIvTOwgOFYldq554gxWgRr77FnwWYSpfjBPe/xknORit3wzwpQhB20d/qbMXa1X//TMo3rHsN1UP4GEncM1xSbIYACgjMZ/JcEkbSmNrBtvqcLx7Kmad27vJAOFDsKiMsIhIkH5dl3zWKUSb76kk+Lu8ID+nzYpRZaZezNFBqo6fz6W02vXjob1ef3squ+nLxwLEreSBiHfO+SbZ8XB6E1o48QhgnRWthTHhm23zHve2q8gJZ7cgHDMWulAMR62A8dFSz3wOEHRlVR0Hc4QCyK8+gySjFriQgYh2MC3DvCGsMGcaDkj6bvieyK/9Q7KryPiUgYh2Mk+IeqQx1qLwnrBFaqIdiV6Qy1KFCsysJiFgH68GTxDwM10B4GRVHoc0Ql115BMJLsysJiFgJwh6M0yLjtDNEKCN5Q/NAkHSXXfmDalcSELEJxsNnj9BYcYgwHpBFMeJeqiRBsSs1VuwExa7qy7oSELEJVidZnRa3IB+XR6TLnUF5Hw1kVx64eODblQRErKUYLXo5MSp4TpRM34oz0jpfSetQQY8wil0pmb4VdLuSgIiXYHX7vSStkzQI9zFCM3McAEJFduUQhPsodtVsEioBES/BOsXKC2kH64EYsngYpl3JC2mFFbuSgIiN4BTLag44Ia2TJPl40SySlRj+QlrHCjjFyq4cgCakVuxKAiLawDrNHiBBLJbIx4umhNek5YpIepDR7AoJYrEEml3S7Gq5B5kERLShz1jXZa7xsBR/ckmctsf8vmxCtSs8LMWfWLUrCYh4kcZ8EQY58USUBPDKPpCWmxO/K6tgborsyhLwyqzalQREtIUZUz9BvH/wwBtjxvBvA2ue+BJUu0K8f/DAG6Pa1aox0RIQ0QrE1Jlx9Wu0Kx86j8QQg4kofLUAMXWqXaFd+dBxYlcSELENV8S1KuO+G3I+JB+XE/KI1luEG2ODbldDzodcPPDtat2YZgmIaI0FLySvTkpDFJF8XH4gNrYziFGfE9dzhgUvZGFXQxSRiwe3diUBEdtySl6vOindkdcMGuR/2Anfz5HlPpaRXfUE+R+6Xa3KfdRIQMRWIERyQ172IB+XgwhnQTzYF99sfCdOQYiEblcXD+UgwlkQD+d2JQERXbgiNcNrcpR6OAthKxu3ps8j9z5qrNlVyiKCsJUVu9rkfRgJiOgCHlbskINB2OExxZ5ZSJjbuKdwH3jTxNbgYWXNrlLsmYWEuRW7ajZNXEdm4ReLgZCPyztLo0WrB8lxJO04NgKP6pFcFVNTfU67iXgfv7h4sGtXy+04YgQelVW7esn7MPJARE9OLYQcDEoxK0/ko4W1nYEb5j8sbfKK09TEA1i1q4uHuO0KN8yt2lUb8TDyQERfML/i0eKvmOFBGeJo1pXA67gktpFYxU0xyqIs220D5ldYt6t6NGsMwOuwblef3ra3KwmI6A08BduDfW6MMVehn7gbJbo2k7azYpTtW1w/COApOLGrtiduXzRKdK3a1ae329mVBERQsJgPaTJHS4Wb0IQEntglce7COpLMe6zDYj6kyS+7Ck1I4Ik5s6tt378ERFCwnCxeJhghQZ7jzMEGN3jfhzGF8/piOVm8TDBCgjyHU7vqEs6TgAgaEJEntJJwwRxDib64rNhCmfGJMea9w/dqkAuKolU7E4iIF7tyWbGFMmMvdvXpbTe7koAIKuiwy+4E2oYCm/6bjXsReF8H2Nw+ur0OUjxq0GHXq121uRexLXhfXu2qq3gYCYiwgUcRaVKdHL/hAbDViFd4GDk29mv89PleBi0eNR5FpMkfdrWNhwIPIyi76iMeRgIibBGIiKxi04bfC/D1SjwaBCIiq4jOrvqKh5GACJsELCKxIPFYQcAiEgsU8TC6iS5sgmqhfVzaEu2ZSzzWg2oh2dX2zJniYeSBCBegOuvOUUli7AyuVLcrqM6SXbWjc6nuJiQgwhn5uLy23IYhdmYQj6Aus4XOxYPs6gVmEA+6XUlAhFNw8W6i+PUzku5tZRtcvJNdPWer3lbbIgERzkGZ7EShhwV1viOJmR4+QZms7Oondb7Dql1JQIQ3MKHvcsCnxvuEW7J7AxP6Bm9XLtqxSECEVwbqjRQYQyuvwxID9UYKjKF1ZlcSEBEE6GY7cdwDyDXBNIEcCuhmOxi7ct0EUgIiggLzNC4T3PC38DokHB7API1k7cpX92AJiAiSRIRkjg3+uRhlhe8XI5IRkl929emtX7uSgIigcTxvg0WBkMKtPI4wcTxvg8Uvu/I9r6RGAiKiwOMMjrZ4mU0i+uFxBkdbvMwmaYsEREQHmjRWJ8h3nmYo1BTowvpVFVXxgyaNQdmVy4qqLkhARNSgz9aBMeYNNr3NkES9sb9XP9WvKl3QZ8uLXbH7VdlEAiKSAx5Kjo3/TyM00eYhMEPYYI4NPcf/baZ8xrCBh0K3q1DyGV34/wAAAP//NG4DOOirpt8AAAAASUVORK5CYII=;" vertex="1" parent="1">
                    <mxGeometry x="442" y="305" width="43" height="43" as="geometry"/>
                </mxCell>
                <mxCell id="10" value="" style="shape=image;verticalLabelPosition=bottom;labelBackgroundColor=#ffffff;verticalAlign=top;aspect=fixed;imageAspect=0;image=data:image/png,iVBORw0KGgoAAAANSUhEUgAAAQAAAAEACAYAAABccqhmAAAAAXNSR0IArs4c6QAAAARnQU1BAACxjwv8YQUAAAAJcEhZcwAAEnQAABJ0Ad5mH3gAAAAGYktHRAAAAAAAAPlDu38AAAAHdElNRQffChsOGQR054xuAAAWcUlEQVR4Xu3dB3RUdb4H8O9kSnqllwDSBAIhdMtbdX0uigV3QZ8eV1fUXc/6bBRFQUSxIDwV1+Pa66orvregoq77eGtZC0roQUAisNTQQ0gPmYS8/2/uHWWjYMrcMvP/fs6Zk8z/TmCSuf/vv9x7/9eD6SsaQERaijO/EpGGGABEGmMAEGmMAUCkMQYAkcYYAEQaYwAQaYwBQKQxBgCRxhgARBpjABBpjAFApDEGAJHGGABEGmMAEGmMAUCkMQYAkcYYAEQaYwAQaYwBQKQxBgCRxhgARBpjABBpjAFApDEGAJHGGABEGmMAEGmMAUCkMQYAkcYYAEQaYwAQaYwBQKQxBgCRxhgARBpjABBpjAFApDEGAJHGGABEGmMAEGmMAUCkMQYAkcYYAEQaYwAQaYwBQKQxBgCRxhgARBpjABBpjAFApDEGAJHGGABEGmMAEGmMAUCkMQYAkcYYAEQaYwAQaYwBQKQxBgCRxhgARBpjABBpjAFApDEGAJHGGABEGmMAEGmMAUCkMQYAkcYYAEQaYwAQaYwBQKQxBgCRxhgARBpjABBpjAFApDEGAJHGGABEGmMAEGmMAUCkMQYAkcYYAEQaYwAQaYwBQKQxBgCRxhgARBpjABBpjAFApDEGAJHGGABEGmMAEGmMAUCkMQYAkcYYAEQaYwAQaYwBQKQxBgCRxhgARBpjABBpjAFApDEGAJHGGABEGmMAEGmMAUCkMQYAkcYYAEQaYwAQaYwBQKQxBgCRxhgARBpjABBpjAFApDEGAJHGGABEGmMAEGmMAUCkMQYAkcYYAEQaYwCQPhoajMdR9ahXj7qjxiNoPsLP6+Vhvi78MzHKg+krYve3E1Z8eE79xTzmV7fyuOgNhj/3OvU1VKnVV3nEe4FAHDKSfMhK8qqncQh4jfcdVNuDqtKXHalHaU09amrVz4Ue9aHtiFOvk4e83qfaTmk+3fQ7t0BsB4DsBNXqw5MP/ngaf37yAUvZ8T5YKZbXHM+JtjWVtDyNhVoj8/uwUOtkfh/2Yz/7Y5r4siZL9p3472YX+f3DLbr6++T2ScfYfuk4u1cqRmWnIMnfsk7vrtJabNhfg/X7q5G/sxLvbjyM6oNHAPn35OFTv3cUhkFsB0BlHf7vxn74hdoJyFqe6SuNQIpEADaX/L8S8qrVltb50hHtcP3ItjinV5r5AmvUqJ7Fa6uL8dTSA1izsVT1LlQQSA/Dib9BC8V2AJQHUTgzD33bJpgFZBXP9BVGr8LOnV8qvnTxq+rQvVsyHjk/G5cMzDQ32uuoei8PfLIH9ywuMoJIDTGiIQha1h+KFupDaWmXj5rHa/fOLhN1pUH075yEtTPysG1qrmOVX8Sp7v/MszujYe4IPPvrXsa8gwqmUEi5WIwHgBqaBhgAdvDZFQBSoSqDSFBd7fxpudgwMQeDOiaaG93h+pHt0PDwSEwZ3RkoCxph4FIxXzv85gwvWcsre5LVjZ3Z6t99YTaqZw3FyK7J5gZ3emRMNg49PAKZqf7QfJQbewMxHwCBKJqQiWaW9wCOqHG16mYXPTQM953TxSx0v8xEHw6pIco1P+sAHK51XQjEfgCwB2ALywLA7PLnZCej4aHh6JwWMDdEl5fG98D83/czQqCph2ptENsBIH/nKDw2G42MAIjwji2Vv6IOFw1ri3W35piF0evy3Cwsv2tw6OiUW0Ig5nsAZA9L5gBU5b/89PZ496reZkH0G94lGYX3DlG/mztCgAFAEeGLdE+rqg6jh2Rh/mU9zYLYIeelrJWeQKnzcwIMAIoIXyTnWmqPonOHRCy+pq9ZEHsGdUzCm+E5AQdDgAFAESEnwkSEdIvrj6LozlyzIHZdlpuFyRdmh4Y6TmEAUESE5gBaS1rCslp8essAsyD2PXp+NnL7pBmHOR3AAKCIiMhRQNX1Hz28Lc7okWoW6KHgZhV4UhNPdNWqRRgAFBHe1g4BzMt4Y3ncfyKb7zAPD9o8H8AAoIho9WkANfWYeZEaD2uqV5t4TJXfv8reoQADgCKiVZOA5vHwWVF0iq8V5p7XFalZAVuHAgwAiohWHQVUY/+J53Q2n+gtO10FgI3DAAYARUSL1wOQnV11/2eP1rv1/2Z/NTy3L8eGXVVyXrVZaj0GAEVEiycBVXe3b69UJDqwcMu2kiN4eeVBTF9chP9ctF09dmCa+v6FFQewareqiDaZ+P5ODLhntdGNsnn9itheEqy0Fg1/PNV8QlY647mN+HxzubFAZnNU1eGpy3vihlHtzAJrydJdUtGf/WKfsXRX49V9pUciNULG4UcbkNMnDbPU8GR8TuRXGzpQGUTvR9eh7NARYwmxSJ1M1QyxvyqwfMhO/oZqB3/2ur6hVWKs4rnuc8Dpy2RlQUwZBjRnJ5bPpyyIinkjkRzwmoXWmffFXkx5c6vxXuX/k7d6vPcr703ImoPV9fCm+/HZ9SfjtG4pRnkrPfDxbty9cDuQoiq+jV3+xmI7AET4g3SKCoBXftMHVw9tYxZEnufGLwGZPHJac1sw1comJXhRKVfHWexXr2/GO18dUH8nf/Pfp5AegepR/m50Fzz3q+5mYfMdUvtD38fWo1iN+Y2l1FvwXiLIueixi/yBnX5YLfRfNPo/nXg0V/1RjOlr7dLd4q6/F+Gdpa2o/ELG55kBPP/JHpz5fKFZ2Dz3flSENrctQ3FZrWr5W/FeIij2A4DcS7Wqo7KtXdevpLoOs99WXe20CFQ4+XnVZf9sXQnGvrbZLPxpByrrkHX/Gsx6dyeQoXpqDnb5G2MAkHOONqBXVrz5xBrXvaUqfyQn2EIh4Md7+QcwTyYSf8IM1ftof/sylMgCIC5p9Y/FACDnqGF1R6kUFnp7uer6W3GIUfUopszfgiLpzv+ILcU1SLxnFR78q/ta/WMxAMg5KgCypHW2yGZVCUOz+BG5VLERaclT/eg652uz4HvXLNiG3nevQo1c4pvsvlb/WAwAck5DAxL91lWOtXurVctrYeWTRRBUJR/19Dehp59uLYfntmV45Us1NJBWPyKLJFiLAUCOkttzW6VU7gxtdeub4MWyLeVIm7UaZ/1hvTHcSHT+8F5TMQDIUfXmlYBW8Evrb90//714L8rlhDM5rm/FcMNCDABylJUB0F4qpF0ngjX3LEiXYACQc1SFqQhad+PMn/dMDV1q7PjZoC7GACBHlUnX2SJ+bxyyT0oxTuOlH8UAIOeove9glbVLYj95UbfQ9RjsBfw4BgA5Rw0Bdsv98y10Uf8MtO+UZJwPQD/AACDneIAdxzmTLpK23T4QqFa9AA4FfoABQM7xevDNvhrziXUS/V4U3mPekLPOuknHaMQAIOfEebB2rz1Lb8kNOQ89PMK4rJdzAt9hAJBzVGXcbOPae5mJPjTMHo5r/q2DcVNOOQSpeRAwAMg5cuKMqoTLd1WaBfZ4aXwP7J47AjldkoBSc1igaRAwAMhZAS+eWXbAfGKfTql+rLs1Byum56K7Gh6EgkDDHgEDgJzlj8NLS/abT+w3rEsytt0+COtm5iGvW3Jo3b/QnXo1CQIGADlLhgGqC75wfYlZ4IycDolYfdMAbHtwGMbJAq5yfoIcOrTwWgU3YACQs+T6mQRvaK1+N+ieEY+FV/QK3U/ijnO7GNcShA8fxmCvgAFAzvN6sH93FZZsrzAL3GHOuV3R8OhIvDahD7JS/UavIMbmCRgA5DwZBiT7MO6NLWaBu1w5pA2KZ+Rh+bRcDOqabBxCjJF5AgYAuYMvLtQLmF9wyCxwn+FdkrH2lgHYO3cExg7OMnoEoTtPRW8QMADIPVL8uOLVpq+375QOajiw6KreqH38FEw4rT1QLkEQnWcXMgDIPczltH75uvtDQPi9Hrw8vgcanjgVN5zRyTiXIMp6BAwAcpf4OCz6cj8+KDxsFkSHpy7uhoYnT8W1p5s9giiZI2AAkLvIhGB6ABc8tREVUomizIvjeiD4h1MwNi/r++sNXIwBQO4jQ4EEL1JnrjILootPDQ0WXdkbe+YOx8mdEo0gcOkJRQwAcie5lZaqM3J7rWjVMTWAjZMGYvHEAUYAyJmFLhsWMADIvfxxqKmqQ+qs1WZBdBrdJx0Nc0fgmtPNy5BdtDIRA4DcLeBFRUUQnmkrVCPqzm50U8llyIX3DTVOf3bJYUMGALmfCgHpQnsnL8M3+6vNwugkKxM1PDQc5w0yTyRyOAQYABQdZE4gwYsB967Gk0udu3w4Uv42oQ+evbq34xOEDACKHnJ0ICOAm17f8t0deaPZ9SPaYe3MPKBSDQfqnTlcyACg6GKeJyB35PVMzsdbDq8j0FqDOiaheM5w47JjB1YsZgBQdIr3hh7jn96InMfXR+VJQ2FZST5USAjISUM2HyFgAFD0kiFBWgAbiqqQOikf1721zdwQfZIDXhx8YJgaDgRtnRNgAFB0k0NqfrUbZwTw0pJ98Ny6FPd+tNvYFmXaqJ7AktsGGesS2nR0gAFAsUHmBhJ8gKpEs97fGZofmP2PPebG6HFa9xRM+2V3Y2LQBgwAii0yLFAhIPMDdy3aAc/EpbhzcZG5MTrMHt0F2XLPAhsuJGIAUGwKB0GiD3MX74LnlqWYsGArKmujY7Lw20kDjfkAi4cCDACKbRIEKgSQ4sOflh5AysR8nPL0RhTsse+WZC2R4I/DlAu7GQuMWIgBQHqQOQI5dJgRQP7WcuQ9WIC2D67BX7527xqEj4zpanxj4VEBBgDpRYJAjhqk+VFcFsR/PP8tPHcux8wP3Xnk4E65N4GF5zgwAEhPEgRyfYGs96++v/+DnfDc+CV+/d//xGG5bt8lHjpX9QKCqgdg0VwAA4AoPE+QHsAbyw8i87ZlOOuFQmwtOWK+wFlnDc40QsACDACisPA8gQqCTwtL0XPGKuQ9scHxIJj6s46ARUcvGABEjUkQyBoE6X4U7KxEz7tWYugfN2Cf3CPQAWNOTjcmAi0YBjAAiI4nPGGYEcDqHZXoOHU5LnXo9mWn5KhhQB0DgMh+xwTBgpXF8EzKx7sb7L1vwficDEsuF2YAEDWVBEGCGhqox8VqSDD+z/b1Bi6QYUDozsRmQYQwAIiaS44aqN7AW8sPIO+J9Wahtfq3TwzdRj3SCcAAIGoJ6Q0k+1GwuRyXzrenJ5CcGQ9EeBTAACBqjWQfFny+D1/tqDALrJMndxmK8GnBDACi1pCeQJofv3hpk1lgnZPbJjAASGOy87vorjrfiYtD5cEarC6y9grD7hkyBGAAkG7kBBg5P181tm3l3H23hYDMzQXisHCDtSsUt0v28igAaUR2djn0dbgW157eAQ2zh2PT5BygzL4185oszoMN+2vMJ9bIkCXPGACkBWnlS48gNzsZh+eNxIvje4SKMxJ9uO+Sk4AK91yxF+LxoMTiqwgDPAxIMU9a9oogvD4PPpo8EAU3D0C6tHzHuPvsTsjummTZBTI6YQCQO0jFl4UvyoOYM7476h4YhrN7pZkbf2jH1Fyjl+Ca+YAGpMuVhBaqkMCTow4RxAAgZ0nFl3PcS2sxdnAWGp44FXec0cnceGJbZgx2z3yACqKcjonmE2uU1vBaAIolckhLtfidM+Ox/cFhWHRVb3ND0/TMSsDHUwYCJQ6HgPzfwaMY2y/dLLDGLgk7OQ05ghgAZD+pMFV1oQBY+Pt+KLozF93kGHcL/FwNE967dYCzISANc4oPo7JTjOcW2S6/Y2TrPwOAbCQVNDTOr8Md53VBw9wRGCfXubfShf0y8HfpCThxr335nVQvZv7lvcwC6xTsrTIvCIocBgDZQ8b5qoKepbrJwcdHYY4sdhlB5/ROw5q784yehQ131PlOdT1+lpeJywdnmQXWKdxXzSEARRlpISuCSE3yoWBmHj757cnwRXgnDhvcKQk1j45EYqLXCAIrhwTyb1cG0btrMj77XT+z0DqVtSrU5H6BHAJQ1JBKonbc/7qkB8ruGYLcjknmBuvE++JQNWsorjytvTEkkENnkQ4COfSo/u3xI9thkww9bPDxP8uM1p+HASmqqK7/Daqi2O21S0/C7jnDcZaspCOTZ3KWXr1qRVsaBvJzMrQoqw2dpPTFHblYcIX14/6wBV+XGMuSRRgDgKwjrVXAi1HPbDQL7NUpLRAacjQ8fRpmjOlqXEhUGjRuuin33JMKLa25VO7GD5lMlO3yOlkNuKIudFry/948IHSS0undrZ3xb+zVNcWWBIAH01eo35Qso8air1zVG1cPbWMWRJ7npi+BtPiIjw8jQvYu1Wq+f9MAXGDxcfKmqFaV+r2Nh/HRlnLk76zENwdqUFtuLvctFV/+iKqeeZN9GNQhEaPUGP981YsY2z/DeI0DtpUcwUkzVoWWIYs0BoDVdA8AIa2pGos3PDrKLKDm+O3b2/Dikv3GTUsijEMAsp45eXXm84VmATXHi5/vs6T7LxgAZI9AHD4rOIT/cfHtuN1o3heq8h9V31h06JQBQPaQCcE0Py57thBBmY2nJpnyznZAzmuwCAOA7CMhkOxD+9lrzQI6kYnv7zCOUljU+gsGANnLF4fDh45gnI131YlGpTX1ePxvuyxt/QUDgOyX6MPbX+3HnE/3mAXUWI9HvgZS/EavyUIMALKf7NNpfkx7cyv+LCe40L/4zV+24nDxkVBvyWoMAHKGtGyZAVz5XCFeXc0QCHt55UG89g/VM7K46x/GACDnSAhkBHD184W4/xMOBz7aUoZrX/gWSA9Y3vUPYwCQs8wQmLlwG8a9ru/EoFztd868daFekV2VXzAAyHmyw6f58bbq/qbftxq1sniIRv60qhj//oiq/Da2/GEMAHIH2fGTfCirrEP8pHxVKQ6aG2LbDe9sx4QXCo0LfWyu/IIBQO4iM9+pfkx4eRP6PbYOVTF684/6ow3oOnctnpEJP4cqv2AAkPtIZVAhULinGsmTlmHyBzvNDbHhmfwD8N26FEVyqC/Z+mP9J8IAIHeSSiFXwKX78diHu+GZnI+HP9trboxOa/dUIev+NbhBzoKUxUksusKvORgA5G4SBIm+0LXwU9/aDs9tyzDzwyJzY3RYv68KeU9swOAHClAiqwulqN/HwVb/WAwAig5yQUyyqjiq1bz/g13w3PgVLnx1E9aoVtWt5NJnGecPvK8ABTsrQ72Z0ByHSyq/YADYID7CN3PQmgSB9AhUZfrr1yUYMrsA3hkrQ/MEm4utvT9/U+TvrAidyuuZsgyXvfAtig6pcb5M8kl330UVP4xLglntSD1uOrMjzuubjpoIH9+W3SlJ7Vhjnt5oVAodcya0gKf6Kgt4yl2H1Nj64pwMXDowExf3z0CKxXfsLamuwzsbDuONgkP4UH0NvQf5P6XCW3gZb6QwAOwgO4VlJ7eonSxJ08rfWGhFX/VV/tZB9Y18VRVxSK9UnNItBf3bJaC7ao27pvnRST3S431ICvx0J1gWEj1YVYd95UFsPFiDFbuqsGRHBVZsKjOCRyq7dO196kOIgkp/LAYAxa7QKr9KnfoqC2vI4qThHkN4m1RYeUi9Pbbyyubw6+VnhXTh5TUypJOHVPhweZRiAJC+wiHQFFFcyU/kp/s/RLFKKnVTHzGKAUCkMQYAkcYYAEQaYwAQaYwBQKQxBgCRxhgARBpjABBpjAFApDEGAJHGGABEGmMAEGmMAUCkMQYAkcYYAEQaYwAQaYwBQKQxBgCRtoD/B/pKtyaLBEAuAAAAAElFTkSuQmCC;" vertex="1" parent="1">
                    <mxGeometry x="137" y="253" width="69" height="69" as="geometry"/>
                </mxCell>
                <mxCell id="14" value="" style="points=[];aspect=fixed;html=1;align=center;shadow=0;dashed=0;image;image=img/lib/allied_telesis/computer_and_terminals/Personal_Computer.svg;" vertex="1" parent="1">
                    <mxGeometry x="124" y="198" width="33.28" height="45.1" as="geometry"/>
                </mxCell>
                <mxCell id="15" value="" style="endArrow=classic;html=1;fillColor=#dae8fc;strokeColor=#6c8ebf;strokeWidth=5;" edge="1" parent="1">
                    <mxGeometry width="50" height="50" relative="1" as="geometry">
                        <mxPoint x="220" y="287" as="sourcePoint"/>
                        <mxPoint x="317" y="287" as="targetPoint"/>
                        <Array as="points">
                            <mxPoint x="263" y="287"/>
                        </Array>
                    </mxGeometry>
                </mxCell>
                <mxCell id="16" value="" style="endArrow=classic;html=1;fillColor=#dae8fc;strokeColor=#6c8ebf;strokeWidth=5;" edge="1" parent="1">
                    <mxGeometry width="50" height="50" relative="1" as="geometry">
                        <mxPoint x="418" y="287" as="sourcePoint"/>
                        <mxPoint x="515" y="287" as="targetPoint"/>
                        <Array as="points">
                            <mxPoint x="461" y="287"/>
                        </Array>
                    </mxGeometry>
                </mxCell>
                <mxCell id="17" value="" style="shape=image;verticalLabelPosition=bottom;labelBackgroundColor=#ffffff;verticalAlign=top;aspect=fixed;imageAspect=0;image=data:image/png,iVBORw0KGgoAAAANSUhEUgAAAcQAAAHECAYAAACnX1ofAAAABmJLR0QA/wD/AP+gvaeTAAAP3klEQVR4nO3d/a+ed0HH8c91n9OH0/VslLU67CYQtq5kYQFRo4BZ145uCxbjA5UQQjeikqBGJETA+AO/jRhcjA9EEuVsGEBA9Iep22o3t5CMBdlCBiGjI0GBGUmnhbXr+nB6Ln+YI+to13Ofc93393p4vf6Abz5NT+73ub69794JAAAAAAAAAAAAAAAAAAAAAAAAAAAAAAAAAAAAAAAAAAAAAAAAAAAAAAAAAAAAAAAAQPOq0gNIdn9i948tLtWvHtXVlUuj0RVVvbQlGV2Q1HOlt0ETrn7Jq05dtHbj2z507Ye+X3oLnIsgllCn2nXb9W9IVf9anWpnlVwVfxf02M5XXJttW7Y98c1D39j2wV/44OHSe+BsvAhP0Rs++aZN60+d/u069TuTvLz0HpiWna+4NrtecW2+8+TjokhrzZYeMAQ7Fna8aDbrPlCfWnx3ncyX3gOlXHbh1s1JDt7yhVtEkdYZlR7QdzsXbnjLTLXu0brK+yOGkMsu3Lr58s3bHvvQA7e+uPQWeC5BnJAdn9qzeddt1/9LVdWfTfLjpfdAm1x20aUXX/Xil33jli/csqn0FniWIE7Azo/vft3MyRNfSXJj6S3QVpdduHXz5VuuPCiKtIUgNmznwu491SgHkmpr6S3Qdq5PaRNBbNCu2294e1VV/5BUPj8Iy+T6lLYQxIbsXNi9J3W9EO/chbF5UqQNBLEB1y3c+HNVlc9EDGHFPClSmiCu0hs++aZNdbX0adeksHqeFClJEFdp3cnFhSQvK70D+sKTIqUI4ipcd9v1e1Pll0rvgL7xpEgJgrhCr/+bN8/XqW8tvQP66rKLLr34qk0vPSiKTIsgrtD6mRO/77OGMFmiyDQJ4grs/sTuC5L8bukdMASiyLQI4gosnq5+M8nm0jtgKLzRhmkQxBWoqtxcegMMjTfaMGmCOKbrbr/xNUmuLr0Dhsj1KZMkiGOqs/TLpTfAkLk+ZVIEcUx1Xe0svQGGzvUpkyCIY9jzsT0bqtQ/U3oH4EmR5gniGI6tPXVVkrWldwDP8KRIkwRxHKNcWXoCcCZvtKEpgjiGaimXl94A/CjXpzRBEMewNIrfQKGlXJ+yWoI4hlFdbyy9ATg316eshiCOYSm5oPQG4IW5PmWlBHEMoypV6Q3A+bk+ZSUEEegl16eMSxCB3hJFxiGIQK+JIssliEDviSLLIYjAIIgi5yOIwGCIIi9EEIFBEUXORRCBwRFFzkYQgUESRZ5PEIHBEkWeSxCBQRNFniWIwOCJIokgAiQRRQQR4IdEcdgEEeA5RHG4BBHgeURxmAQR4CxEcXgEEeAcRHFYBBHgBYjicAgiwHmI4jAIIsAyiGL/CSLAMolivwkiwBhEsb8EEWBMothPggiwAqLYP4IIsEKi2C+CCLAKotgfggiwSqLYD4II0ABR7D5BBGiIKHabIAI0SBS7SxABGiaK3SSIABMgit0jiAATIordIogAEySK3SGIABMmit0giABTIIrtJ4gAUyKK7SaIAFMkiu0liABTJortJIgABYhi+wgiQCGi2C6CCFCQKLaHIAIUJortIIgALSCK5QkiQEuIYlmCCNAioliOIAK0jCiWIYgALSSK0yeIAC0litMliAAtJorTI4gALSeK0yGIAB0gipMniAAdIYqTJYgAHSKKkyOIAB0jipMhiAAdJIrNE0SAjhLFZgkiQIeJYnMEEaDjRLEZggjQA6K4eoII0BOiuDqCCNAjorhyggjQM6K4MrOlBwD998jjX80DX3swVV2XnjIkFy9V9V1Jfrb0kK4QRGDinjj+RJ5ePJ6jh44kmjg1a+fWvKT0hi5xZQpMxdz8+mzcMp9UpZfA2QkiMDWiSJsJIjBVokhbCSIwdaJIGwkiUIQo0jaCCBQjirSJIAJFiSJtIYhAcaJIGwgi0AqiSGmCCLSGKFKSIAKtIoqUIohA64giJQgi0EqiyLQJItBaosg0CSLQaqLItAgi0HqiyDQIItAJosikCSLQGaLIJAki0CmiyKQIItA5osgkCCLQSaJI0wQR6CxRpEmCCHSaKNIUQQQ6TxRpgiACvSCKrJYgAr0hiqyGIAK9IoqslCACvSOKrIQgAr0kioxLEIHeEkXGIYhAr4kiyyWIQO+JIsshiMAgiCLnI4jAYIgiL0QQgUERRc5FEIHBEUXORhCBQRJFnk8QgcESRZ5LEIFBE0WeJYjA4IkiiSACJBFFBBHgh0Rx2AQR4DlEcbgEEeB5RHGYBBHgLERxeAQR4BxEcVgEEeAFiOJwCCLAeYjiMAgiwDKIYv8JIsAyiWK/CSLAGESxvwQRYEyi2E+CCLACotg/ggiwQqLYL4IIsAqi2B+CCLBKotgPggjQAFHsPkEEaIgodpsgAjRIFLtLEAEaJordJIgAEyCK3SOIABMiit0iiAATJIrdIYgAEyaK3SCIAFMgiu0niABTIortJogAUySK7SWIAFMmiu0kiAAFiGL7CCJAIaLYLoIIUJAotocgAhQmiu0giAAtIIrlCSJAS4hiWYII0CKiWI4gArSMKJYhiAAtJIrTJ4gALSWK0yWIAC0mitMjiAAtJ4rTIYgAHSCKkyeIAB0hipMliAAdIoqTI4gAHSOKkyGIAB0kis0TRICOEsVmCSJAh4licwQRoONEsRmCCNADorh6ggjQE6K4OrOlBwDQnLn59UmSo4eOFF7SPYII0DPPRvHEkeN14SmdIoiM7ae3vjab5jaVngHndPjpw/ny4w+VnlHU3Pz6zK4Zfb30ji4RRMZ24xXXZ/uW7aVnwDk9eujRwQcxSdbOrX2y9IYu8aYaAIggAkASQQSAJIIIAEkEEQCSCCIAJBFEAEgiiACQRBABIIkgAkASQQSAJIIIAEkEEQCSCCIAJBFEAEgiiACQRBABIEkyW3oAw/Z3j3w2x08fLz3jDJdsvCQ3XLG7kbMePfRoHvzulxo5q+/Wz6zPW6/eW3oGAyaIFHXff9yfIyeOlJ5xhldu2d5YEL/75OP5128eaOSsvptfNy+IFOXKFAAiiACQRBABIIkgAkASQQSAJIIIAEkEEQCSCCIAJBFEAEgiiACQRBABIIkgAkASQQSAJIIIAEkEEQCSCCIAJBFEAEiSzJYewLC993XvyVJ9uvSMM8yt2dDYWa/9iZ/KpRdubey8PhtVM6UnMHCCSFHbNl9ResJEbZrblE1zm0rPAJbBlSkARBABIIkgAkASQQSAJIIIAEkEEQCSCCIAJBFEAEgiiACQRBABIIkgAkASQQSAJIIIAEkEEQCSCCIAJBFEAEgiiACQJJktPYBhe99dH8jRk0dKzzjDtouvyHtf/55Gzrr/W/fn01/9bCNn9d3GtfP5yA0fLj2DARNEijp68kiOnGhXEI+dOtbYWaeWFlv35wPOzpUpAEQQASCJIAJAEkEEgCSCCABJBBEAkggiACQRRABIIogAkEQQASCJIAJAEkEEgCSCCABJBBEAkggiACQRRABI4guCKWzj2vnSE37EhjUbGjtrzWg28+va92dsozb+LDAsgkhRH7nhw6UnTNQ1L78m17z8mtIzgGVwZQoAEUQASCKIAJBEEAEgiSACQBJBBIAkgggASQQRAJIIIgAkEUQASCKIAJBEEAEgiSACQBJBBIAkgggASQQRAJIIIgAkSWZLD2DYDj7xWJbq06VnnGFuzYa89EU/2chZh58+nO8d/V4jZ/XdqJrJts1XlJ7BgAkiRd36wJ/myIkjpWec4ZVbtuePdvxhI2c99F8PZ+Hh2xs5q+/m183nr978l6VnMGCuTAEggggASQQRAJIIIgAkEUQASCKIAJBEEAEgiSACQBJBBIAkgggASQQRAJIIIgAkEUQASCKIAJBEEAEgiSACQBJBBIAkyWzpAQzbjpddk+Onj5eecYZLNl7S2FmXXrg1b7z8usbO67P1M+tLT2DgBJGi3nr13tITJmr7lu3ZvmV76RnAMrgyBYAIIgAkEUQASCKIAJBEEAEgiSACQBJBBIAkgggASQQRAJIIIgAkEUQASCKIAJBEEAEgiSACQBJBBIAkgggASQQRAJIks6UH0D13PnZ3Hvzul0rPgHM6/PTh0hPoIEFkbF9+/KHSEwAa58oUACKIAJBEEAEgiSACQBJBBIAkgggASQQRAJIIIgAkEUQASCKIAJBEEAEgiSACQBJBBIAkgggASQQRAJIIIgAkEUQASCKIAJBEEAEgiSACQBJBBIAkgggASQQRAJIIIgAkEUQASCKIAJBEEAEgiSACQBJBBIAkgggASQQRAJIIIgAkEUQASCKIAJBEEAEgiSACQBJBBIAkgggASQQRAJIIIgAkEUQASCKIAJBEEAEgiSACQBJBBIAkgjiWpTp16Q0Ay+U1azyCOIZR8lTpDQDLVVU5WnpDlwjiGJaqyg8X0B1LOVJ6QpcI4hhGS/nf0hsAlq3ymjUOQRxDXS09VnoDwLLV9cHSE7pEEMcwGtXfKL0BYLmq0YzXrDEI4hjWP73+60lOlt4BsAwnnprb+GjpEV0iiGO44113HEvypdI7AJbhi1/c+7mnS4/oEkEc372lBwCcV+21alyCOKaZUf250hsAzmdmpv7H0hu6RhDHtP8d+7+W5JHSOwBewMP//1rFGARxJap8vPQEgHOp6vq20hu6SBBXYKaq/7pODpXeAXAW/7N4wcmF0iO6SBBXYP879j81SvVnpXcA/KjqT+7be5//ZnIFBHGF5k6suTVV/rP0DoDn+M7pDcf/vPSIrhLEFXrmM4n1+0rvAHhWXVW/5+lw5QRxFe7Zt//vE29tBlrh8/fuu8vr0SoI4iqdrk++M8m3Su8ABu3bs4v5rdIjuk4QV+m+m+/7furq15McK70FGKSnllL/yt2/cbevelolQWzAPTff9e9VsjfJYuktwKCcqqv6Lf920/6HSg/pA0FsyIGb7v7npL4poghMx2JV56Z79+2/s/SQvqhKD+ibXbfv/sXU1WeSbCi9BeitY1Wy95lfxGmKJ8SG3bNv/z9V9WhXku+U3gL00rfrKteKYfMEcQIO3Hzng6kWX5PEDyzQoOqO2cW85t59d/te1glwZTphOxd276mq6qNJLi29Beis/66S9x/Yd/ffpkpdekxfCeIUXPex6y6q1878Qar8TpILS+8BOuMHVfIXa2ZHf3zn2+98svSYvhPEKdqxsONFM6N1767q3Fwnl5feA7TWY0m1UJ1Y/OiBdx34QekxQyGIJdSpdi7s/vmqqn41o+xKnVfFv+fCkC3lmS8evydV9fl79t31xdKDhkgQW2DHp/Zsnj118tV1qm2pl66sq2rzqM7G2kc3oHeq5NhSlaPVUg5lVB2sUh9cXLP2K/e97Y4nSm8DAAAAAAAAAAAAAAAAAAAAAAAAAAAAAAAAAAAAAAAAAAAAAAAAAAAAAAAAAAAAAAAAoHn/B9JhI3aGtVvAAAAAAElFTkSuQmCC;" vertex="1" parent="1">
                    <mxGeometry x="701.25" y="130" width="64" height="64" as="geometry"/>
                </mxCell>
                <mxCell id="18" value="" style="shape=image;verticalLabelPosition=bottom;labelBackgroundColor=#ffffff;verticalAlign=top;aspect=fixed;imageAspect=0;image=data:image/jpeg,/9j/4AAQSkZJRgABAQAASABIAAD/2wBDAAEBAQEBAQEBAQEBAQEBAQEBAQEBAQEBAQEBAQEBAQEBAQEBAQEBAQEBAQEBAQEBAQEBAQEBAQEBAQEBAQEBAQH/2wBDAQEBAQEBAQEBAQEBAQEBAQEBAQEBAQEBAQEBAQEBAQEBAQEBAQEBAQEBAQEBAQEBAQEBAQEBAQEBAQEBAQEBAQH/wgARCADIAMgDAREAAhEBAxEB/8QAHgABAAIDAAMBAQAAAAAAAAAAAAgHBgkFCgQBAgP/xAAcAQEAAgMBAQEAAAAAAAAAAAAABwYFBAgDAgH/2gAMAwEAAhADEAAAAb06M4nAAAAAAAAAAAAAAAAAAAAAAAAAAAAAAAAAAAAAAAAAAAAAAAAAAAAAAAAAAAAAAAAAAAAAAAAAAAAAAAAAAAAAAAAAj3WrxCWM51klZKR2s5VMp28ddmeqPd2NMAc7y96rxFj4GvvZJs4+3c1WP3+/gAAAAijT5K2ZRH0dP8xopUg79+Wt20UKdsgQ3Bqr371Mdm5nVORJp+OzcJVBALZ0IYbeOtu+RHNm+RGAAAIQUGXvIijGerBABQJkR4dh5Z5KAAAgYa0ph5pk5a49AAAENo/mLyS4znb9AqYxUkGeoRZJYgg6XgXkDXIQxnDlG5c5VQAABDKPpl8lCNJz+g0qGoQ8yYqYh0bHgaIjKzdkCC5BSduSLPy1eAAAFCR9Mm/+NJ0Aqc/gW+YCaIjyGwAAQcIJTvyPZmVr4AAArihy7vLi+ewANapOUzE6gAAIMkE525Is7LV4AAAYLHc0bvo3nAACOBp5LVJgk/wACGRrqnLk63s1WAAABHWK+gZL0eV66O+ZqSsJWHQBRhr/ACvzIz0T0T1DCZv5TunO1MAAAaXIL6ykFh7NMIsktshiR7M5I8nMJjEkQfowoyfK16ppV58vuxUsAAAcjx2Y+RlO9vUaWI+fXnRW7jK3yWC62xp5VuY2s8VYLd99SRPtrdf49co/Prra+5aOMzmAZPBZ3NfLYAAAA1Ow70tNa9xJfNipfT9fAAfD6AACusZnbFyeCAAAAAAAAAAAAAAAAAAAAAAAAAAAAAAAAAAAAAAAAAAAAAAAAAAAAAAAAAAAAAAAAAAAAAAAAAAAAA//xAAmEAABBAMAAgICAgMAAAAAAAAGBAcFAwIIATAAECASFHATFRY2/9oACAEBAAEFAv4zdFYoRBodLuit9UHZ0L8reQUyxSOoFqvUMpHSlf0Uq0qKtS4IYkywdIIzzQnwfI5c7zLnieJZ1OJ61C6eAa/1XCw8h1ez7XSXpbqlDqFMkSOK10/Eq1kwHRL2XfscPDs5mB7VGel7IrWlo4zG5nGsvynNb2mmqTPWovEap0fe6FhmhKJWVx8D3Z58ixJL+iK/Q3bELcPt0WjEApKlVL1LRwcTChn12WyyxZ1o0vE4b4HbT3rbec5jz4MzYdAYgVdVvjVZ7fRUpobxmQttb/h4Xrj2pyAnEGHHifjabJVxqG+p5QGeB2q7rFXzuLKr60QIPyZQX+nRYlBhJl37rc6S+NmmnJF5Rqw3ZVCyXxsjTZazwVT/AECXgI+KOnXyXAwodoRkADA3H0pgqica1tClke8X22Pxw6zYZ/yXgVorJI7+rm7BdbU7FCmHNIGlEjTXfbZHHLJmgvuXRLwJ7bMXX+rkNeNOXEJ20fpmZlO7ezeHA4ofyct+uwlHL2eAsvyDvBadi4a7Evt+Ip8ebVGMlnnsm46ayN25EMvYR+GoncUypKtp+DJyQsBrINuxNJ7GPo/k9zMl23Vd6ebUweFW1ZFDK3M2QCS9uG9UorxDwFMaS9lxQyagQSJtiHbI8v8AO7eLquL37lIgqbeUmCbNEPhs5B7TObFWD70OaL4YJXJeaeHtZHhQ8ybPZ6IpzRbgI6OOBtLBZU7HSxKQvZr2N8wAwr/TUvgXIUkmkimma1HKqNnhAOiJPah0pbOUO3vLu4tsdrO4NKaZcSsuS2+kLeEg96GjDpwteMtsZR3hfsx+SVxNkkvKXk2EQ2o9mVaC842OGymzxSQWYzJXDtcJRlaZGkRYeNYJDa9d/Df/xABDEQACAQIDBQUCCAsJAAAAAAABAgMEERIFIQYxQRMHIgBRMBQyYUJSgXFAFSAkJVOCkSMzYnCDsRY2Y2SSoaKz0fD/2gAIAQMBAT8B/dn06pIKvaqhWoSKWOKKrm5Uyq6Oy00ip2HuGZGcSroSpjx6YbjM9itmc1bmVGWQxy3uZaO9G7aW7fIKLJwN3VjceF71/SKkclstzWen1uIquFKhbaaCWNoGFtdTG5Og8SZOlW0qtIEky2RVYhG9TIpkXgwU0/Zv8VmFjxO81XTjaym9mgjql+NS1VO3+yV4pT8iH+V6zLq/LpOVX0dTRycFqYJISfeuNRiGh1W4+zT01TVvyqWnnqZfxdPE8z/5I1Zu9PsPtXUqGjySrUHdzzDSndf2amWJuHEDXTeRdunO16oj/VitjIBRayiLpc2BceotbiSpbCPatras2K2poVZ58mqiq72p+VWD5/ukkxt4m2nG2vcgqbMCCN4IsfzeX0rpRPtM05v9yy+pmUjdjlaKlAY+9J5COOnhe32JoYaiNoaiKOeJxZ4pkWSNx4MjhlYe4g/9Z1022fzNcVJGcoqQtlkpFBpyeHNpGKq38J4WPFzp3r9hs+oMxNIaGsqKT1SQJmMFK0kLxO6qs5EbyCEYWuVlkGE9lmG/vmfSOLkocmzKT1AwiRMyw8mT4zJJTQY4SN4QxTYvZxp7RyXpfklCgfNMebVBWMkM0kFLFILl+XHC6NKpJt+nZwQoPLS5Helo6Sij5VHS09JF+LpoY4E4/BjVRxPDifH7FbleW5iAtfQUdYALD1NPFMVH7DOpZPySO8eymzURuuQ5Vf8AbooJP+RH/wDf69UNncty1qLNKCOCkNW7U09FCscUbFExrUxQoq4dAUqCOyWMLWDs5byOkKKcxziT4a0UCLv9l5yX92+NPf4cfoHU+pM+1c8ROlHR0dOB4Y4vV/zqr+T0gA9bnTcRS0gAtwMs19d2mEacb+4/QNuJTNtXnbM2Iir5V/dBDFCq/krGF+TXXf5HR8j1OeC/aMFCQNNQJKnEfHQsu7TXXh9A2tl5202evhwWzOrjwn+5lMN9NO1y8Xy8fJ6P4fVZ4dMfIocOvawmSpx2HEXCYjfQ4d99PP2s/tNn3aLfhWt1Y3P69+z8yeyo4KAPJ6RL+FM2bBe1BEuP4uKoBwfl4b/w/wA3n7WBRtNn2Hd9a1p337RnYt4fCvpw3G5Fz5HR9Dzc+k1sI8uTd2bs1Y2/xGHd4H5voG2i4dqs8H+Okbj8JVbiT4/N4ADQeR0lpJosnr6uRVWKsrVEBseY4p48EjE7jFjfBHbUOk194t5+3FPVwbUZu1VFKnPq5Jad5FYLLTGwheJiLOgQKnZuFKlDqpHk7OV+z4yzK6LKq+kMfpUWnpjUw+rNlxSCSDHzedjxtMMJs+I7tT520e0lFszRxVlak8qzVC08cVOEMpJVnZv0jxrhREJN2F2Kr8K42z2t/qqppHjpTSU1FHKsSu4kld52Qyu7KqgC0UaqgvazNiOOy+RR1lTl9VDW0crQVNO+OGVbEo1iNzBlIIJBDAggkEWPfYjbbPNocxFDWUdKaaOnd5q2nhnQiRR2BIea8CtKTooVb4Wwr8XvJLFCpkmkSJFF2eR1RQPEsxAA+fvPn+RUwBnzjLIrgkY66mBYD4o5t2+QH5Tul6hbIQsVObq5H4qlrpV47nSmKHdwY7wdx7t1N2TU2FVVPrbEtFPbhr21Rra+F9DpuvU9WMgjuKekzOpYHQmKCCNvfiaoaQfLDfvke3OQ55yo45zS1sjJGKKpGGVpGW5ELKSkyA4hjGEjDidUBHeu6j7M0FVPSPNU1D078t5KWASwM/wxHJzVD8s9lyNCQcBbuvVLZZsV2zBLbsVJ7Wl+zglfeez2sJudezr3PU7ZOwPqas7tBRTXF+JvZdONiT4X7jqZslp97qRcka0VRpYbzZG0bcLAm47QA1MXUDZGW1s3RCVDWlpqyO1zaxLU4XELajFoDfdr3pc+ySuUvS5rl8wF8WGqhxLhJBLIWDqNL3KgEdodkgnbjIY9oMjlKyMs+XpNX0hTCUlaOByYn0PYmTRWUiz4GuVBU+VQbWbK5Ts1STQVlCrRZfD+D6dkWrkq0gUNC8CgzLI8owNPIhTUytIUu3fNOou02YPMIaz6uppGvHBRrGkkaBrqvrMHqS1rY2V41e36tVOHvUVVVVuZKqonqZCSS88rysSSSTidmOpJJ8yl2mz+io5cvps1q46OVDG0OMOFRhhKwtIHenBG/wBO0f59f3Of/8QARxEAAgECAwQFBwUMCwAAAAAAAQIDEQQFEiExBhMAQVEiMHFhgRSRJFKCMkDRQiAjofAVM1Nwc5KiwRY0NVRjcnSjsbKzw//aAAgBAgEBPwH9Ge9s8kGCXJiZ0Z3gjzxllZVMqlu0uoDBch682Xp1s948YshlivZHT3J6XCjWvZ4tSnwkDXZza7+XC0F5ZRy6fLgkMRr15HEg102MKa7a0C774OQuZLxWI7Q4KNkPVUTdrxUeboEO92BTbbpoT1TQSj95FkT1vzb3drdrntriGdeuKRXp45SaHyGh+zLNDAueeWOFPfldY1/aYgcy7yYHCcr4jAT/AHfEmHrhRx09f+x5G9uAlmX00jLrmNvcBWp7p4Z18QK9FdObfeLBbkhYsQgzHYJc9v8A96oPp6OvkEHUGo6xr3e+0/DwcRintF3DGR05UDzVHxRpXx8PsxySROJIneN1NVeNijKfIykEc4fvfitmaTv6fDWpWc/dR15JxVh8YkA6uu13lwy5tOP6TbxT8FpGtZZgkiuqkmIF1UvqKAohqNQOjmz37fiN+MLReEa5DZ14idSss0uWSuwsHiptCts5xHfTErlstlSxiBbUBJJnU/JzvIrBCBr9yAIJ+WaAma4nuGz3E0s7+/NI8jftOSegfYt727tDW1up7eu3gyvHX/EFIB8/LY5jD7cTvvhuZU/4ledy8Wu7wXNldNJOIFE0dxIzu4DNlMMkjE117UVTUDiDVQoTuN/WPolgv1TcSsfFYwF8uxm/CnzDcyHh4JG9P6RcXEp8uV+B/wCPc7/H2fDh0cac+pI/pPzDdtBHgeGgClYM/nkkeQnzlifP3O/wPBw09HFuQdu0rDTydB8vV0/MMCTh4Nhi1zexwPX9Ygk+9mp5ujud/q8HDduXi3NdNK5YctT10zUHTr1a9/gf9TYZoB7Db7P1a6+LbT1k17nf0+x2Izbbpzl66RHtfDWnxfMMCqcGwyv9it/UI1A+9Tx2+Hcb/N2MMTTVrtvLoLcerX8NfmG7prgmG/5ZR6iR5Or6anU9xv1PHJiFrApJeC3PFFRlUyvmUAbQ+VczV+qY6dPzDduWCTBbAQOjcKBUlVSCUm2yK4GqsWJbXaCG2HucWtcU9Nvbi+tpw3GYyzcJ+BqaJlky5OHlyiM1+TTp7/CMIucZuHt7Zo0McRlZ5SwQAFVA7KuaszCmmwMejXd7AvxJDOGn481y6FyqlEVYwwRVBJJPbcs2lagZdKnuLi3huoZLe4QSQyrlkQ1ow29FCNQCCNQRUc7x7uYbhNp6Tb3E3GeVVjt5ZImBU/KKDIshCDaanaKnr5RHkYKiM7HYqKWY+AFTzHheJzfksPvXpty201B4nJQeen8eU3Vx5wCLAqD789sh86tKGHnXkbnY6RrBCvkNxFX90sPv9PjSHcbFHpxZ7OEdPbkkcfCIlX/UP0Ylu1imG53eITW6BmNxCaoEBp90DZWjbZ2ddtFZzXm23Rxm6gjnWOGJZVzKk0hSQL9UsmQ5cw1A20+UF2cncrGhTS1avVPs16axjx0rp5dOf5Nxyv5GDx9Ijof46+UDy8nc7HfzEJ2bLmHXyakbNprQdXL7q48lfYGbUjsTW7bOkASk0PRoPXzPheI2xCz2N1GTSlYJKGvUwBUnXYCaHQ6153axRsLxJKqDFdMlrPmrmRWkXtrs7SNtBBquYUrQjurrAsbvsXnjkt7kh7qT2qVWaBYGlYiRZTSMqqdoRowb6gXNpzZbpYNarGZLf0uZR2pLgsyu1NTwM3BA90FXK+8xAbmKCGBckEUUKjTLFGsYoNmigD8PX3c2DYXcXCXU1lA06MGEmUrVgagyBKLKa/nQ/wBH6G//xABFEAACAgEDAgQCBwUDCAsAAAACAwEEBRESEwYhIhQAMRVBBzIjMFEgYRBCUoEkJTNDojRUYnBxghY2REVjZGVyg5Khsf/aAAgBAQAGPwL/AGZ5A6zHJY51JHMgjA1gVpZH9oGkgLBCUl3iChnHP19JsI6TRn+ogqCnzNevjrOeGmLjPhk4hNg6otlbYHxLEtp/wajEdadBZOiEAEzbKnexgTunbBa2kOrFvIlhoLw2nOnvMBC5YrLKMhiWD5VRwovmMlFnx6fIhHvHfSPb14sk2mX8NunaH/LUtyo/mz1zY69UvL+ZVXrdA/oXGRSE/oWk/p+XmuWa9RXty2XLQv8A+bSEf/v1INz9Mpj/AEeH3B99Pr1EuH/K9u/tHpgfFyHZEzBnQvwDNI1mFz5bXX5RBQG6ew69vQhWz1ODL2GzzUf5f1qq8a/hGvf5a+tRmJifaYnWJ/n92NeNv9fk6iCiZ78ahdbmRj9GV1RPyjd+OnrFX+EByHUzLGYuu2RDTVztr41RM+sal0lA5Q9gWdp8iOpmZ+tb+Jxt2Z95t0atmZ8Oz/GUf7vh/wDT29vU+Z6E6aGS+sVPGIxxTM+87sdFUtZ/i11+fpuU6Bz1rpe5H2lfH2SfaoLfyazwXwZ8SprhcztifPlBjGkwM+Gx051gj4gaS5Yi2wii5UIyBd7F5QQg2VbPGXGT1N4yg1OrosLckF9aVsZZ+GHQuXDMRNyUFj+cLanPBXgFDq7Vk0lDGg8kDtmPTIzuKX5Ut0qPE7udXbwAa7dnjfEz2JkNRt94Wf1fVfA9EY5ibFprFoRVWixccqdIFlu1aHy1Fahjex8Shad077EiMF6G99IvWDIKdk+SxLW5O9oUDJi3K5MOCu0NOPamnfTM6ELto7SVy4G1l2ridX5XLZA5bM6eJiKb6VOZjTSIitAaFOozO2Y3n0H01E7AX9ljVVx0WMiPgRxhv0nxs28jJ0JhEURPpoLwDcHYawWedweQtV3L266gqtbK9jAWeviHyE/LbtmI9Oyn0ZdQZPK1gjkfhyseRzXhjxEg60oo5TtGsplVWxptWhNo509Hns7W6vxuHXC5fbdabW8vD3BWV5pKrA2a3I9i1RFhS9SMY/ejXIYjJMsXYpgNuvfsG1zRFjOM6rnsIpPvMMrRPigYeOsgKxD7jBr/AMMr9gy9vrrrxAfr7MZ7dvfX5eumaWm3yfT+Gq6fhwY6urT/ACfy48uq8VN9mL54puVcuUXAuzxy5JspvSTVGSllAs3cZQUqkORu+/jel8VWXWwuByc4nEasKuxqqtmwuu0zbzs83ZmfMNY/mabmMNvIUn6VUpVn3LVhkLRVqJY+w5hey0pUJsYc/uiAlP6esWGP6Qv9HuJOy5TzKqnxuw9e0Dt37FeBN82JHeMuVUPT/qVYNgfm6liNuh2cAJa++349jj8H4luEf+DfPy9V3RGk3r161M/jsb5L/wDKmn3PR1CusWNu5qa6gZ3Wb3FUSlZjrEkJk3Qv01jWNfUCMRERERERGkREe0RHyiPlH7YznU1wqdA7legslpbYa21Z3kK1JSJMORSl9hmkdkoaUazEDM4/pnqankb0Jmx5OU3aNklDMQZLTkatRjdm6N4rEiCPEUQPf9jqzx3psKYhwazG9TQkGDqMwUbhKY1GYmPlOvq/dwlexbyN1p7cllir2rtGmX/Z9Fy6yOCt82lAy+zOnmHNFahX+zB1vhoZ3JZVjHPx4ZEaTqeLToE3D/p7RQVh88VMWKBb5Rb0bEoKPXxbpy5J8UwF7HWeNeTxjTk4WF6qDG8cOhRlXcBsRYET4mES2iH7LMVwklFncMN4ojsuryOITLtOkTdGovXt4mDGvfSenwEdsTS5tP1sPa8i/wCMmSf8+33PRUJQ2wZZhi1pQbVuc42UOJCTVIkDXTEisxMWiWkrmJ1n8nROEgIHGW7WWyrT95bfxyqtRAabfBFevlLE/Wnl8zHhHh1Lp/CYhTG3beSrlHEUBKUVj8zbtSwpEQGrVS2xJTOv2eg6nIjPrN9V3EHaTh6otiqsuMrNh71VKdfl2nxC63YQs3cbOICJnGe3bORwWVxiMPmkqK9j11Da6rcoLkAeMsbO8blcmCUxtFbklJhtlZD+1XW3TmMymerZarWq5Srjqj8hZx9zH1pUt3l6qjcNB9KuvVsgQKtgyGMjzKA9Zjq3N1Mhhca+geJqY67FuhYyFrzCHFcbj2gvkq1Fi1KG2I0l72cAlKzMf2dUyvj+xPCuPkFZfZxnMcBbN4lsZ49YINrNNREvFMT06EHv1xNJu6P/ABCRfp3/AIeTb/L7n6IoQl1jb1vj2ylK98lKMhim7p8LIHjULmTMhMCoWsmYhcz+ROP6rw6MtWrt5629litYrNmIgpr3KTq9tMMiIhwLcIOgRhonsHTTpnpvF4lkjxlaRXhl9i/4G5GxLr7g/wBVtgh176fsz3TriWsM1ib+N5mp8yFdlquxSbXBvVyzVcS7ADDVFvUO1iy0OM7XyyJi10NRzCHGljfLryh2gw46NXtW5b6rcgaAd4WrHmENytQ/N1cRyccc4IhgJGNxz1HiVjBbhLwas3FA7SmB03e/rpzwwP8AY2P7DGkf5sHi/wB5/XKfmRTP3P0U01u4yHrenkZDxeNeHD4m6fD/AN1WNX/v95iNfzU+mrnTJ3cROOr37mQTbgb7At84BOPrGIV5iu1BAcPsRzlBjB19kGVDqPBPJ+OyAFK+QeN6jWZKdXsq3FxPSwSEw3THsYEayAys2K9Ssh90xZcelClOtsWOwDssAYN5gHgEmyUiPhidPz9W6fI8ARe/cY6kxH4RPz099I/X29dObvf4PQj208MVwgPf/ViO/wA/eO33P0SLTx8hZfNkUFJRPD8K43TG2Yn+5Yzbr4ZOBgoIN4/mZQzFYE5Fa5+F51Cl/Esa6NSCBbI7nUjOZ81QYXC4CIglNmE2VPb0LLc7jbQb2txa0W6N4V/4d/CXCl6ba/3GIEz2FtrXS1asdrPozmx5OBbYJvRvUKjsgYzO2JXkEraUQUeCkvlAgiGD/eCWMbnOhOlMDjGWEFkHXb92remgzYwzqY4LmSsV7S0HpCbwxM2BlbRr+LZ+XrMZgp2VsY+Noyc6ozmMbrpETMD4PGXsAbjKYGJn109P/l6x+X7hGPygfw/3/jJT4p+46dzHUFa5eRg8Lk90UwB7KV7IKOKbUVzsVgKxKoNTOZnGKraGjEGrkGfgfS2fyjYLT+0XUMOgo3RqQtSzMO+pqUQVUJktBnbE74R8D+jAnhaeSqmlnKZI7U7oiEompja8Mf2IShcM8Ux4PDoQHc+hzIqrbCAgMc7XYVgWTBED24cgEBgSWSZQZwyJmXduP0Cs/wBL9S4ez4BaNXyOSQk5mYZvN1jF2uNfadRpkwu/2MTEblyjrHG0WGUjKM1y4Y1lEa6GzIrRW009mBYNUzMBv5PD6CzTsot12a8dis5b0npMjOxqiIC0KJidJ7TEx+0C6oztWg9oC1GPHfaydhRMlUOVj6wstSjkEx8xKxRBLOJZqEx6erpzp7MZpw6imxeOviaLJkI2sjSbt2Rg5mJWdWuZbexRugoZ8G+iuu8bJQePt/AuoxppQf2q/MXLGQTSsSSCDa6HUgZ/eAvQoGHWU9IYioqG/wCaivBBAxovwJG9nm22L+e/kYWps2s0DRY2cn0DTyyAguRaMYu89msfW4unsubxIds6bUbe+hAWoeordbfRtaxo6wDOJl7G21l4S7U8tU+0nj1mFTYTM+GeTT1n8HhqmYTmswqvRCnlaFcVqSVpLLVmX17duvPGhbIr+OHeYJLOMdpSOECm5LPL0lpsgshkk2o1l4NCJmQZLJI/FpJwUMiNCj7nL38zjrsN82wrVqKr/JRqW1UrscfF5fZxiid3cNke/pdyOgMn1f1MHHHJ1TkKHwJc+HldWx1eo4ImJj7BVxN5i5nfF0dIH1WqdCfR1RXXgdAVVxOXzAxETM+F9dlGnXRERtnVOmu6eSNYiK70dNYymtuhxGzpdDds9ttivkcudmv/ABSJqS2NO/b3cjqX6IOhc261XOtIWstjFRKdgzEXqjslkEvFj9WypNutEToMrQQ8nrDFb+hfE9DYNQOLJ0sP1109GWysCDYmabm5Kvi1juOrFVIYbkKyLAfflb9lbJ08X131f9HeXrWtUQTaXUNaxR8LqYZPJ9D5KYrXllqFqh5HJLDaJEYywkqEck3D9S1wGVz57HDTcenYGi/GeR0PtEzLUM3DruHfO8XJxHVl8KzpMvK3QrZWsmTmZ/pFZVFwacRM67avEEz9YS9W7oKyXV2aRVXNlv8ATKCpShpClQxM1KNNHM1kqrJhQyZPYK5nlL0jNY/NYXpfLhrKlhnsnWyleCiRKPOYahbQMnHaQVcMSGdDL3H0x2O+k2plDDuNVmav2Hu3PPsv43hyq6wJ8pc1lQwOqQk+JUEOzJ4zITuOCWH/ACZz7TGO5HZpVR2qkfBxN5dzJ1gx02cWS+j2hmoR4GOTimWzdsjuwG4HMcEkemuoV5Hv2XHtGK6R6r+jLFNx+RyuPxuQxd5Fy5eT5xo1GOCldqyJOVLiYtB1d5jE1+SCPmGtnejZq9OWnvitZw+13wqzMg9vm6+yXFj2BtWpiEK8oQbTBSmwXmLwMuRdtZBqTaa1ypILriyErASIiKdXNI2Tt13COzwbi+4fQvJGxUshxuSesQY6xPuMiUTBRBRIzExMRMTr6K11bnbmNwqKl28ytYytOryxXEZFCCmtF6xOpbRr1iO29hLWst3hZV6Y+jbpO9bx2KT5bH2c3cZXrCPMTDIUyy7kbSz3mQTYs0mwR6cQAECXDh6uDxG8ohUY/FNyFz8dszkX3UsIvadtMO3tET39GNvL9ZWF7xk0Y2vaxVSC3DIciMUilX8JCJDyD4Zjf2nv65zxDpJneWWr9AWz2j68OuQ7XSf3h+Ux7x61mnUXOmu079bX59vAZjrGn8WneNJnvoM2ruJqDMd4htiw0f02hWFc/wAnaemtbWi5QUJtnIVJ3JFQltiXie00HMbZ2TBRO7aBsmJ9Ky/TGWsdOFeAWmsMm+iblhrweepCBpcMwUmldkGbYLUhXM+t6+tibLJ3lBWaLoCSZrMbLWO2DEfW2KiQFccYRp9nP/SitG2J0KafSciXt+78InWZ07SQfjMzGs+i5beCyXg7eap4IJ1LWNR8kNCN6/reP7Oe3Y+4+t9rprpzJJhmhL8uuNwiA68ZUs2pkQXcxMgP7SSjbIwK4guqvoqzGPtMBajv4lkWisD9YViFqlU8IyfZXxF20pmJ0LX10vjcDjMmsWZYgzM5qsmrYpKbC6yfLeUv21Mnkaxj4P2CvAxEEzt91dRYo5Exfkn/ANqWQMqK6Z2TIXhZORRKgTO8K6jhnskFwzQPSJfR+KW1hoyxeNhqacjoZeR5PKQGusrA1tIO32hFG/1CqdWvVXERELrJWkIiIiIjasRjtEREfeKyVvD023kshov2SuTYJbhN4qIF2pif9JBv4e3+xz//xAAkEAEBAAICAQQCAwEAAAAAAAABESEAMUFRMBAgYXGRcIGh4f/aAAgBAQABPyH+M6qiYx9VVhzKauYigyTCkw+dVrO+AiiuVZxp7zH5EOXUxclgSqZYw4/fZ99H1czzVl8xhyCUxpcs/B6Eoh1eBLL0bqRq8UDBW14E5TRIFH9qn8DBnl3WpOaKW1xFyHmQjpwrUYHkFE/Hps/XWx+ja6wOVBJByzO+6xb7DPLQmQMKhVJbn2eabQ3l5BhtrLlrTdhRhNDE86ZOLzQ6issT1JvW/WWfVcSZZxndlXeuAQMZHZEObiNKjwUCibBd8eRhnWRa4IaNTo7yCuR6ZeN4bGtKFbitcgySQhj/AOq/qjpLGGUHZmXPcoDyldhATAu2cTKjGTyYDcKtdDIfyxfRwsEG+HWS/PG/Y7EmUCTrTqY/Gi0ggGisvrt2UompYeBWccdZRNIFPF4VXpdmDAOEx+P/ACYD5HOKDyBpjy4x2MBOx2VONfwI/H79DwgO8AjzBOY4p0HPDoBgBAwBD3H21lw9KiZMt5BAyuvTgq1sYjfzIcBluqiqQEmy1kkDuU9wNgBbW5JhCw3DYRD7p+cIPzlZAs5/AJPwJ09wDZqDSStzOXA44AgAA9AAzQCWQwkr8Ixjx5z/AK1f7X3oeOMTiFjucWFqgHMD4UblMR+0IqcM0jBtm0q7GHTz2vlvAC72CCBY2t1rRZnOzAoCnZmxJ75tGmerkvISvIQaAlhypOB4OfOD4nB6EGGZEoyUQ/jZ90CrgwnDvmqWtorKgkt4APNmRV08UCt861yhoQqCqJLaCHSpL/MNHJlZL4JYVAELWuPQIAjDq8phl9F1QPcsopJxciQ2/F83OT5L6Ts5qvDZxv4I7ZU2CJyvdgf9IN2Iz52CBajgoYjbuKNpCi4xIuiSXLXg8AgPQoABmAAL1PMaCfEPD1+u9TYEDsnDRQHD3MfKfr4EUGqbtQctvNa9bGS83YAdXPlwLBGRMKBYyGL4sSZn2HCjmYYTOeiZ9JUd7maclZqYFjgtuixeFQ0hEYBkobUMkMmkeEE+mTgLVBadX8o7inYgrTFapTUjZmhkQAGY/e24T5DxdRkQ9slZZS1dbzI2wK9MBMKebON0AQHlOBuXZJdkcDHQyA+bGMMgbyV1P1DsNmzqQl5AOejKsqQgtaGppmrSMgxi2eBE3Qy2xTZhn0KCFXCZsWxeeUg/xkeQcpqILcNzt4zDgYowgfREIVjNJGYXCCUNNPiqhPFdWTAEy5Jw8icSft1s+zc/fJyIV674cgQVihZFBIiWlpaybG5bPVEU0DHezqCFM/u7n+NgXml24WfTIj2WLYKdhJZrvecQpcvWXovZ2iO0QcBjsE6MfadXRaONgRBtxZrt3X40RBfpeknEiUlDwIWD0bc2ppckRG3zAQf9292gK2iU9DQVk9abVDG7eVuUukWC0vBeLWwQAgAUMxHToO0y2ql5cEAxPRhuCsKK3K8QLrLcokZi8mbuv9rqtqMLeAFlyMy13ZHs+VlZ9voxUDdsLbClYraf4NLgA8OZWVJegxg/wrfXnsNeskrcBwBgQu6iM0eksuosvwdfW5dlC233AtnT0/XkCMYQLXBGAU852bIMZCWh9HR8jmaJAJgA6+MHnP8AzJ+nPzH7KTQJg4jihHA/hv8A/9oADAMBAAIAAwAAABAAAAAAAAAAAAAAAAAAAAAAAAAAAAAAAAAAAAAAAAAAAAAAAAAAAAAAAAAAAAAAAAAAAAAAAAAAAAAAAAAAAAAAAAAALqsgAbz4AAAACSQUIgQT4AAAAMAASAAACEAAAAACASAAACgAAASAAAQAACEAAAAgAQQAAAQgAAAAAAAQAAAYAAADAAAQQAADgAAAKACQCCCAEAAABASQQCSQWAAAAWBxoloAtAAAAAf0ACgAAEAAAAAAAAAAAAAAAAAAAAAAAAAAAAAAAAAAAAAAAAAAAAAAAAAAAAAAAAAAAAAAAAAAAAAAAAAAAAAf/8QAJhEBAQACAQQCAgIDAQAAAAAAAREhMQBBMFHwYSBAcRBwgZGx0f/aAAgBAwEBPxD+s4NQYnQAaAgDjCK0oW2ztoHhGjxbeMW1gS2sQoic2UnYmus0SqUIThWR2/0VKZnouoUcWBmkHJgtoM0YkfqJUijeFqIgDYGnxyGY+oqCnyLIxGQOLOmlf4TabHMHODO8UDJE5TRdLHDxjRIHwqI/s/1ntinJo/WCRQqbMH9SubOc7cp1GfDOF6gGtWyMLlDkk4YrpiDziJ2a0PKTJ6UaybTh15ZuSzhBsQErLs8ucceSYtoV+1K1U6n+fn3Pxrp4x0leUZKb+WQ4qiwVSKvBigcMd8ko/wCP0kOFVNTbm84JkHZzpSXjbHXg23YNH8CgBV2jSHiosbeuOypTuYys+hQ03IX8AC4WAAGIgFYu1tKXshviDcW0cYEF9NPwKuNKwXdsvgFOh27ItEyTAYE8uKJGZfwAnWfQFZC1s9IEgTs28sjnUkrvtJAjR/AEVUijqVAS5imIjsjo5S7EB1SOGqO/wGQhuJ8LyaYuSjJHZo+al1ZWZgBS0HtPfff+fYgzJAQGvw06OzGUklSRzI5WZJB9D33P/nwPY991751/Jb157/BX5EKcduRr9NBwtnjdlz1ku0KJJuuBDkcI+bT5ZdRmK8++798a4xmgJ2xCUqoXZeCjyIEVYpSFi4BA43C7usjr3+FAlOSrah2GE0FTDaFfI8tBFTQ0HEJbAOHYfa68KZkA07w6lQWMIiXDlAl4wKFEaEZaYBMgSAPICIUMm2gh5m6FOKytJw4JaKMyUYXKN2yhaeKVqC1nOMm8YMgHMTqjwTkWsZgmuYOTdsrnSSUjrIq9BXF890IrCcUfCBbhQok+xVCBcqrav1FMijnWNkTpsUfjzZ93IC1bV/2g21yv6cf/xAAmEQEBAAIBAwQCAgMAAAAAAAABESExAEFRMEAgYXGBcJGhEMHw/9oACAECAQE/EP1n0Ol8i8Lb0Da48J5gBMT8lERgyCDwCLQu4uSPQgYRg5M5KZjrrEDrMMoeWIb6u/wCfBe5F53DmbXa3mLEpT2qSxiGvZq2mLf64pCLZwkJbt6AysnCWAERyqUuoC8TPwPlWNlOm2xgvdV4BBJkQCdxKP8AP8+Nn1MTtcI2GqAbKj2ipcEppYR3G/W+GzJbwMQRCGK7Ia8ByU9YyBaUiH04n1k4qBmQlEjvrlBCsjeECowsSPAt7fwUfBgl0B0PY2Rqwzk6HQMXAGYcKSZ6UP8At0/3waOHkaimgoXwhYR3ozM0d2HCbs9AA8CiN4Bfoj6PnwphNKaQRBNqkEwRHZ6BihSFW5UXBU0ACAHhgRip0JD7G102H0EwCEhs0BY/PB6jTwqcaITTspgLEYXTD0B2uKwAMIYdDPtSyvhheNFxOy0OMTNyR9Akd5EE6Eq5mnSwAQ8Iy6lS4BjO5ZVymLPQKOJM6d/wCORizanhHh/UJJmRRUcJPQJZUztUJiBKUEHwtgT6YFjFNMsc0eegjvxF3SAMcxhxO4B0sTwtdVHhlGujFICtQgADIcaApWDxBaagdiP8UDdEI7DR+Af644iKBKV0SfkYZ6cZ8sElrZqOg0lpOXCEGuFuNiQuQxHHJJMSwtula9cB0vGVBq3YQIC6ApKDlxgJs0T4TmUKHjFIgo5nCRVDPEjCvkdEAGLEaABroh7jfBVJBBkFiNoGwDktOApIWIsDTJOWREwA5koS2YEMSQUtEBwPPVAFyTGUUgh+P5CX0MAW3TAHHOBBbtIxVNTgl4QWCQAUABMAAHQAxD2pd+8srmSU1DAR0g0fpx//xAAiEAEAAwACAwACAwEAAAAAAAABEQAhIDFBEDBRcGGRobH/2gAIAQEAAT8Q/WakK639Hg40hFQCRZzdhe2OigMD2FSuOmv3NXJeOLohuFSlpRjlcZNlhE1IknmqNIq/ArgUZAfEsQeJIdzFgUNIIFUDu717RCcB5s7Ey/8AKRqzoN4W2wtZHTh18DNTABxVsXmkHOlVPCkfHznlG4MKyTiCYquR569dQTwiVV6CIgj2Oj/D3/z+7+JVy6A4OSYglOu1MeimLGcWS5ogOmDDhO/gHoi2LTjhw71oLu5qdZ42tmI9kQs07MPBI+hNHRdjZaHia3bjSTJWwcuN032LVymGKSoqvhVpGBGmLcdWitZdhwpBcFVqs56JFihjZSaJeac1xxd1Ee5S9GnVVEwhpd8UOZtY/OM689lwNgQBiHHzBKoRkeOKubkjYfSRsbLc6y6uwYQgnvRGZDk1DWxOdaiPu6lh003w5I+4uznABIDdI5DTNCKiB6/l8fB1GX4gUYkHCSVETcHQKXGIy8IiQYAA4B1VLy/NRvmNZv4Wit/QCqYwEIydBCpTZtibFAQgcOaQo4TyxJ5m8wxdEhYSFxDYllkfv7ZBoIpYIxAZnUtPXNjatBST5emX2vsX79MQnGAAmABJUBGoj8qF1V32lK0mfeAXZuPZI4ATYqyFtP8AgCpPb6LqjMK7xlfJh9Cn3Bcz0xspP7Z4Yszu1jLrIB9V9WUsDFDw+i7Cghl0ukWpgBEwmNNP1ljfhADCfACmJPdWA5v41qLmwzFEKe+FsPrZJzkorcRj9mW6HCPZdBT6X51bhcNfxiF0mXWgJmKKoAmPMLK/EzMBiRjzFHIAaYcTqu5dK9ZAj2BlPzFESU7gDe0bT58acSc7Cbwvg29vzENkZQJwcqSJFCMfjLp30xyyYUtvJ4AmbdqgtxkR6SryMnXNuwLgEeyjnrGR8tWLBlchGwE5PWycunqmPuxoxOemzIeBmlhRgMdIT4nXZcPPWCwLWUQngkH61EnQp81ldiwlqDCFh9czxdlzr6XWvjQVe4pCh27r7wXDJoTJSnuuPnbD9gMk/OB7oXgaXDsYJeNtFx2FmDP9ukVpPY5mNtMS27ayf4BaSX0XZVDBWPYgCLaTBoezc2K+gxz5Zq7hUBewOftj8Wb4D4w9v1WMrPS2VsKcCJsP3KkugBOnF22U7lFD06jsDzH9XdkObo5qrBTuJzOX5gzAtFxXnfzy73kaCoXyfByAWCgxSiLn12w5gEJTov5yE+E7+UjwFJqC/K8i0lorCQaqhJfHlro1Pw06fLFjTCz8JqNUu9dO4bbSgEYAgSPqm1d+qEPwZr7KuR+RUXGyCDYKwa+ldhllFlR/jKDAaymnbUhr5qUCihmkmKtdOCgpWBQBizqnsOMBkRuSMq3GhORdEObYUZquDPLb0DhAEBQJv/V2K8j57dYdpi1k7h6B0MZNRYxrSnwyOQjtrhJqBjs1Hj1YLHoT6b9JlTqHf4rJjhf4UTCUln+ByOU41CaFhxKPSEwLV3RW5223JyViDun9O4+fE31QdiebGsq1Vjq5vEOjQSagYKlHYj/P5RChngHQDiggAkYQSUJD5AD2IJoc4JsOkwdz4SAH6cv/2Q==;" vertex="1" parent="1">
                    <mxGeometry x="717" y="386" width="70" height="70" as="geometry"/>
                </mxCell>
                <mxCell id="27" value="" style="group" vertex="1" connectable="0" parent="1">
                    <mxGeometry x="638.5" y="254.6" width="148.5" height="33.900000000000006" as="geometry"/>
                </mxCell>
                <mxCell id="22" value="" style="endArrow=classic;html=1;fillColor=#dae8fc;strokeColor=#6c8ebf;strokeWidth=5;" edge="1" parent="27">
                    <mxGeometry width="50" height="50" relative="1" as="geometry">
                        <mxPoint y="33.900000000000006" as="sourcePoint"/>
                        <mxPoint x="148.5" y="33.900000000000006" as="targetPoint"/>
                        <Array as="points"/>
                    </mxGeometry>
                </mxCell>
                <mxCell id="24" value="&lt;font color=&quot;#000000&quot; style=&quot;font-size: 16px;&quot;&gt;search&lt;/font&gt;" style="text;html=1;strokeColor=none;fillColor=none;align=center;verticalAlign=middle;whiteSpace=wrap;rounded=0;fontSize=16;" vertex="1" parent="27">
                    <mxGeometry x="47.5" width="61" height="20" as="geometry"/>
                </mxCell>
                <mxCell id="28" value="" style="endArrow=classic;html=1;fillColor=#dae8fc;strokeColor=#6c8ebf;strokeWidth=5;" edge="1" parent="1">
                    <mxGeometry x="739.5" y="210" width="50" height="50" as="geometry">
                        <mxPoint x="577" y="230" as="sourcePoint"/>
                        <mxPoint x="691" y="168" as="targetPoint"/>
                        <Array as="points">
                            <mxPoint x="577" y="168"/>
                        </Array>
                    </mxGeometry>
                </mxCell>
                <mxCell id="29" value="&lt;font color=&quot;#000000&quot;&gt;Log&lt;/font&gt;" style="text;html=1;strokeColor=none;fillColor=none;align=center;verticalAlign=middle;whiteSpace=wrap;rounded=0;fontSize=16;" vertex="1" parent="1">
                    <mxGeometry x="602" y="136" width="40" height="20" as="geometry"/>
                </mxCell>
                <mxCell id="23" value="" style="endArrow=classic;html=1;fillColor=#dae8fc;strokeColor=#6c8ebf;strokeWidth=5;exitX=0.5;exitY=1;exitDx=0;exitDy=0;" edge="1" parent="1" source="7">
                    <mxGeometry x="720" y="333" width="50" height="50" as="geometry">
                        <mxPoint x="655" y="333" as="sourcePoint"/>
                        <mxPoint x="706" y="424" as="targetPoint"/>
                        <Array as="points">
                            <mxPoint x="579" y="424"/>
                        </Array>
                    </mxGeometry>
                </mxCell>
                <mxCell id="25" value="&lt;font color=&quot;#000000&quot; style=&quot;font-size: 16px&quot;&gt;upload&lt;/font&gt;" style="text;html=1;strokeColor=none;fillColor=none;align=center;verticalAlign=middle;whiteSpace=wrap;rounded=0;fontSize=16;" vertex="1" parent="1">
                    <mxGeometry x="604" y="389" width="61" height="20" as="geometry"/>
                </mxCell>
            </root>
        </mxGraphModel>
    </diagram>
</mxfile>
